<svg version="1.1" xmlns="http://www.w3.org/2000/svg" xmlns:xlink="http://www.w3.org/1999/xlink" width="595.640625" height="608"><defs/><g transform="translate(60.666666666666686,66.66666666666669) scale(1.3333333333333333,1.3333333333333333)"><path fill="none" style="z-index: -1;" stroke="rgb(153,153,153)" paint-order="fill stroke markers" d=" M 0 0 L 0 100" stroke-opacity="1" stroke-linejoin="round" stroke-miterlimit="10" stroke-width="3"/><path fill="none" stroke="rgb(153,153,153)" paint-order="fill stroke markers" d=" M 0 100 L 75 50" stroke-opacity="1" stroke-linejoin="round" stroke-miterlimit="10" stroke-width="3"/><path fill="none" stroke="rgb(153,153,153)" paint-order="fill stroke markers" d=" M 75 50 L 0 0" stroke-opacity="1" stroke-linejoin="round" stroke-miterlimit="10" stroke-width="3"/><path fill="none" stroke="rgb(153,153,153)" paint-order="fill stroke markers" d=" M 50 250 L 50 350" stroke-opacity="1" stroke-linejoin="round" stroke-miterlimit="10" stroke-width="3"/><path fill="none" stroke="rgb(153,153,153)" paint-order="fill stroke markers" d=" M 350 250 L 350 350" stroke-opacity="1" stroke-linejoin="round" stroke-miterlimit="10" stroke-width="3"/><path fill="none" stroke="rgb(153,153,153)" paint-order="fill stroke markers" d=" M 200 150 L 200 250" stroke-opacity="1" stroke-linejoin="round" stroke-miterlimit="10" stroke-width="3"/><path fill="none" stroke="rgb(153,153,153)" paint-order="fill stroke markers" d=" M 0 0 L 200 50" stroke-opacity="1" stroke-linejoin="round" stroke-miterlimit="10" stroke-width="3"/><path fill="none" stroke="rgb(153,153,153)" paint-order="fill stroke markers" d=" M 0 100 L 200 50" stroke-opacity="1" stroke-linejoin="round" stroke-miterlimit="10" stroke-width="3"/><path fill="none" stroke="rgb(153,153,153)" paint-order="fill stroke markers" d=" M 75 50 L 200 50" stroke-opacity="1" stroke-linejoin="round" stroke-miterlimit="10" stroke-width="3"/><path fill="none" stroke="rgb(153,153,153)" paint-order="fill stroke markers" d=" M 50 250 L 200 50" stroke-opacity="1" stroke-linejoin="round" stroke-miterlimit="10" stroke-width="3"/><path fill="none" stroke="rgb(153,153,153)" paint-order="fill stroke markers" d=" M 50 350 L 200 50" stroke-opacity="1" stroke-linejoin="round" stroke-miterlimit="10" stroke-width="3"/><path fill="none" stroke="rgb(153,153,153)" paint-order="fill stroke markers" d=" M 350 250 L 200 50" stroke-opacity="1" stroke-linejoin="round" stroke-miterlimit="10" stroke-width="3"/><path fill="none" stroke="rgb(153,153,153)" paint-order="fill stroke markers" d=" M 350 350 L 200 50" stroke-opacity="1" stroke-linejoin="round" stroke-miterlimit="10" stroke-width="3"/><path fill="none" stroke="rgb(153,153,153)" paint-order="fill stroke markers" d=" M 350 50 L 200 50" stroke-opacity="1" stroke-linejoin="round" stroke-miterlimit="10" stroke-width="3"/><path fill="none" stroke="rgb(153,153,153)" paint-order="fill stroke markers" d=" M 50 250 L 200 150" stroke-opacity="1" stroke-linejoin="round" stroke-miterlimit="10" stroke-width="3"/><path fill="none" stroke="rgb(153,153,153)" paint-order="fill stroke markers" d=" M 50 350 L 200 150" stroke-opacity="1" stroke-linejoin="round" stroke-miterlimit="10" stroke-width="3"/><path fill="none" stroke="rgb(153,153,153)" paint-order="fill stroke markers" d=" M 350 250 L 200 150" stroke-opacity="1" stroke-linejoin="round" stroke-miterlimit="10" stroke-width="3"/><path fill="none" stroke="rgb(153,153,153)" paint-order="fill stroke markers" d=" M 350 350 L 200 150" stroke-opacity="1" stroke-linejoin="round" stroke-miterlimit="10" stroke-width="3"/><path fill="none" stroke="rgb(153,153,153)" paint-order="fill stroke markers" d=" M 350 50 L 200 150" stroke-opacity="1" stroke-linejoin="round" stroke-miterlimit="10" stroke-width="3"/><path fill="none" stroke="rgb(153,153,153)" paint-order="fill stroke markers" d=" M 50 250 L 200 250" stroke-opacity="1" stroke-linejoin="round" stroke-miterlimit="10" stroke-width="3"/><path fill="none" stroke="rgb(153,153,153)" paint-order="fill stroke markers" d=" M 50 350 L 200 250" stroke-opacity="1" stroke-linejoin="round" stroke-miterlimit="10" stroke-width="3"/><path fill="none" stroke="rgb(153,153,153)" paint-order="fill stroke markers" d=" M 350 250 L 200 250" stroke-opacity="1" stroke-linejoin="round" stroke-miterlimit="10" stroke-width="3"/><path fill="none" stroke="rgb(153,153,153)" paint-order="fill stroke markers" d=" M 350 350 L 200 250" stroke-opacity="1" stroke-linejoin="round" stroke-miterlimit="10" stroke-width="3"/><path fill="rgb(255,255,255)" stroke="rgb(0,0,0)" paint-order="fill stroke markers" d=" M 20 0 L 19.938346674662558 1.5691819145568988 L 19.753766811902757 3.1286893008046173 L 19.447398407953532 4.668907277118108 L 19.02113032590307 6.180339887498948 L 18.477590650225736 7.653668647301796 L 17.820130483767358 9.079809994790935 L 17.052803287081847 10.449971294318976 L 16.18033988749895 11.755705045849464 L 15.208119312000619 12.988960966603674 L 14.142135623730951 14.14213562373095 L 12.988960966603674 15.208119312000619 L 11.755705045849464 16.18033988749895 L 10.449971294318978 17.052803287081844 L 9.079809994790937 17.820130483767358 L 7.653668647301797 18.477590650225736 L 6.180339887498949 19.02113032590307 L 4.66890727711811 19.447398407953532 L 3.1286893008046186 19.753766811902757 L 1.5691819145569 19.938346674662558 L 1.2246467991473533e-15 20 L -1.5691819145568975 19.938346674662558 L -3.1286893008046164 19.753766811902757 L -4.668907277118107 19.447398407953532 L -6.180339887498947 19.021130325903073 L -7.653668647301794 18.477590650225736 L -9.079809994790935 17.820130483767358 L -10.449971294318976 17.052803287081847 L -11.75570504584946 16.18033988749895 L -12.98896096660367 15.20811931200062 L -14.14213562373095 14.142135623730951 L -15.208119312000616 12.988960966603676 L -16.180339887498945 11.755705045849465 L -17.052803287081844 10.449971294318978 L -17.820130483767358 9.079809994790937 L -18.477590650225736 7.653668647301798 L -19.02113032590307 6.18033988749895 L -19.447398407953532 4.668907277118111 L -19.753766811902754 3.1286893008046195 L -19.938346674662558 1.5691819145569013 L -20 2.4492935982947065e-15 L -19.938346674662558 -1.5691819145568964 L -19.753766811902757 -3.1286893008046146 L -19.447398407953532 -4.668907277118105 L -19.021130325903073 -6.1803398874989455 L -18.477590650225736 -7.653668647301793 L -17.820130483767358 -9.079809994790933 L -17.052803287081847 -10.449971294318974 L -16.18033988749895 -11.75570504584946 L -15.20811931200062 -12.98896096660367 L -14.142135623730955 -14.14213562373095 L -12.988960966603681 -15.208119312000612 L -11.755705045849465 -16.180339887498945 L -10.44997129431897 -17.052803287081847 L -9.079809994790923 -17.820130483767365 L -7.653668647301774 -18.477590650225743 L -6.180339887498918 -19.02113032590308 L -4.668907277118068 -19.447398407953543 L -3.1286893008045684 -19.75376681190276 L -1.5691819145568406 -19.938346674662565 L 6.738033317856795e-14 -20 L 1.569181914556975 -19.938346674662554 L 3.128689300804701 -19.753766811902743 L 4.668907277118199 -19.44739840795351 L 6.180339887499046 -19.02113032590304 L 7.653668647301899 -18.477590650225693 L 9.079809994791043 -17.8201304837673 L 10.449971294319088 -17.052803287081776 L 11.755705045849574 -16.180339887498867 L 12.988960966603784 -15.208119312000523 L 14.142135623731061 -14.14213562373084 L 15.208119312000726 -12.98896096660355 L 16.180339887499052 -11.755705045849323 L 17.05280328708194 -10.449971294318823 L 17.820130483767443 -9.079809994790766 L 18.477590650225814 -7.653668647301611 L 19.021130325903137 -6.18033988749875 L 19.44739840795358 -4.6689072771178965 L 19.753766811902793 -3.1286893008043943 L 19.938346674662576 -1.5691819145566646 Z" fill-opacity="1" stroke-opacity="1" stroke-miterlimit="10" stroke-width="4"/><text fill="rgb(0,0,0)" stroke="none" font-family="Helvetica,Arial,sans-serif" font-size="16px" font-style="normal" font-weight="normal" text-decoration="normal" x="0" y="8" text-anchor="middle" dominant-baseline="text-after-edge" fill-opacity="1">a</text><path fill="rgb(255,255,255)" stroke="rgb(0,0,0)" paint-order="fill stroke markers" d=" M 20 100 L 19.938346674662558 101.56918191455689 L 19.753766811902757 103.12868930080462 L 19.447398407953532 104.66890727711811 L 19.02113032590307 106.18033988749895 L 18.477590650225736 107.6536686473018 L 17.820130483767358 109.07980999479093 L 17.052803287081847 110.44997129431897 L 16.18033988749895 111.75570504584947 L 15.208119312000619 112.98896096660367 L 14.142135623730951 114.14213562373095 L 12.988960966603674 115.20811931200062 L 11.755705045849464 116.18033988749895 L 10.449971294318978 117.05280328708184 L 9.079809994790937 117.82013048376736 L 7.653668647301797 118.47759065022574 L 6.180339887498949 119.02113032590307 L 4.66890727711811 119.44739840795353 L 3.1286893008046186 119.75376681190275 L 1.5691819145569 119.93834667466255 L 1.2246467991473533e-15 120 L -1.5691819145568975 119.93834667466255 L -3.1286893008046164 119.75376681190275 L -4.668907277118107 119.44739840795353 L -6.180339887498947 119.02113032590307 L -7.653668647301794 118.47759065022574 L -9.079809994790935 117.82013048376736 L -10.449971294318976 117.05280328708184 L -11.75570504584946 116.18033988749895 L -12.98896096660367 115.20811931200062 L -14.14213562373095 114.14213562373095 L -15.208119312000616 112.98896096660367 L -16.180339887498945 111.75570504584947 L -17.052803287081844 110.44997129431897 L -17.820130483767358 109.07980999479093 L -18.477590650225736 107.6536686473018 L -19.02113032590307 106.18033988749895 L -19.447398407953532 104.66890727711811 L -19.753766811902754 103.12868930080462 L -19.938346674662558 101.5691819145569 L -20 100 L -19.938346674662558 98.43081808544311 L -19.753766811902757 96.87131069919539 L -19.447398407953532 95.33109272288189 L -19.021130325903073 93.81966011250105 L -18.477590650225736 92.3463313526982 L -17.820130483767358 90.92019000520907 L -17.052803287081847 89.55002870568103 L -16.18033988749895 88.24429495415055 L -15.20811931200062 87.01103903339633 L -14.142135623730955 85.85786437626905 L -12.988960966603681 84.7918806879994 L -11.755705045849465 83.81966011250105 L -10.44997129431897 82.94719671291816 L -9.079809994790923 82.17986951623263 L -7.653668647301774 81.52240934977425 L -6.180339887498918 80.97886967409693 L -4.668907277118068 80.55260159204646 L -3.1286893008045684 80.24623318809724 L -1.5691819145568406 80.06165332533743 L 6.738033317856795e-14 80 L 1.569181914556975 80.06165332533745 L 3.128689300804701 80.24623318809725 L 4.668907277118199 80.55260159204649 L 6.180339887499046 80.97886967409696 L 7.653668647301899 81.5224093497743 L 9.079809994791043 82.1798695162327 L 10.449971294319088 82.94719671291823 L 11.755705045849574 83.81966011250114 L 12.988960966603784 84.79188068799948 L 14.142135623731061 85.85786437626916 L 15.208119312000726 87.01103903339646 L 16.180339887499052 88.24429495415067 L 17.05280328708194 89.55002870568117 L 17.820130483767443 90.92019000520924 L 18.477590650225814 92.34633135269839 L 19.021130325903137 93.81966011250125 L 19.44739840795358 95.3310927228821 L 19.753766811902793 96.8713106991956 L 19.938346674662576 98.43081808544333 Z" fill-opacity="1" stroke-opacity="1" stroke-miterlimit="10" stroke-width="4"/><text fill="rgb(0,0,0)" stroke="none" font-family="Helvetica,Arial,sans-serif" font-size="16px" font-style="normal" font-weight="normal" text-decoration="normal" x="0" y="108" text-anchor="middle" dominant-baseline="text-after-edge" fill-opacity="1">b</text><path fill="rgb(255,255,255)" stroke="rgb(0,0,0)" paint-order="fill stroke markers" d=" M 95 50 L 94.93834667466255 51.5691819145569 L 94.75376681190275 53.128689300804616 L 94.44739840795353 54.66890727711811 L 94.02113032590307 56.180339887498945 L 93.47759065022574 57.6536686473018 L 92.82013048376736 59.079809994790935 L 92.05280328708184 60.44997129431898 L 91.18033988749895 61.75570504584947 L 90.20811931200062 62.98896096660367 L 89.14213562373095 64.14213562373095 L 87.98896096660367 65.20811931200062 L 86.75570504584947 66.18033988749895 L 85.44997129431897 67.05280328708184 L 84.07980999479093 67.82013048376736 L 82.6536686473018 68.47759065022574 L 81.18033988749895 69.02113032590307 L 79.66890727711811 69.44739840795353 L 78.12868930080462 69.75376681190275 L 76.5691819145569 69.93834667466255 L 75 70 L 73.43081808544311 69.93834667466255 L 71.87131069919539 69.75376681190275 L 70.33109272288189 69.44739840795353 L 68.81966011250105 69.02113032590307 L 67.3463313526982 68.47759065022574 L 65.92019000520907 67.82013048376736 L 64.55002870568103 67.05280328708184 L 63.24429495415054 66.18033988749895 L 62.01103903339633 65.20811931200062 L 60.85786437626905 64.14213562373095 L 59.79188068799938 62.98896096660368 L 58.819660112501055 61.75570504584947 L 57.947196712918156 60.44997129431898 L 57.17986951623264 59.079809994790935 L 56.522409349774264 57.6536686473018 L 55.97886967409693 56.18033988749895 L 55.55260159204647 54.66890727711811 L 55.24623318809725 53.128689300804616 L 55.061653325337446 51.5691819145569 L 55 50 L 55.061653325337446 48.43081808544311 L 55.24623318809724 46.871310699195384 L 55.55260159204647 45.33109272288189 L 55.97886967409693 43.819660112501055 L 56.522409349774264 42.34633135269821 L 57.17986951623264 40.920190005209065 L 57.947196712918156 39.55002870568103 L 58.819660112501055 38.24429495415054 L 59.79188068799938 37.01103903339633 L 60.85786437626905 35.85786437626905 L 62.011039033396315 34.79188068799939 L 63.24429495415053 33.819660112501055 L 64.55002870568103 32.947196712918156 L 65.92019000520908 32.179869516232635 L 67.34633135269823 31.522409349774257 L 68.81966011250108 30.97886967409692 L 70.33109272288193 30.552601592046457 L 71.87131069919543 30.24623318809724 L 73.43081808544316 30.061653325337435 L 75.00000000000007 30 L 76.56918191455698 30.061653325337446 L 78.1286893008047 30.246233188097257 L 79.6689072771182 30.55260159204649 L 81.18033988749904 30.97886967409696 L 82.6536686473019 31.522409349774307 L 84.07980999479105 32.1798695162327 L 85.44997129431908 32.94719671291823 L 86.75570504584957 33.81966011250113 L 87.98896096660378 34.79188068799948 L 89.14213562373106 35.85786437626916 L 90.20811931200072 37.01103903339645 L 91.18033988749906 38.244294954150675 L 92.05280328708194 39.55002870568118 L 92.82013048376744 40.920190005209236 L 93.4775906502258 42.346331352698385 L 94.02113032590313 43.81966011250125 L 94.44739840795359 45.331092722882104 L 94.75376681190279 46.871310699195604 L 94.93834667466257 48.430818085443335 Z" fill-opacity="1" stroke-opacity="1" stroke-miterlimit="10" stroke-width="4"/><text fill="rgb(0,0,0)" stroke="none" font-family="Helvetica,Arial,sans-serif" font-size="16px" font-style="normal" font-weight="normal" text-decoration="normal" x="75" y="58" text-anchor="middle" dominant-baseline="text-after-edge" fill-opacity="1">c</text><path fill="rgb(255,255,255)" stroke="rgb(0,0,0)" paint-order="fill stroke markers" d=" M 70 250 L 69.93834667466255 251.5691819145569 L 69.75376681190275 253.1286893008046 L 69.44739840795353 254.6689072771181 L 69.02113032590307 256.180339887499 L 68.47759065022574 257.6536686473018 L 67.82013048376736 259.07980999479093 L 67.05280328708184 260.44997129431897 L 66.18033988749895 261.7557050458495 L 65.20811931200062 262.98896096660366 L 64.14213562373095 264.14213562373095 L 62.98896096660367 265.20811931200063 L 61.75570504584947 266.180339887499 L 60.44997129431898 267.0528032870818 L 59.079809994790935 267.82013048376734 L 57.6536686473018 268.47759065022575 L 56.180339887498945 269.0211303259031 L 54.66890727711811 269.44739840795353 L 53.128689300804616 269.7537668119028 L 51.5691819145569 269.93834667466257 L 50 270 L 48.4308180854431 269.93834667466257 L 46.871310699195384 269.7537668119028 L 45.33109272288189 269.44739840795353 L 43.819660112501055 269.0211303259031 L 42.34633135269821 268.47759065022575 L 40.920190005209065 267.82013048376734 L 39.55002870568102 267.0528032870819 L 38.24429495415054 266.180339887499 L 37.01103903339633 265.20811931200063 L 35.85786437626905 264.14213562373095 L 34.79188068799938 262.98896096660366 L 33.819660112501055 261.7557050458495 L 32.947196712918156 260.44997129431897 L 32.17986951623264 259.07980999479093 L 31.522409349774264 257.6536686473018 L 30.97886967409693 256.180339887499 L 30.552601592046468 254.6689072771181 L 30.246233188097246 253.1286893008046 L 30.061653325337442 251.5691819145569 L 30 250 L 30.061653325337442 248.4308180854431 L 30.246233188097243 246.8713106991954 L 30.552601592046468 245.3310927228819 L 30.978869674096927 243.81966011250105 L 31.522409349774264 242.3463313526982 L 32.17986951623264 240.92019000520907 L 32.947196712918156 239.55002870568103 L 33.819660112501055 238.24429495415055 L 34.79188068799938 237.01103903339634 L 35.85786437626905 235.85786437626905 L 37.011039033396315 234.7918806879994 L 38.24429495415053 233.81966011250105 L 39.55002870568103 232.94719671291816 L 40.92019000520908 232.17986951623263 L 42.34633135269823 231.52240934977425 L 43.81966011250108 230.97886967409693 L 45.331092722881934 230.55260159204647 L 46.87131069919543 230.24623318809725 L 48.43081808544316 230.06165332533743 L 50.000000000000064 230 L 51.56918191455698 230.06165332533743 L 53.1286893008047 230.24623318809725 L 54.6689072771182 230.5526015920465 L 56.180339887499045 230.97886967409696 L 57.6536686473019 231.5224093497743 L 59.07980999479104 232.1798695162327 L 60.449971294319084 232.9471967129182 L 61.755705045849574 233.81966011250114 L 62.988960966603784 234.79188068799948 L 64.14213562373106 235.85786437626916 L 65.20811931200072 237.01103903339646 L 66.18033988749906 238.2442949541507 L 67.05280328708194 239.55002870568117 L 67.82013048376744 240.92019000520924 L 68.4775906502258 242.3463313526984 L 69.02113032590313 243.81966011250125 L 69.44739840795359 245.3310927228821 L 69.75376681190279 246.87131069919562 L 69.93834667466257 248.43081808544335 Z" fill-opacity="1" stroke-opacity="1" stroke-miterlimit="10" stroke-width="4"/><text fill="rgb(0,0,0)" stroke="none" font-family="Helvetica,Arial,sans-serif" font-size="16px" font-style="normal" font-weight="normal" text-decoration="normal" x="50" y="258" text-anchor="middle" dominant-baseline="text-after-edge" fill-opacity="1">d</text><path fill="rgb(255,255,255)" stroke="rgb(0,0,0)" paint-order="fill stroke markers" d=" M 70 350 L 69.93834667466255 351.5691819145569 L 69.75376681190275 353.12868930080464 L 69.44739840795353 354.6689072771181 L 69.02113032590307 356.180339887499 L 68.47759065022574 357.6536686473018 L 67.82013048376736 359.07980999479093 L 67.05280328708184 360.44997129431897 L 66.18033988749895 361.7557050458495 L 65.20811931200062 362.98896096660366 L 64.14213562373095 364.14213562373095 L 62.98896096660367 365.20811931200063 L 61.75570504584947 366.180339887499 L 60.44997129431898 367.0528032870818 L 59.079809994790935 367.82013048376734 L 57.6536686473018 368.47759065022575 L 56.180339887498945 369.0211303259031 L 54.66890727711811 369.44739840795353 L 53.128689300804616 369.7537668119028 L 51.5691819145569 369.93834667466257 L 50 370 L 48.4308180854431 369.93834667466257 L 46.871310699195384 369.7537668119028 L 45.33109272288189 369.44739840795353 L 43.819660112501055 369.0211303259031 L 42.34633135269821 368.47759065022575 L 40.920190005209065 367.82013048376734 L 39.55002870568102 367.0528032870819 L 38.24429495415054 366.180339887499 L 37.01103903339633 365.20811931200063 L 35.85786437626905 364.14213562373095 L 34.79188068799938 362.98896096660366 L 33.819660112501055 361.7557050458495 L 32.947196712918156 360.44997129431897 L 32.17986951623264 359.07980999479093 L 31.522409349774264 357.6536686473018 L 30.97886967409693 356.180339887499 L 30.552601592046468 354.66890727711814 L 30.246233188097246 353.12868930080464 L 30.061653325337442 351.5691819145569 L 30 350 L 30.061653325337442 348.4308180854431 L 30.246233188097243 346.87131069919536 L 30.552601592046468 345.3310927228819 L 30.978869674096927 343.8196601125011 L 31.522409349774264 342.3463313526982 L 32.17986951623264 340.92019000520907 L 32.947196712918156 339.55002870568103 L 33.819660112501055 338.2442949541505 L 34.79188068799938 337.01103903339634 L 35.85786437626905 335.85786437626905 L 37.011039033396315 334.79188068799937 L 38.24429495415053 333.8196601125011 L 39.55002870568103 332.9471967129181 L 40.92019000520908 332.17986951623266 L 42.34633135269823 331.52240934977425 L 43.81966011250108 330.9788696740969 L 45.331092722881934 330.55260159204647 L 46.87131069919543 330.2462331880972 L 48.43081808544316 330.06165332533743 L 50.000000000000064 330 L 51.56918191455698 330.06165332533743 L 53.1286893008047 330.2462331880973 L 54.6689072771182 330.55260159204647 L 56.180339887499045 330.978869674097 L 57.6536686473019 331.5224093497743 L 59.07980999479104 332.1798695162327 L 60.449971294319084 332.94719671291824 L 61.755705045849574 333.81966011250114 L 62.988960966603784 334.7918806879995 L 64.14213562373106 335.85786437626916 L 65.20811931200072 337.01103903339646 L 66.18033988749906 338.2442949541507 L 67.05280328708194 339.5500287056812 L 67.82013048376744 340.92019000520924 L 68.4775906502258 342.34633135269837 L 69.02113032590313 343.81966011250125 L 69.44739840795359 345.3310927228821 L 69.75376681190279 346.8713106991956 L 69.93834667466257 348.4308180854433 Z" fill-opacity="1" stroke-opacity="1" stroke-miterlimit="10" stroke-width="4"/><text fill="rgb(0,0,0)" stroke="none" font-family="Helvetica,Arial,sans-serif" font-size="16px" font-style="normal" font-weight="normal" text-decoration="normal" x="50" y="358" text-anchor="middle" dominant-baseline="text-after-edge" fill-opacity="1">e</text><path fill="rgb(255,255,255)" stroke="rgb(0,0,0)" paint-order="fill stroke markers" d=" M 370 250 L 369.93834667466257 251.5691819145569 L 369.7537668119028 253.1286893008046 L 369.44739840795353 254.6689072771181 L 369.0211303259031 256.180339887499 L 368.47759065022575 257.6536686473018 L 367.82013048376734 259.07980999479093 L 367.0528032870819 260.44997129431897 L 366.180339887499 261.7557050458495 L 365.20811931200063 262.98896096660366 L 364.14213562373095 264.14213562373095 L 362.98896096660366 265.20811931200063 L 361.7557050458495 266.180339887499 L 360.44997129431897 267.0528032870818 L 359.07980999479093 267.82013048376734 L 357.6536686473018 268.47759065022575 L 356.180339887499 269.0211303259031 L 354.66890727711814 269.44739840795353 L 353.12868930080464 269.7537668119028 L 351.5691819145569 269.93834667466257 L 350 270 L 348.4308180854431 269.93834667466257 L 346.87131069919536 269.7537668119028 L 345.3310927228819 269.44739840795353 L 343.819660112501 269.0211303259031 L 342.3463313526982 268.47759065022575 L 340.92019000520907 267.82013048376734 L 339.55002870568103 267.0528032870819 L 338.2442949541505 266.180339887499 L 337.01103903339634 265.20811931200063 L 335.85786437626905 264.14213562373095 L 334.79188068799937 262.98896096660366 L 333.8196601125011 261.7557050458495 L 332.9471967129182 260.44997129431897 L 332.17986951623266 259.07980999479093 L 331.52240934977425 257.6536686473018 L 330.9788696740969 256.180339887499 L 330.55260159204647 254.6689072771181 L 330.2462331880972 253.1286893008046 L 330.06165332533743 251.5691819145569 L 330 250 L 330.06165332533743 248.4308180854431 L 330.2462331880972 246.8713106991954 L 330.55260159204647 245.3310927228819 L 330.9788696740969 243.81966011250105 L 331.52240934977425 242.3463313526982 L 332.17986951623266 240.92019000520907 L 332.9471967129181 239.55002870568103 L 333.819660112501 238.24429495415055 L 334.79188068799937 237.01103903339634 L 335.85786437626905 235.85786437626905 L 337.01103903339634 234.7918806879994 L 338.2442949541505 233.81966011250105 L 339.55002870568103 232.94719671291816 L 340.92019000520907 232.17986951623263 L 342.3463313526982 231.52240934977425 L 343.8196601125011 230.97886967409693 L 345.3310927228819 230.55260159204647 L 346.8713106991954 230.24623318809725 L 348.43081808544315 230.06165332533743 L 350.00000000000006 230 L 351.56918191455696 230.06165332533743 L 353.1286893008047 230.24623318809725 L 354.6689072771182 230.5526015920465 L 356.18033988749903 230.97886967409696 L 357.6536686473019 231.5224093497743 L 359.07980999479105 232.1798695162327 L 360.4499712943191 232.9471967129182 L 361.7557050458496 233.81966011250114 L 362.98896096660377 234.79188068799948 L 364.14213562373106 235.85786437626916 L 365.20811931200075 237.01103903339646 L 366.18033988749903 238.2442949541507 L 367.05280328708193 239.55002870568117 L 367.82013048376746 240.92019000520924 L 368.4775906502258 242.3463313526984 L 369.02113032590313 243.81966011250125 L 369.4473984079536 245.3310927228821 L 369.7537668119028 246.87131069919562 L 369.93834667466257 248.43081808544335 Z" fill-opacity="1" stroke-opacity="1" stroke-miterlimit="10" stroke-width="4"/><text fill="rgb(0,0,0)" stroke="none" font-family="Helvetica,Arial,sans-serif" font-size="16px" font-style="normal" font-weight="normal" text-decoration="normal" x="350" y="258" text-anchor="middle" dominant-baseline="text-after-edge" fill-opacity="1">f</text><path fill="rgb(255,255,255)" stroke="rgb(0,0,0)" paint-order="fill stroke markers" d=" M 370 350 L 369.93834667466257 351.5691819145569 L 369.7537668119028 353.12868930080464 L 369.44739840795353 354.6689072771181 L 369.0211303259031 356.180339887499 L 368.47759065022575 357.6536686473018 L 367.82013048376734 359.07980999479093 L 367.0528032870819 360.44997129431897 L 366.180339887499 361.7557050458495 L 365.20811931200063 362.98896096660366 L 364.14213562373095 364.14213562373095 L 362.98896096660366 365.20811931200063 L 361.7557050458495 366.180339887499 L 360.44997129431897 367.0528032870818 L 359.07980999479093 367.82013048376734 L 357.6536686473018 368.47759065022575 L 356.180339887499 369.0211303259031 L 354.66890727711814 369.44739840795353 L 353.12868930080464 369.7537668119028 L 351.5691819145569 369.93834667466257 L 350 370 L 348.4308180854431 369.93834667466257 L 346.87131069919536 369.7537668119028 L 345.3310927228819 369.44739840795353 L 343.819660112501 369.0211303259031 L 342.3463313526982 368.47759065022575 L 340.92019000520907 367.82013048376734 L 339.55002870568103 367.0528032870819 L 338.2442949541505 366.180339887499 L 337.01103903339634 365.20811931200063 L 335.85786437626905 364.14213562373095 L 334.79188068799937 362.98896096660366 L 333.8196601125011 361.7557050458495 L 332.9471967129182 360.44997129431897 L 332.17986951623266 359.07980999479093 L 331.52240934977425 357.6536686473018 L 330.9788696740969 356.180339887499 L 330.55260159204647 354.66890727711814 L 330.2462331880972 353.12868930080464 L 330.06165332533743 351.5691819145569 L 330 350 L 330.06165332533743 348.4308180854431 L 330.2462331880972 346.87131069919536 L 330.55260159204647 345.3310927228819 L 330.9788696740969 343.8196601125011 L 331.52240934977425 342.3463313526982 L 332.17986951623266 340.92019000520907 L 332.9471967129181 339.55002870568103 L 333.819660112501 338.2442949541505 L 334.79188068799937 337.01103903339634 L 335.85786437626905 335.85786437626905 L 337.01103903339634 334.79188068799937 L 338.2442949541505 333.8196601125011 L 339.55002870568103 332.9471967129181 L 340.92019000520907 332.17986951623266 L 342.3463313526982 331.52240934977425 L 343.8196601125011 330.9788696740969 L 345.3310927228819 330.55260159204647 L 346.8713106991954 330.2462331880972 L 348.43081808544315 330.06165332533743 L 350.00000000000006 330 L 351.56918191455696 330.06165332533743 L 353.1286893008047 330.2462331880973 L 354.6689072771182 330.55260159204647 L 356.18033988749903 330.978869674097 L 357.6536686473019 331.5224093497743 L 359.07980999479105 332.1798695162327 L 360.4499712943191 332.94719671291824 L 361.7557050458496 333.81966011250114 L 362.98896096660377 334.7918806879995 L 364.14213562373106 335.85786437626916 L 365.20811931200075 337.01103903339646 L 366.18033988749903 338.2442949541507 L 367.05280328708193 339.5500287056812 L 367.82013048376746 340.92019000520924 L 368.4775906502258 342.34633135269837 L 369.02113032590313 343.81966011250125 L 369.4473984079536 345.3310927228821 L 369.7537668119028 346.8713106991956 L 369.93834667466257 348.4308180854433 Z" fill-opacity="1" stroke-opacity="1" stroke-miterlimit="10" stroke-width="4"/><text fill="rgb(0,0,0)" stroke="none" font-family="Helvetica,Arial,sans-serif" font-size="16px" font-style="normal" font-weight="normal" text-decoration="normal" x="350" y="358" text-anchor="middle" dominant-baseline="text-after-edge" fill-opacity="1">g</text><path fill="rgb(255,255,255)" stroke="rgb(0,0,0)" paint-order="fill stroke markers" d=" M 370 50 L 369.93834667466257 51.5691819145569 L 369.7537668119028 53.128689300804616 L 369.44739840795353 54.66890727711811 L 369.0211303259031 56.180339887498945 L 368.47759065022575 57.6536686473018 L 367.82013048376734 59.079809994790935 L 367.0528032870819 60.44997129431898 L 366.180339887499 61.75570504584947 L 365.20811931200063 62.98896096660367 L 364.14213562373095 64.14213562373095 L 362.98896096660366 65.20811931200062 L 361.7557050458495 66.18033988749895 L 360.44997129431897 67.05280328708184 L 359.07980999479093 67.82013048376736 L 357.6536686473018 68.47759065022574 L 356.180339887499 69.02113032590307 L 354.66890727711814 69.44739840795353 L 353.12868930080464 69.75376681190275 L 351.5691819145569 69.93834667466255 L 350 70 L 348.4308180854431 69.93834667466255 L 346.87131069919536 69.75376681190275 L 345.3310927228819 69.44739840795353 L 343.819660112501 69.02113032590307 L 342.3463313526982 68.47759065022574 L 340.92019000520907 67.82013048376736 L 339.55002870568103 67.05280328708184 L 338.2442949541505 66.18033988749895 L 337.01103903339634 65.20811931200062 L 335.85786437626905 64.14213562373095 L 334.79188068799937 62.98896096660368 L 333.8196601125011 61.75570504584947 L 332.9471967129182 60.44997129431898 L 332.17986951623266 59.079809994790935 L 331.52240934977425 57.6536686473018 L 330.9788696740969 56.18033988749895 L 330.55260159204647 54.66890727711811 L 330.2462331880972 53.128689300804616 L 330.06165332533743 51.5691819145569 L 330 50 L 330.06165332533743 48.43081808544311 L 330.2462331880972 46.871310699195384 L 330.55260159204647 45.33109272288189 L 330.9788696740969 43.819660112501055 L 331.52240934977425 42.34633135269821 L 332.17986951623266 40.920190005209065 L 332.9471967129181 39.55002870568103 L 333.819660112501 38.24429495415054 L 334.79188068799937 37.01103903339633 L 335.85786437626905 35.85786437626905 L 337.01103903339634 34.79188068799939 L 338.2442949541505 33.819660112501055 L 339.55002870568103 32.947196712918156 L 340.92019000520907 32.179869516232635 L 342.3463313526982 31.522409349774257 L 343.8196601125011 30.97886967409692 L 345.3310927228819 30.552601592046457 L 346.8713106991954 30.24623318809724 L 348.43081808544315 30.061653325337435 L 350.00000000000006 30 L 351.56918191455696 30.061653325337446 L 353.1286893008047 30.246233188097257 L 354.6689072771182 30.55260159204649 L 356.18033988749903 30.97886967409696 L 357.6536686473019 31.522409349774307 L 359.07980999479105 32.1798695162327 L 360.4499712943191 32.94719671291823 L 361.7557050458496 33.81966011250113 L 362.98896096660377 34.79188068799948 L 364.14213562373106 35.85786437626916 L 365.20811931200075 37.01103903339645 L 366.18033988749903 38.244294954150675 L 367.05280328708193 39.55002870568118 L 367.82013048376746 40.920190005209236 L 368.4775906502258 42.346331352698385 L 369.02113032590313 43.81966011250125 L 369.4473984079536 45.331092722882104 L 369.7537668119028 46.871310699195604 L 369.93834667466257 48.430818085443335 Z" fill-opacity="1" stroke-opacity="1" stroke-miterlimit="10" stroke-width="4"/><text fill="rgb(0,0,0)" stroke="none" font-family="Helvetica,Arial,sans-serif" font-size="16px" font-style="normal" font-weight="normal" text-decoration="normal" x="350" y="58" text-anchor="middle" dominant-baseline="text-after-edge" fill-opacity="1">h</text><path fill="rgb(255,255,255)" stroke="rgb(0,0,0)" paint-order="fill stroke markers" d=" M 220 50 L 219.93834667466257 51.5691819145569 L 219.75376681190275 53.128689300804616 L 219.44739840795353 54.66890727711811 L 219.02113032590307 56.180339887498945 L 218.47759065022575 57.6536686473018 L 217.82013048376734 59.079809994790935 L 217.05280328708184 60.44997129431898 L 216.18033988749895 61.75570504584947 L 215.20811931200063 62.98896096660367 L 214.14213562373095 64.14213562373095 L 212.98896096660368 65.20811931200062 L 211.75570504584945 66.18033988749895 L 210.44997129431897 67.05280328708184 L 209.07980999479093 67.82013048376736 L 207.6536686473018 68.47759065022574 L 206.18033988749895 69.02113032590307 L 204.6689072771181 69.44739840795353 L 203.1286893008046 69.75376681190275 L 201.5691819145569 69.93834667466255 L 200 70 L 198.4308180854431 69.93834667466255 L 196.8713106991954 69.75376681190275 L 195.3310927228819 69.44739840795353 L 193.81966011250105 69.02113032590307 L 192.3463313526982 68.47759065022574 L 190.92019000520907 67.82013048376736 L 189.55002870568103 67.05280328708184 L 188.24429495415055 66.18033988749895 L 187.01103903339634 65.20811931200062 L 185.85786437626905 64.14213562373095 L 184.7918806879994 62.98896096660368 L 183.81966011250105 61.75570504584947 L 182.94719671291816 60.44997129431898 L 182.17986951623266 59.079809994790935 L 181.52240934977425 57.6536686473018 L 180.97886967409693 56.18033988749895 L 180.55260159204647 54.66890727711811 L 180.24623318809725 53.128689300804616 L 180.06165332533743 51.5691819145569 L 180 50 L 180.06165332533743 48.43081808544311 L 180.24623318809725 46.871310699195384 L 180.55260159204647 45.33109272288189 L 180.97886967409693 43.819660112501055 L 181.52240934977425 42.34633135269821 L 182.17986951623266 40.920190005209065 L 182.94719671291816 39.55002870568103 L 183.81966011250105 38.24429495415054 L 184.79188068799937 37.01103903339633 L 185.85786437626905 35.85786437626905 L 187.01103903339632 34.79188068799939 L 188.24429495415055 33.819660112501055 L 189.55002870568103 32.947196712918156 L 190.92019000520907 32.179869516232635 L 192.34633135269823 31.522409349774257 L 193.81966011250108 30.97886967409692 L 195.33109272288192 30.552601592046457 L 196.87131069919542 30.24623318809724 L 198.43081808544315 30.061653325337435 L 200.00000000000006 30 L 201.56918191455696 30.061653325337446 L 203.1286893008047 30.246233188097257 L 204.6689072771182 30.55260159204649 L 206.18033988749906 30.97886967409696 L 207.6536686473019 31.522409349774307 L 209.07980999479105 32.1798695162327 L 210.44997129431908 32.94719671291823 L 211.75570504584957 33.81966011250113 L 212.98896096660377 34.79188068799948 L 214.14213562373106 35.85786437626916 L 215.20811931200072 37.01103903339645 L 216.18033988749906 38.244294954150675 L 217.05280328708193 39.55002870568118 L 217.82013048376746 40.920190005209236 L 218.4775906502258 42.346331352698385 L 219.02113032590313 43.81966011250125 L 219.44739840795359 45.331092722882104 L 219.75376681190278 46.871310699195604 L 219.93834667466257 48.430818085443335 Z" fill-opacity="1" stroke-opacity="1" stroke-miterlimit="10" stroke-width="4"/><text fill="rgb(0,0,0)" stroke="none" font-family="Helvetica,Arial,sans-serif" font-size="16px" font-style="normal" font-weight="normal" text-decoration="normal" x="200" y="58" text-anchor="middle" dominant-baseline="text-after-edge" fill-opacity="1">i</text><path fill="rgb(255,255,255)" stroke="rgb(0,0,0)" paint-order="fill stroke markers" d=" M 220 150 L 219.93834667466257 151.5691819145569 L 219.75376681190275 153.1286893008046 L 219.44739840795353 154.6689072771181 L 219.02113032590307 156.18033988749895 L 218.47759065022575 157.6536686473018 L 217.82013048376734 159.07980999479093 L 217.05280328708184 160.44997129431897 L 216.18033988749895 161.75570504584945 L 215.20811931200063 162.98896096660368 L 214.14213562373095 164.14213562373095 L 212.98896096660368 165.20811931200063 L 211.75570504584945 166.18033988749895 L 210.44997129431897 167.05280328708184 L 209.07980999479093 167.82013048376734 L 207.6536686473018 168.47759065022575 L 206.18033988749895 169.02113032590307 L 204.6689072771181 169.44739840795353 L 203.1286893008046 169.75376681190275 L 201.5691819145569 169.93834667466257 L 200 170 L 198.4308180854431 169.93834667466257 L 196.8713106991954 169.75376681190275 L 195.3310927228819 169.44739840795353 L 193.81966011250105 169.02113032590307 L 192.3463313526982 168.47759065022575 L 190.92019000520907 167.82013048376734 L 189.55002870568103 167.05280328708184 L 188.24429495415055 166.18033988749895 L 187.01103903339634 165.20811931200063 L 185.85786437626905 164.14213562373095 L 184.7918806879994 162.98896096660368 L 183.81966011250105 161.75570504584945 L 182.94719671291816 160.44997129431897 L 182.17986951623266 159.07980999479093 L 181.52240934977425 157.6536686473018 L 180.97886967409693 156.18033988749895 L 180.55260159204647 154.6689072771181 L 180.24623318809725 153.1286893008046 L 180.06165332533743 151.5691819145569 L 180 150 L 180.06165332533743 148.4308180854431 L 180.24623318809725 146.8713106991954 L 180.55260159204647 145.3310927228819 L 180.97886967409693 143.81966011250105 L 181.52240934977425 142.3463313526982 L 182.17986951623266 140.92019000520907 L 182.94719671291816 139.55002870568103 L 183.81966011250105 138.24429495415055 L 184.79188068799937 137.01103903339634 L 185.85786437626905 135.85786437626905 L 187.01103903339632 134.7918806879994 L 188.24429495415055 133.81966011250105 L 189.55002870568103 132.94719671291816 L 190.92019000520907 132.17986951623263 L 192.34633135269823 131.52240934977425 L 193.81966011250108 130.97886967409693 L 195.33109272288192 130.55260159204647 L 196.87131069919542 130.24623318809725 L 198.43081808544315 130.06165332533743 L 200.00000000000006 130 L 201.56918191455696 130.06165332533743 L 203.1286893008047 130.24623318809725 L 204.6689072771182 130.5526015920465 L 206.18033988749906 130.97886967409696 L 207.6536686473019 131.5224093497743 L 209.07980999479105 132.1798695162327 L 210.44997129431908 132.9471967129182 L 211.75570504584957 133.81966011250114 L 212.98896096660377 134.79188068799948 L 214.14213562373106 135.85786437626916 L 215.20811931200072 137.01103903339646 L 216.18033988749906 138.2442949541507 L 217.05280328708193 139.55002870568117 L 217.82013048376746 140.92019000520924 L 218.4775906502258 142.3463313526984 L 219.02113032590313 143.81966011250125 L 219.44739840795359 145.3310927228821 L 219.75376681190278 146.87131069919562 L 219.93834667466257 148.43081808544335 Z" fill-opacity="1" stroke-opacity="1" stroke-miterlimit="10" stroke-width="4"/><text fill="rgb(0,0,0)" stroke="none" font-family="Helvetica,Arial,sans-serif" font-size="16px" font-style="normal" font-weight="normal" text-decoration="normal" x="200" y="158" text-anchor="middle" dominant-baseline="text-after-edge" fill-opacity="1">j</text><path fill="rgb(255,255,255)" stroke="rgb(0,0,0)" paint-order="fill stroke markers" d=" M 220 250 L 219.93834667466257 251.5691819145569 L 219.75376681190275 253.1286893008046 L 219.44739840795353 254.6689072771181 L 219.02113032590307 256.180339887499 L 218.47759065022575 257.6536686473018 L 217.82013048376734 259.07980999479093 L 217.05280328708184 260.44997129431897 L 216.18033988749895 261.7557050458495 L 215.20811931200063 262.98896096660366 L 214.14213562373095 264.14213562373095 L 212.98896096660368 265.20811931200063 L 211.75570504584945 266.180339887499 L 210.44997129431897 267.0528032870818 L 209.07980999479093 267.82013048376734 L 207.6536686473018 268.47759065022575 L 206.18033988749895 269.0211303259031 L 204.6689072771181 269.44739840795353 L 203.1286893008046 269.7537668119028 L 201.5691819145569 269.93834667466257 L 200 270 L 198.4308180854431 269.93834667466257 L 196.8713106991954 269.7537668119028 L 195.3310927228819 269.44739840795353 L 193.81966011250105 269.0211303259031 L 192.3463313526982 268.47759065022575 L 190.92019000520907 267.82013048376734 L 189.55002870568103 267.0528032870819 L 188.24429495415055 266.180339887499 L 187.01103903339634 265.20811931200063 L 185.85786437626905 264.14213562373095 L 184.7918806879994 262.98896096660366 L 183.81966011250105 261.7557050458495 L 182.94719671291816 260.44997129431897 L 182.17986951623266 259.07980999479093 L 181.52240934977425 257.6536686473018 L 180.97886967409693 256.180339887499 L 180.55260159204647 254.6689072771181 L 180.24623318809725 253.1286893008046 L 180.06165332533743 251.5691819145569 L 180 250 L 180.06165332533743 248.4308180854431 L 180.24623318809725 246.8713106991954 L 180.55260159204647 245.3310927228819 L 180.97886967409693 243.81966011250105 L 181.52240934977425 242.3463313526982 L 182.17986951623266 240.92019000520907 L 182.94719671291816 239.55002870568103 L 183.81966011250105 238.24429495415055 L 184.79188068799937 237.01103903339634 L 185.85786437626905 235.85786437626905 L 187.01103903339632 234.7918806879994 L 188.24429495415055 233.81966011250105 L 189.55002870568103 232.94719671291816 L 190.92019000520907 232.17986951623263 L 192.34633135269823 231.52240934977425 L 193.81966011250108 230.97886967409693 L 195.33109272288192 230.55260159204647 L 196.87131069919542 230.24623318809725 L 198.43081808544315 230.06165332533743 L 200.00000000000006 230 L 201.56918191455696 230.06165332533743 L 203.1286893008047 230.24623318809725 L 204.6689072771182 230.5526015920465 L 206.18033988749906 230.97886967409696 L 207.6536686473019 231.5224093497743 L 209.07980999479105 232.1798695162327 L 210.44997129431908 232.9471967129182 L 211.75570504584957 233.81966011250114 L 212.98896096660377 234.79188068799948 L 214.14213562373106 235.85786437626916 L 215.20811931200072 237.01103903339646 L 216.18033988749906 238.2442949541507 L 217.05280328708193 239.55002870568117 L 217.82013048376746 240.92019000520924 L 218.4775906502258 242.3463313526984 L 219.02113032590313 243.81966011250125 L 219.44739840795359 245.3310927228821 L 219.75376681190278 246.87131069919562 L 219.93834667466257 248.43081808544335 Z" fill-opacity="1" stroke-opacity="1" stroke-miterlimit="10" stroke-width="4"/><text fill="rgb(0,0,0)" stroke="none" font-family="Helvetica,Arial,sans-serif" font-size="16px" font-style="normal" font-weight="normal" text-decoration="normal" x="200" y="258" text-anchor="middle" dominant-baseline="text-after-edge" fill-opacity="1">k</text><g transform="scale(0.75,0.75) translate(-60.666666666666686,-66.66666666666669)"/></g></svg>
