<?xml version="1.0" encoding="UTF-8" standalone="no"?>
<svg
   xmlns:dc="http://purl.org/dc/elements/1.1/"
   xmlns:cc="http://creativecommons.org/ns#"
   xmlns:rdf="http://www.w3.org/1999/02/22-rdf-syntax-ns#"
   xmlns:svg="http://www.w3.org/2000/svg"
   xmlns="http://www.w3.org/2000/svg"
   xmlns:sodipodi="http://sodipodi.sourceforge.net/DTD/sodipodi-0.dtd"
   xmlns:inkscape="http://www.inkscape.org/namespaces/inkscape"
   inkscape:version="1.0 (4035a4fb49, 2020-05-01)"
   sodipodi:docname="gridgraph.svg"
   id="svg38"
   height="162.36183"
   width="300.62091"
   version="1.1">
  <metadata
     id="metadata42">
    <rdf:RDF>
      <cc:Work
         rdf:about="">
        <dc:format>image/svg+xml</dc:format>
        <dc:type
           rdf:resource="http://purl.org/dc/dcmitype/StillImage" />
      </cc:Work>
    </rdf:RDF>
  </metadata>
  <sodipodi:namedview
     inkscape:current-layer="svg38"
     inkscape:window-maximized="1"
     inkscape:window-y="0"
     inkscape:window-x="0"
     inkscape:cy="126.65501"
     inkscape:cx="105.11781"
     inkscape:zoom="1.1759868"
     showgrid="false"
     id="namedview40"
     inkscape:window-height="1011"
     inkscape:window-width="1920"
     inkscape:pageshadow="2"
     inkscape:pageopacity="0"
     guidetolerance="10"
     gridtolerance="10"
     objecttolerance="10"
     borderopacity="1"
     bordercolor="#666666"
     pagecolor="#ffffff" />
  <defs
     id="defs2" />
  <g
     id="g36"
     transform="matrix(1.3989637,0,0,1.3989637,90.836356,-122.16364)">
    <path
       id="path4"
       stroke-width="3"
       stroke-miterlimit="10"
       stroke-linejoin="round"
       stroke-opacity="1"
       d="M 118.04057,177.69446 63.618519,147.92963 9.1964712,118.1648"
       paint-order="fill stroke markers"
       stroke="#999999"
       fill="none" />
    <path
       id="path6"
       stroke-width="3"
       stroke-miterlimit="10"
       stroke-linejoin="round"
       stroke-opacity="1"
       d="M 118.04057,177.69446 63.618519,147.92963 9.1964712,118.1648"
       paint-order="fill stroke markers"
       stroke="#999999"
       fill="none" />
    <path
       id="path8"
       stroke-width="3"
       stroke-miterlimit="10"
       stroke-linejoin="round"
       stroke-opacity="1"
       d="m 3.7769295,124.10835 16.2193665,24.08609 16.219367,24.0861"
       paint-order="fill stroke markers"
       stroke="#999999"
       fill="none" />
    <path
       id="path10"
       stroke-width="3"
       stroke-miterlimit="10"
       stroke-linejoin="round"
       stroke-opacity="1"
       d="m -13.94795,124.88277 -12.876124,23.27464 -12.876124,23.27463"
       paint-order="fill stroke markers"
       stroke="#999999"
       fill="none" />
    <path
       id="path12"
       stroke-width="3"
       stroke-miterlimit="10"
       stroke-linejoin="round"
       stroke-opacity="1"
       d="m 130.58255,169.01829 -3.37329,-23.9294 -3.37329,-23.9294"
       paint-order="fill stroke markers"
       stroke="#999999"
       fill="none" />
    <path
       id="path14"
       stroke-width="4"
       stroke-miterlimit="10"
       stroke-opacity="1"
       fill-opacity="1"
       d="m 147.95556,185.85185 -0.0462,1.17689 -0.13844,1.16963 -0.22978,1.15516 -0.3197,1.13358 -0.40765,1.10499 -0.4931,1.06961 -0.57549,1.02762 -0.65435,0.9793 -0.72916,0.92494 -0.79949,0.86488 -0.86488,0.79949 -0.92495,0.72917 -0.9793,0.65434 -1.02762,0.5755 -1.0696,0.49309 -1.105,0.40766 -1.13357,0.3197 -1.15517,0.22978 -1.16963,0.13843 -1.17688,0.0462 -1.17689,-0.0462 -1.16963,-0.13843 -1.15516,-0.22978 -1.13358,-0.3197 -1.105,-0.40766 -1.0696,-0.49309 -1.02762,-0.5755 -0.9793,-0.65434 -0.92495,-0.72917 -0.86488,-0.79949 -0.79948,-0.86488 -0.72917,-0.92494 -0.65435,-0.9793 -0.57549,-1.02762 -0.4931,-1.06961 -0.40765,-1.10499 -0.3197,-1.13358 -0.22978,-1.15516 -0.13843,-1.16963 -0.0462,-1.17689 0.0462,-1.17688 0.13843,-1.16964 0.22978,-1.15516 0.3197,-1.13357 0.40765,-1.105 0.4931,-1.06961 0.57549,-1.02762 0.65435,-0.9793 0.72917,-0.92494 0.79948,-0.86488 0.86488,-0.79949 0.92495,-0.72916 0.9793,-0.65435 1.02762,-0.5755 1.0696,-0.49309 1.105,-0.40766 1.13358,-0.3197 1.15516,-0.22977 1.16963,-0.13844 1.17689,-0.0462 1.17688,0.0462 1.16963,0.13844 1.15517,0.22977 1.13357,0.3197 1.105,0.40766 1.0696,0.49309 1.02762,0.5755 0.9793,0.65435 0.92495,0.72916 0.86488,0.79949 0.79949,0.86488 0.72916,0.92494 0.65435,0.9793 0.57549,1.02762 0.4931,1.06961 0.40765,1.105 0.3197,1.13357 0.22978,1.15516 0.13844,1.16964 z"
       paint-order="fill stroke markers"
       stroke="#000000"
       fill="#ffffff" />
    <text
       id="text16"
       fill-opacity="1"
       dominant-baseline="text-after-edge"
       text-anchor="middle"
       y="193.85185"
       x="132.95555"
       text-decoration="normal"
       font-weight="normal"
       font-style="normal"
       font-size="16px"
       font-family="Helvetica, Arial, sans-serif"
       stroke="none"
       fill="#000000">a</text>
    <path
       id="path18"
       stroke-width="4"
       stroke-miterlimit="10"
       stroke-opacity="1"
       fill-opacity="1"
       d="m 9.2814815,110.00741 -0.04624,1.17688 -0.1384349,1.16963 -0.2297763,1.15517 -0.3197011,1.13357 -0.4076547,1.105 -0.4930952,1.0696 -0.5754954,1.02763 -0.6543475,0.9793 -0.7291654,0.92494 -0.7994878,0.86488 -0.864881,0.79949 -0.9249419,0.72916 -0.9793003,0.65435 -1.027621,0.5755 -1.06960603,0.49309 -1.10499657,0.40766 -1.1335745,0.3197 -1.1551634,0.22977 -1.1696306,0.13844 -1.1768864,0.0462 -1.1768865,-0.0462 -1.1696305,-0.13844 -1.1551635,-0.22977 -1.133574,-0.3197 -1.104997,-0.40766 -1.069606,-0.49309 -1.027621,-0.5755 -0.9793,-0.65435 -0.924942,-0.72916 -0.864881,-0.79949 -0.799488,-0.86488 -0.729165,-0.92494 -0.654348,-0.9793 -0.575495,-1.02763 -0.493096,-1.0696 -0.407654,-1.105 -0.319701,-1.13357 -0.229777,-1.15517 -0.138435,-1.16963 -0.04624,-1.17688 0.04624,-1.17689 0.138435,-1.16963 0.229777,-1.15516 0.319701,-1.13358 0.407654,-1.10499 0.493096,-1.06961 0.575495,-1.02762 0.654348,-0.9793 0.729165,-0.92494 0.799488,-0.864884 0.864881,-0.799488 0.924942,-0.729166 0.9793,-0.654347 1.027621,-0.575495 1.069606,-0.493096 1.104997,-0.407654 1.133574,-0.319701 1.1551635,-0.229777 1.1696305,-0.138435 1.1768865,-0.04624 1.1768864,0.04624 1.1696306,0.138435 1.1551634,0.229777 1.1335745,0.319701 1.10499657,0.407654 1.06960603,0.493096 1.027621,0.575495 0.9793003,0.654347 0.9249419,0.729166 0.864881,0.799488 0.7994878,0.864884 0.7291654,0.92494 0.6543475,0.9793 0.5754954,1.02762 0.4930952,1.06961 0.4076547,1.10499 0.3197011,1.13358 0.2297763,1.15516 0.1384349,1.16963 z"
       paint-order="fill stroke markers"
       stroke="#000000"
       fill="#ffffff" />
    <text
       id="text20"
       fill-opacity="1"
       dominant-baseline="text-after-edge"
       text-anchor="middle"
       y="118.00741"
       x="-5.7185187"
       text-decoration="normal"
       font-weight="normal"
       font-style="normal"
       font-size="16px"
       font-family="Helvetica, Arial, sans-serif"
       stroke="none"
       fill="#000000">b</text>
    <path
       id="path22"
       stroke-width="4"
       stroke-miterlimit="10"
       stroke-opacity="1"
       fill-opacity="1"
       d="m 136.46296,104.32593 -0.0462,1.17688 -0.13843,1.16963 -0.22978,1.15517 -0.3197,1.13357 -0.40765,1.105 -0.4931,1.0696 -0.57549,1.02762 -0.65435,0.9793 -0.72917,0.92495 -0.79949,0.86488 -0.86488,0.79949 -0.92494,0.72916 -0.9793,0.65435 -1.02762,0.57549 -1.06961,0.4931 -1.10499,0.40765 -1.13358,0.3197 -1.15516,0.22978 -1.16963,0.13844 -1.17689,0.0462 -1.17688,-0.0462 -1.16963,-0.13844 -1.15517,-0.22978 -1.13357,-0.3197 -1.105,-0.40765 -1.0696,-0.4931 -1.02763,-0.57549 -0.9793,-0.65435 -0.92494,-0.72916 -0.86488,-0.79949 -0.79949,-0.86488 -0.72916,-0.92495 -0.65435,-0.9793 -0.57549,-1.02762 -0.4931,-1.0696 -0.40765,-1.105 -0.31971,-1.13357 -0.22977,-1.15517 -0.13844,-1.16963 -0.0462,-1.17688 0.0462,-1.17689 0.13844,-1.16963 0.22977,-1.15516 0.31971,-1.133579 0.40765,-1.104997 0.4931,-1.069606 0.57549,-1.027621 0.65435,-0.9793 0.72916,-0.924942 0.79949,-0.864881 0.86488,-0.799488 0.92494,-0.729165 0.9793,-0.654348 1.02763,-0.575495 1.0696,-0.493095 1.105,-0.407655 1.13357,-0.319701 1.15517,-0.229776 1.16963,-0.138435 1.17688,-0.04624 1.17689,0.04624 1.16963,0.138435 1.15516,0.229776 1.13358,0.319701 1.10499,0.407655 1.06961,0.493095 1.02762,0.575495 0.9793,0.654348 0.92494,0.729165 0.86488,0.799488 0.79949,0.864881 0.72917,0.924942 0.65435,0.9793 0.57549,1.027621 0.4931,1.069606 0.40765,1.104997 0.3197,1.133579 0.22978,1.15516 0.13843,1.16963 z"
       paint-order="fill stroke markers"
       stroke="#000000"
       fill="#ffffff" />
    <text
       id="text24"
       fill-opacity="1"
       dominant-baseline="text-after-edge"
       text-anchor="middle"
       y="112.32593"
       x="121.46296"
       text-decoration="normal"
       font-weight="normal"
       font-style="normal"
       font-size="16px"
       font-family="Helvetica, Arial, sans-serif"
       stroke="none"
       fill="#000000">c</text>
    <path
       id="path26"
       stroke-width="4"
       stroke-miterlimit="10"
       stroke-opacity="1"
       fill-opacity="1"
       d="m 60.711111,186.38148 -0.04624,1.17689 -0.138435,1.16963 -0.229776,1.15516 -0.319701,1.13358 -0.407655,1.10499 -0.493095,1.06961 -0.575495,1.02762 -0.654348,0.9793 -0.729165,0.92494 -0.799488,0.86488 -0.864881,0.79949 -0.924942,0.72917 -0.9793,0.65434 -1.027621,0.5755 -1.069606,0.49309 -1.104997,0.40766 -1.133574,0.3197 -1.155164,0.22978 -1.16963,0.13843 -1.176887,0.0462 -1.176886,-0.0462 -1.169631,-0.13843 -1.155163,-0.22978 -1.133575,-0.3197 -1.104996,-0.40766 -1.069606,-0.49309 -1.027621,-0.5755 -0.979301,-0.65434 -0.924942,-0.72917 -0.864881,-0.79949 -0.799487,-0.86488 -0.729166,-0.92494 -0.654347,-0.9793 -0.575496,-1.02762 -0.493095,-1.06961 -0.407655,-1.10499 -0.319701,-1.13358 -0.229776,-1.15516 -0.138435,-1.16963 -0.04624,-1.17689 0.04624,-1.17688 0.138435,-1.16964 0.229776,-1.15516 0.319701,-1.13357 0.407655,-1.105 0.493095,-1.06961 0.575496,-1.02762 0.654347,-0.9793 0.729166,-0.92494 0.799487,-0.86488 0.864881,-0.79949 0.924942,-0.72916 0.979301,-0.65435 1.027621,-0.5755 1.069606,-0.49309 1.104996,-0.40766 1.133575,-0.3197 1.155163,-0.22977 1.169631,-0.13844 1.176886,-0.0462 1.176887,0.0462 1.16963,0.13844 1.155164,0.22977 1.133574,0.3197 1.104997,0.40766 1.069606,0.49309 1.027621,0.5755 0.9793,0.65435 0.924942,0.72916 0.864881,0.79949 0.799488,0.86488 0.729165,0.92494 0.654348,0.9793 0.575495,1.02762 0.493095,1.06961 0.407655,1.105 0.319701,1.13357 0.229776,1.15516 0.138435,1.16964 z"
       paint-order="fill stroke markers"
       stroke="#000000"
       fill="#ffffff" />
    <text
       id="text28"
       fill-opacity="1"
       dominant-baseline="text-after-edge"
       text-anchor="middle"
       y="194.38148"
       x="45.711113"
       text-decoration="normal"
       font-weight="normal"
       font-style="normal"
       font-size="16px"
       font-family="Helvetica, Arial, sans-serif"
       stroke="none"
       fill="#000000">d</text>
    <path
       id="path30"
       stroke-width="4"
       stroke-miterlimit="10"
       stroke-opacity="1"
       fill-opacity="1"
       d="m -32.92963,186.30741 -0.04624,1.17688 -0.138435,1.16963 -0.229776,1.15517 -0.319701,1.13357 -0.407655,1.105 -0.493095,1.0696 -0.575495,1.02763 -0.654348,0.9793 -0.729165,0.92494 -0.799488,0.86488 -0.864881,0.79949 -0.924942,0.72916 -0.9793,0.65435 -1.027621,0.5755 -1.069606,0.49309 -1.104997,0.40766 -1.133574,0.3197 -1.155164,0.22977 -1.16963,0.13844 -1.176887,0.0462 -1.176886,-0.0462 -1.169631,-0.13844 -1.155163,-0.22977 -1.133575,-0.3197 -1.104996,-0.40766 -1.069606,-0.49309 -1.027621,-0.5755 -0.9793,-0.65435 -0.924942,-0.72916 -0.864881,-0.79949 -0.799488,-0.86488 -0.729166,-0.92494 -0.654347,-0.9793 -0.575495,-1.02763 -0.493096,-1.0696 -0.407654,-1.105 -0.319701,-1.13357 -0.229777,-1.15517 -0.138435,-1.16963 -0.04624,-1.17688 0.04624,-1.17689 0.138435,-1.16963 0.229777,-1.15516 0.319701,-1.13358 0.407654,-1.10499 0.493096,-1.06961 0.575495,-1.02762 0.654347,-0.9793 0.729166,-0.92494 0.799488,-0.86488 0.864881,-0.79949 0.924942,-0.72917 0.9793,-0.65435 1.027621,-0.57549 1.069606,-0.4931 1.104996,-0.40765 1.133575,-0.3197 1.155163,-0.22978 1.169631,-0.13843 1.176886,-0.0462 1.176887,0.0462 1.16963,0.13843 1.155164,0.22978 1.133574,0.3197 1.104997,0.40765 1.069606,0.4931 1.027621,0.57549 0.9793,0.65435 0.924942,0.72917 0.864881,0.79949 0.799488,0.86488 0.729165,0.92494 0.654348,0.9793 0.575495,1.02762 0.493095,1.06961 0.407655,1.10499 0.319701,1.13358 0.229776,1.15516 0.138435,1.16963 z"
       paint-order="fill stroke markers"
       stroke="#000000"
       fill="#ffffff" />
    <text
       id="text32"
       fill-opacity="1"
       dominant-baseline="text-after-edge"
       text-anchor="middle"
       y="194.3074"
       x="-47.92963"
       text-decoration="normal"
       font-weight="normal"
       font-style="normal"
       font-size="16px"
       font-family="Helvetica, Arial, sans-serif"
       stroke="none"
       fill="#000000">e</text>
    <g
       id="g34"
       transform="matrix(0.71481481,0,0,0.71481481,-202.67778,-39.444444)" />
  </g>
</svg>
