<?xml version="1.0" encoding="UTF-8" standalone="no"?>
<svg
   version="1.1"
   id="svg2"
   xml:space="preserve"
   width="1980.4261"
   height="966.14911"
   sodipodi:docname="logo.svg"
   inkscape:version="1.2.2 (b0a8486541, 2022-12-01)"
   xmlns:inkscape="http://www.inkscape.org/namespaces/inkscape"
   xmlns:sodipodi="http://sodipodi.sourceforge.net/DTD/sodipodi-0.dtd"
   xmlns="http://www.w3.org/2000/svg"
   xmlns:svg="http://www.w3.org/2000/svg"
   xmlns:rdf="http://www.w3.org/1999/02/22-rdf-syntax-ns#"
   xmlns:cc="http://creativecommons.org/ns#"
   xmlns:dc="http://purl.org/dc/elements/1.1/"><metadata
     id="metadata8"><rdf:RDF><cc:Work
         rdf:about=""><dc:format>image/svg+xml</dc:format><dc:type
           rdf:resource="http://purl.org/dc/dcmitype/StillImage" /><dc:title /></cc:Work></rdf:RDF></metadata><defs
     id="defs6"><clipPath
       clipPathUnits="userSpaceOnUse"
       id="clipPath76"><path
         d="M 0,842 H 595 V 0 H 0 Z"
         id="path74" /></clipPath><clipPath
       id="clipPath76-3"
       clipPathUnits="userSpaceOnUse"><path
         id="path74-6"
         d="M 0,842 H 595 V 0 H 0 Z" /></clipPath><style
       id="style174">.cls-1{fill:#231815;}.cls-2{fill:none;}</style></defs><sodipodi:namedview
     fit-margin-bottom="0"
     fit-margin-right="0"
     fit-margin-left="0"
     fit-margin-top="0"
     inkscape:document-rotation="0"
     pagecolor="#ffffff"
     bordercolor="#666666"
     borderopacity="1"
     objecttolerance="10"
     gridtolerance="10"
     guidetolerance="10"
     inkscape:pageopacity="0"
     inkscape:pageshadow="2"
     inkscape:window-width="1854"
     inkscape:window-height="1011"
     id="namedview4"
     showgrid="false"
     inkscape:snap-global="true"
     inkscape:zoom="0.42668846"
     inkscape:cx="864.79959"
     inkscape:cy="179.28772"
     inkscape:window-x="0"
     inkscape:window-y="0"
     inkscape:window-maximized="1"
     inkscape:current-layer="g10"
     inkscape:showpageshadow="2"
     inkscape:pagecheckerboard="0"
     inkscape:deskcolor="#d1d1d1" /><g
     id="g10"
     inkscape:groupmode="layer"
     inkscape:label="vi_manual"
     transform="matrix(1.3333333,0,0,-1.3333333,-199.32088,617.87742)"><g
       id="g285"
       transform="matrix(10.495506,0,0,-10.495506,77.281598,541.28436)"><path
         id="path517"
         class="cls-1"
         d="M 6.8799986,7.4199646 V 35.999999 H 35.469942 V 7.4199646 Z M 7.7200624,8.2199722 H 34.630018 L 31.890006,11.00004 v 21.429932 l 2.740012,2.75997 H 7.7200624 L 10.450026,32.420063 V 11.00004 Z M 139.09996,8.3299523 138.09995,8.7299561 a 13.06,13.06 0 0 1 1.43002,2.7700189 h -3.83995 l 0.52994,-0.269925 a 12.05,12.05 0 0 0 -1.83003,-2.5901157 l -0.99987,0.4900256 a 13.8,13.8 0 0 1 1.60993,2.3700151 h -2.86004 v 4.000038 h 1.16009 v -2.920055 h 13.01994 v 2.890048 h 1.18997 v -4.000038 h -2.94993 a 25,25 0 0 0 1.74001,-2.230028 c 0.18,0.02 0.3299,-0.029988 0.3799,-0.1399874 a 7.23,7.23 0 0 0 -1.42988,-0.6000057 21.6,21.6 0 0 1 -2.07999,3.0000281 h -3.17002 l 0.63992,-0.269925 a 11.93,11.93 0 0 0 -1.54,-2.9000977 z m -72.399993,0.050105 v 2.2099307 h -7.339916 v 1.180053 H 75.429987 V 10.589988 H 67.970042 V 8.7299561 c 0.25,-0.02 0.359947,-0.1099676 0.359947,-0.2499675 z m 34.450013,0.00991 v 3.3599767 h -2.370015 l 1.000009,-0.359948 A 11.58,11.58 0 0 0 98.17005,8.6399343 l -1.00001,0.3600872 a 13.42,13.42 0 0 1 1.479986,2.7100045 h -3.000028 v 1.079983 h 4.630052 l -0.700078,0.150036 a 8.72,8.72 0 0 1 0.939998,1.919907 h -4.129979 v 1.000009 h 6.540049 v 1.419972 h -5.610103 v 1.000009 h 5.610103 v 1.470077 h -7.350106 v 1.079982 h 6.170056 a 17.71,17.71 0 0 1 -6.639983,3.060043 4.56,4.56 0 0 1 0.789958,1.00001 18.51,18.51 0 0 0 7.000065,-3.730112 v 4.050003 h 1.20992 v -4.139886 a 17.55,17.55 0 0 0 7.06999,3.86996 5.63,5.63 0 0 1 0.82011,-1.070073 17,17 0 0 1 -6.69009,-3.069952 H 111.59 l 0.04,-0.980051 h -7.45003 v -1.469937 h 5.82001 v -1.00001 h -5.80006 v -1.449979 h 6.71005 v -1.000009 h -4.29006 c 0.34,-0.55 0.74001,-1.250003 1,-1.740003 a 0.35,0.35 0 0 0 0.38005,-0.159946 l -0.50998,-0.220099 h 4.08992 v -1.069934 h -2.99989 a 25.24,25.24 0 0 0 1.46993,-2.4199808 c 0.2,0 0.38005,-0.050085 0.38005,-0.1600853 L 108.99997,8.6399343 A 17,17 0 0 1 107.41,11.460059 l 0.66993,0.249967 h -2.26994 V 8.7800613 c 0.23,-0.03 0.40991,-0.1200729 0.40991,-0.3000727 l -1.57001,-0.090022 v 3.3200594 h -2.35996 V 8.7800613 c 0.24,-0.03 0.4,-0.1200729 0.4,-0.3000727 z m -52.539927,0.030007 v 1.7599607 h -7.269992 v 1.150046 h 7.319958 v 1.670078 h -5.660068 v 6.679896 h 4.559988 a 18.3,18.3 0 0 1 -6.659938,4.230048 4.85,4.85 0 0 1 0.849973,1.000009 19.78,19.78 0 0 0 6.860079,-4.759989 v 5.059922 h 1.249977 v -5.129986 a 19.48,19.48 0 0 0 6.999927,4.86006 5.67,5.67 0 0 1 0.849973,-1.049975 17.86,17.86 0 0 1 -6.779966,-4.230047 h 4.899976 l 0.03001,-6.659938 h -5.99992 v -1.670078 h 7.469994 V 10.179935 H 49.86003 V 8.7700123 c 0.25,-0.04 0.359948,-0.1300165 0.359948,-0.2600164 z m 72.419947,0 a 45.32,45.32 0 0 1 -0.23001,5.2999807 h -7.17997 v 1.309991 h 6.99993 c -0.69,3.659997 -2.47995,7.279999 -7.25994,9.209997 a 4.63,4.63 0 0 1 0.86993,1.000009 12.41,12.41 0 0 0 7.48004,-9.129884 c 1.33,4.359996 3.62998,7.559928 7.40998,9.109926 a 5.25,5.25 0 0 1 0.90999,-1.139997 c -3.86,-1.419998 -6.18993,-4.750062 -7.36993,-9.080058 h 7.08004 l -0.0201,-1.279984 h -7.63999 a 44.08,44.08 0 0 0 0.26001,-4.8999769 c 0.23,-0.05 0.40001,-0.1499822 0.40001,-0.309982 z M 78.210055,10.499966 v 1.21006 h 6.590014 v 10.84002 h -7.480043 v 1.230018 H 93.63002 v -1.230018 h -7.549967 v -10.84002 h 6.709904 v -1.21006 z m 22.549975,2.240077 h 5.62992 a 17.1,17.1 0 0 1 -1.00001,2.000019 l 0.28011,0.06992 h -4.4701 l 0.56008,-0.129938 a 8.55,8.55 0 0 0 -1,-1.940005 z m -79.63998,0.269926 c -0.01,0 -0.110092,0.03005 -0.190092,0.210051 a 1.3,1.3 0 0 1 -0.200002,0.290023 10.66,10.66 0 0 0 -0.939995,2.449989 c -0.23,0.459999 -0.859894,0.469908 -1.289894,0.579908 -0.999999,0.169999 -2.000019,0.460018 -2.000019,0.460018 -1.659998,0.479999 -1.490106,1.340005 -1.590106,1.940004 -0.1,0.6 0,3.630072 0,4.520071 a 9.68,9.68 0 0 1 -0.539991,3.000029 c 0,0.15 -0.03,0.20996 0,0.21996 0.03,0.01 0.09,0.01 0.169995,-0.120029 a 10.77,10.77 0 0 0 1.000009,-2.419981 9.93,9.93 0 0 0 0.290024,-2.710005 c 0,-1.989998 0.540091,-2.220057 2.10009,-2.350057 1.929998,-0.16 2.129881,1.020055 2.199881,1.380055 a 5,5 0 0 1 0.169995,2.449988 7.08,7.08 0 0 0 -0.66993,1.230019 42.1,42.1 0 0 0 -1.729954,5.689935 c 0,0.17 -0.03,0.220058 0,0.240058 0.03,0.02 0.0999,0.02005 0.179904,-0.159945 0.56,-1.319999 1.519983,-3.58007 1.849983,-4.320069 0.48,-1.069999 1.00011,-1.309992 1.220109,-1.309992 0.22,0 0.749971,0.239993 1.21997,1.309992 0.33,0.739999 1.290032,2.96007 1.860032,4.320069 0.08,0.16 0.109994,0.179945 0.169994,0.159945 0.06,-0.02 0,-0.07006 0,-0.240058 a 42.2,42.2 0 0 0 -1.720044,-5.689935 7.76,7.76 0 0 0 -0.679978,-1.230019 4.91,4.91 0 0 1 0.239918,-2.43003 c 0.07,-0.38 0.260023,-1.539915 2.200021,-1.379915 1.549999,0.13 2.090041,0.349919 2.090041,2.349917 a 9.76,9.76 0 0 0 0.299933,2.710005 10.17,10.17 0 0 0 1.000009,2.419981 c 0.08,0.12 0.119995,0.140029 0.169995,0.120029 0.05,-0.02 0.05,-0.06996 0,-0.21996 a 9.38,9.38 0 0 1 -0.609915,-2.98007 c 0,-0.889999 0.11,-3.929932 0,-4.519931 -0.11,-0.59 0.06998,-1.460005 -1.600015,-1.940005 a 20.08,20.08 0 0 0 -2.000019,-0.460018 c -0.42,-0.11 -1.059985,-0.120048 -1.279984,-0.580048 A 11.14,11.14 0 0 0 21.520054,13.510043 1.3,1.3 0 0 1 21.320052,13.22002 c -0.08,-0.21 -0.190002,-0.210051 -0.200002,-0.210051 z m 40.629975,0.509984 v 5.359995 h 4.999907 v 4.810094 c 0,0.36 -0.08996,0.359948 -1.189962,0.359948 h -2.000019 a 5.18,5.18 0 0 1 0.44006,1.159955 c 3.369997,0 4.000038,-0.0099 4.000038,-1.459888 v -4.870109 h 5.229917 l 0.01005,-5.359995 z m -17.610077,0.480116 h 4.470105 v 1.839934 h -4.470105 z m 5.720082,0 h 4.740031 v 1.859892 H 49.86003 Z m 13.039901,0.609915 h 9.100016 v 3.180072 h -9.100016 z m 81.190029,0.07006 -0.21996,0.06992 h -9.16004 v 1.090032 h 7.88005 a 15.1,15.1 0 0 1 -2.63003,1.720044 l -0.84997,-0.06001 v 1.579918 h -7.42003 v 1.139997 h 7.42003 v 3.510012 c 0,0.4 -0.18006,0.400004 -1.18006,0.400004 -0.57,0 -1.39,-0.06001 -2.31,-0.06001 a 5.66,5.66 0 0 1 0.52003,1.200012 c 3.35,0 4.22,-0.02 4.22,-1.540001 V 20.21995 h 7.51005 v -1.14 L 140.35998,19.09 v -0.649972 a 19.48,19.48 0 0 0 4.40004,-3.000028 0.42,0.42 0 0 0 0.26993,-0.159946 z m -99.950012,2.09995 h 4.470105 v 1.899948 h -4.470105 z m 5.720082,0.01996 h 4.740031 v 1.900088 H 49.86003 Z m 12.649946,3.20003 a 12,12 0 0 1 -3.439949,3.800037 4.9,4.9 0 0 1 1.000009,0.729944 16.32,16.32 0 0 0 3.529971,-3.880009 0.37,0.37 0 0 0 0.400004,-0.159946 z m 9.489971,0 -1.129947,0.55995 a 31.41,31.41 0 0 1 3.430039,4.060052 l 1.179914,-0.619964 a 32.68,32.68 0 0 0 -3.480006,-4.000038 z m 31.160103,8.439997 a 1.46,1.46 0 0 0 -1.00001,0.389955 2.43,2.43 0 0 0 -0.49003,1.780059 L 101.04,30.56994 v 0.530082 h 0.61005 v 3.899967 h 0.66993 v -3.86005 h 1.07999 v -0.529942 h -1.07999 v -0.249968 c 0,-0.719999 0.17008,-1.370006 0.87008,-1.370006 a 1.26,1.26 0 0 1 0.51989,0.10998 l 0.11012,-0.529942 a 1.56,1.56 0 0 0 -0.66002,-0.130078 z m -52.600083,0.09002 v 6.469984 h 0.670069 v -1.720044 l 0.409913,-0.469928 1.530092,2.189972 h 0.830015 l -1.920047,-2.559968 1.66994,-1.830024 H 52.940032 L 51.609942,32.18 a 6,6 0 0 0 -0.379906,0.499935 v -4.149934 z m 67.770083,0 v 6.469984 h 0.66993 v -2.679997 a 1.21,1.21 0 0 1 1.18005,-1.249977 c 0.74,0 1.00001,0.630048 1.00001,1.350048 v 2.579926 h 0.66993 V 32.33995 c 0,-1.499998 -0.92999,-1.839934 -1.47999,-1.839934 a 1.62,1.62 0 0 0 -1.37,0.789959 v -2.75997 z m 14.30997,0 v 6.510041 h 0.66993 v -6.510041 z m -67.100008,0.309982 v 6.200059 h 0.669929 v -6.200059 z m -24.280064,0.01005 v 0.569998 h 1.820115 v 5.620012 h 0.679979 v -5.620012 h 1.830024 v -0.569998 z m 64.080022,0 v 0.569998 h 1.81998 v 5.620012 h 0.67007 v -5.620012 h 1.83002 v -0.569998 z m -26.556427,0.05988 a 0.43,0.43 0 0 0 -0.01354,1.39e-4 0.46,0.46 0 0 0 0,0.919897 h -0.01005 a 0.44,0.44 0 0 0 0.450109,-0.469927 0.43,0.43 0 0 0 -0.426522,-0.450109 z m -2.383554,0.670069 -0.66002,0.21996 -0.03992,0.810057 h -0.690027 v 0.529942 h 0.690027 v 2.54001 c 0,0.449999 0.02994,1.450118 1.099941,1.450118 a 1.79,1.79 0 0 0 0.66002,-0.10007 v -0.520033 a 1.32,1.32 0 0 1 -0.449969,0.06001 c -0.44,0 -0.610055,-0.309932 -0.610055,-0.869931 V 31.10993 h 1.150046 v -0.529943 h -1.150046 z m 4.899977,0 -0.66993,0.21996 0.04997,0.810057 h -0.679979 v 0.529942 h 0.589957 v 2.54001 c 0,0.449999 0.03999,1.450118 1.10999,1.450118 a 1.87,1.87 0 0 0 0.66002,-0.10007 v -0.520033 a 1.38,1.38 0 0 1 -0.460018,0.06001 c -0.43,0 -0.600006,-0.309932 -0.600006,-0.869931 V 31.10993 h 1.150046 V 30.579987 H 81.29997 Z m 7.370063,0 -0.670069,0.21996 v 0.810057 h -0.729944 v 0.529942 h 0.679978 v 2.54001 c 0,0.449999 0.02999,1.450118 1.10999,1.450118 a 1.87,1.87 0 0 0 0.66002,-0.10007 v -0.520033 a 1.42,1.42 0 0 1 -0.460018,0.06001 c -0.43,0 -0.600006,-0.309932 -0.600006,-0.869931 V 31.10993 h 1.159955 v -0.529943 h -1.149906 z m -15.436295,0.913477 a 1.32,1.32 0 0 0 -1.323669,1.266585 c 0,0.54 0.389998,0.960027 1.139997,1.260026 0.58,0.23 0.819966,0.489981 0.819966,0.879981 0,0.389999 -0.30003,0.709986 -0.890029,0.709986 a 2.11,2.11 0 0 1 -1.00001,-0.300073 l -0.189953,0.520033 a 2.36,2.36 0 0 0 1.170004,0.300072 c 0.959999,0 1.570008,-0.640131 1.570008,-1.310131 0,-0.669999 -0.560088,-1.07995 -1.130087,-1.32995 -0.57,-0.249999 -0.830015,-0.419917 -0.830015,-0.809916 a 0.67,0.67 0 0 1 0.750042,-0.660021 1.62,1.62 0 0 1 0.860022,0.260017 l 0.180044,-0.510124 a 2,2 0 0 0 -1.00001,-0.269926 1.32,1.32 0 0 0 -0.12631,-0.0066 z m 67.954166,0.0042 a 1.41,1.41 0 0 0 -0.0779,0.0024 2.09,2.09 0 0 0 -1.92004,2.349918 2,2 0 0 0 1.81006,2.180063 1.53,1.53 0 0 0 1.37992,-0.750042 v 0.530081 c 0,1.169999 -0.59992,1.600016 -1.40992,1.600016 a 2.48,2.48 0 0 1 -1.24998,-0.33008 L 139.54,36.610097 a 2.76,2.76 0 0 0 1.40001,0.339989 c 2.11,0 2.11,-1.770011 2.11,-2.54001 V 31.8201 30.599991 H 142.45 v 0.670069 a 1.41,1.41 0 0 0 -1.26212,-0.772373 z m -25.11189,0.0018 a 2.22,2.22 0 0 0 -2.18606,2.370574 2.06,2.06 0 0 0 2.11,2.260035 2.76,2.76 0 0 0 1.20001,-0.250107 l -0.08,-0.519893 a 2.19,2.19 0 0 1 -1.00001,0.21996 1.57,1.57 0 0 1 -1.54,-1.750051 1.59,1.59 0 0 1 1.55995,-1.77001 1.89,1.89 0 0 1 0.92004,0.2201 l 0.17,-0.540131 a 2.43,2.43 0 0 0 -1.06994,-0.239919 2.22,2.22 0 0 0 -0.084,-5.58e-4 z m -46.725076,2.79e-4 a 1.57,1.57 0 0 0 -1.350885,0.820245 v -0.720034 h -0.520033 v 1.150045 3.249996 h 0.66993 v -2.669948 a 1.21,1.21 0 0 1 1.170004,-1.260026 c 0.739999,0 1.000009,0.630048 1.000009,1.350048 v 2.579926 h 0.679979 l -0.07997,-2.660039 c 0,-1.499998 -0.949945,-1.839934 -1.499944,-1.839934 a 1.57,1.57 0 0 0 -0.06909,-2.79e-4 z m -21.819188,1.4e-4 a 2,2 0 0 0 -0.03168,1.39e-4 2.11,2.11 0 0 0 -2.060034,2.349918 2.05,2.05 0 0 0 2.000019,2.290043 2.11,2.11 0 0 0 2.069943,-2.349918 h -0.01005 a 2,2 0 0 0 -1.968198,-2.290182 z m 51.069989,0 a 2,2 0 0 0 -0.03168,1.39e-4 2.11,2.11 0 0 0 -2.070082,2.349918 2.05,2.05 0 0 0 2.000019,2.290043 2.11,2.11 0 0 0 2.069938,-2.349918 2,2 0 0 0 -1.968193,-2.290182 z m 31.209925,0 a 2,2 0 0 0 -0.0317,1.39e-4 2.11,2.11 0 0 0 -2.06994,2.349918 2.05,2.05 0 0 0 2.00002,2.290043 2.11,2.11 0 0 0 2.06994,-2.349918 2,2 0 0 0 -1.96834,-2.290182 z m 6.65003,0 a 2,2 0 0 0 -0.0317,1.39e-4 2.11,2.11 0 0 0 -2.07999,2.349918 2.05,2.05 0 0 0 2.00002,2.290043 2.11,2.11 0 0 0 2.06994,-2.349918 h 0.01 a 2,2 0 0 0 -1.96834,-2.290182 z m -75.871621,1.39e-4 a 2.11,2.11 0 0 0 -2.070082,2.349918 2,2 0 0 0 2.000019,2.290043 2.11,2.11 0 0 0 2.079992,-2.349918 h -0.01005 a 2.06,2.06 0 0 0 -1.999879,-2.290043 z m 31.61998,0 c -1.219999,0 -2.000019,1.000025 -2.000019,2.400023 a 2,2 0 0 0 2.069943,2.230028 3.27,3.27 0 0 0 1.389964,-0.270065 l -0.07997,-0.520033 a 2.87,2.87 0 0 1 -1.159955,0.230009 c -0.799999,0 -1.509993,-0.469947 -1.509993,-1.699946 h 3.000028 v -0.369997 a 1.81,1.81 0 0 0 -1.709995,-2.000019 z m 19.139891,0 c -1.22,0 -1.99988,1.000025 -1.99988,2.400023 a 2,2 0 0 0 2.05989,2.230028 3.24,3.24 0 0 0 1.39011,-0.270065 l -0.06,-0.520033 a 2.83,2.83 0 0 1 -1.16009,0.230009 c -0.8,0 -1.51,-0.469947 -1.51,-1.699946 H 113.07 a 3.57,3.57 0 0 0 0,-0.369997 1.81,1.81 0 0 0 -1.72004,-2.000019 z m 13.75826,0 a 1.58,1.58 0 0 0 -1.34824,0.819966 v -0.720034 h -0.6 v 1.150045 3.249996 h 0.67998 v -2.669948 a 1.2,1.2 0 0 1 1.16009,-1.260026 c 0.74,0 1.00001,0.630048 1.00001,1.350048 v 2.579926 h 0.70999 l -0.03,-2.660039 c 0,-1.499998 -0.95008,-1.839934 -1.50008,-1.839934 a 1.58,1.58 0 0 0 -0.0717,0 z m -70.888184,0.109981 1.570008,4.099969 a 0.67,0.67 0 0 1 0,0.190092 2.53,2.53 0 0 1 -1.430021,1.589966 l 0.189953,0.569999 a 2.29,2.29 0 0 0 0.900078,-0.520033 7.13,7.13 0 0 0 1.449979,-2.789978 l 1.180053,-3.140015 h -0.66002 l -0.900078,2.669948 c -0.1,0.35 -0.209975,0.680044 -0.279975,0.950044 -0.07,-0.27 -0.169975,-0.619946 -0.279975,-0.929946 l -1.000009,-2.690046 z m 24.220048,0 v 4.389992 h 0.66993 v -4.389992 z m 4.709885,0 v 2.619983 c 0,1.529998 0.790028,1.909997 1.460028,1.909997 a 1.62,1.62 0 0 0 1.419971,-0.800008 v 0.700077 h 0.610055 v -1.180053 l 0.03001,-3.249996 h -0.670069 v 2.75997 a 1.17,1.17 0 0 1 -1.170004,1.200011 c -0.749999,0 -0.99987,-0.600028 -0.99987,-1.460027 v -2.499954 z m 60.670081,0 1.57001,4.099969 a 0.44,0.44 0 0 1 0,0.190092 2.53,2.53 0 0 1 -1.43002,1.589966 l 0.18995,0.569999 a 2.23,2.23 0 0 0 0.90008,-0.520033 7.26,7.26 0 0 0 1.45989,-2.789978 l 1.18005,-3.140015 h -0.66002 l -0.89003,2.669948 c -0.11,0.35 -0.21988,0.680044 -0.28988,0.950044 -0.08,-0.27 -0.17003,-0.619946 -0.29003,-0.929946 l -1.00001,-2.690046 z M 92.120027,31.02005 c 0.869999,0 1.120039,0.779916 1.120039,1.379916 h -2.350058 c 0.06,-0.61 0.36002,-1.379916 1.230019,-1.379916 z m 19.140033,0 c 0.86999,0 1.10998,0.779916 1.10998,1.379916 h -2.37001 a 1.36,1.36 0 0 1 1.26003,-1.379916 z m -63.759996,0.0099 c 0.969999,0 1.349908,0.990059 1.349908,1.780058 0,0.999999 -0.559958,1.800018 -1.359957,1.800018 -0.8,0 -1.350048,-0.93006 -1.350048,-1.780059 0,-0.849999 0.360098,-1.800017 1.360097,-1.800017 z m 13.090005,0 c 0.959999,0 1.349908,0.990059 1.349908,1.780058 0,0.999999 -0.570006,1.800018 -1.370006,1.800018 -0.799999,0 -1.339998,-0.93006 -1.339998,-1.780059 0,-0.849999 0.360097,-1.800017 1.360096,-1.800017 z m 37.979984,0 c 0.969999,0 1.349909,0.990059 1.349909,1.780058 0,0.999999 -0.580007,1.800018 -1.370006,1.800018 -0.79,0 -1.339999,-0.93006 -1.339999,-1.780059 0,-0.849999 0.360097,-1.800017 1.360096,-1.800017 z m 31.209927,0 c 0.97,0 1.35005,0.990059 1.35005,1.780058 0,0.999999 -0.58001,1.800018 -1.37001,1.800018 -0.79,0 -1.34,-0.93006 -1.34,-1.780059 0,-0.849999 0.35996,-1.800017 1.35996,-1.800017 z m 6.65003,0 c 0.97,0 1.35005,0.990059 1.35005,1.780058 0,0.999999 -0.5601,1.800018 -1.3601,1.800018 -0.8,0 -1.34991,-0.93006 -1.34991,-1.780059 0,-0.849999 0.35996,-1.800017 1.35996,-1.800017 z m 4.71993,0.0201 a 1.2,1.2 0 0 1 1.18005,1.259886 v 0.890029 a 1.22,1.22 0 0 1 -1.18996,1.300082 c -0.86,0 -1.32004,-0.620038 -1.32004,-1.690037 0,-1.069998 0.54995,-1.75996 1.32995,-1.75996 z" /><rect
         class="cls-2"
         width="155.28"
         height="43.139999"
         id="rect418"
         x="0"
         y="0" /></g><g
       transform="matrix(3.4408848,0,0,-3.4408848,-310.45886,1741.9669)"
       id="layer1"><path
         d="m 543.71109,498.93215 h -12.53388 v -6.99182 h 34.1626 v 6.99182 h -12.53753 v 35.15723 h -9.09119 z m -51.0347,-6.99182 h 9.03614 v 16.85008 h 15.9215 v -16.85008 h 9.15358 v 42.14905 h -9.03981 v -18.48333 h -16.03527 v 18.48333 h -9.03614 z m -16.48305,12.94128 c -0.0587,-1.10475 -0.1175,-2.62423 -1.16714,-4.25381 -1.74704,-2.80039 -5.06492,-3.26652 -7.05052,-3.26652 -10.262,0 -12.29899,9.56465 -12.29899,16.03162 0,2.85545 0.40374,7.99011 3.49775,11.31167 2.09937,2.33061 4.89976,3.61519 9.90597,3.61519 4.3786,0 5.89074,-0.52851 6.88538,-0.81479 v -8.8673 h -8.16629 v -6.99181 h 17.19875 v 21.04516 c -2.62422,0.87351 -6.93676,2.3306 -15.38932,2.3306 -9.61603,0 -14.5782,-2.3306 -17.89977,-5.59711 -4.7236,-4.60615 -5.58977,-11.30801 -5.58977,-15.738 0,-14.92686 9.32241,-22.91331 22.09117,-22.91331 5.42095,0 11.0144,1.51581 14.33964,5.3035 2.80039,3.20412 2.97289,6.53302 3.03529,8.80491 z m -44.89071,-13.05873 h 9.03613 v 42.2665 h -9.03613 z m -30.66119,28.80039 c 0,1.98193 -0.1175,7.98644 7.63776,7.98644 4.8961,0 7.98645,-2.33428 7.98645,-5.89074 0,-3.72896 -2.62055,-4.36757 -7.98645,-5.65216 -10.0271,-2.51045 -15.50676,-5.48334 -15.50676,-12.76878 0,-6.93675 4.95115,-13.05871 16.67024,-13.05871 4.37492,0 9.56097,0.9873 12.71003,4.95483 2.38933,3.03162 2.38933,6.41557 2.38933,7.81393 h -8.68011 c -0.1175,-1.46075 -0.59092,-6.41557 -6.82299,-6.41557 -4.19875,0 -6.94043,2.27187 -6.94043,5.71456 0,3.90881 3.09035,4.60615 9.15359,6.12196 7.2891,1.74704 14.45708,3.73264 14.45708,11.95398 0,7.57537 -6.29813,13.69734 -17.95482,13.69734 -16.14906,0 -16.26651,-10.37578 -16.32156,-14.45708 z m -35.38113,-28.51044 8.68747,19.18435 8.85996,-19.18435 h 9.26735 l -14.22585,26.64229 v 15.33426 h -8.91869 v -15.45171 l -14.22217,-26.52484 z m -42.71426,-0.1725 h 28.21314 v 6.87437 h -19.177 v 10.03077 H 349.537 v 6.87803 h -17.95481 v 11.37041 h 19.82296 v 6.99547 h -28.8591 z m -39.12476,0.1175 h 9.03612 v 18.12733 l 14.10842,-18.24478 h 10.55193 l -15.45171,18.88707 16.79135,23.26198 h -11.24929 l -14.75069,-21.45622 v 21.45622 h -9.03613 z m 259.78147,72.7856 c 0.066,1.60757 0.25692,4.59148 5.58244,4.59148 4.81903,0 5.43195,-2.98391 5.43195,-4.14004 0,-2.6022 -2.08836,-3.11236 -5.33285,-3.91615 -3.53077,-0.86617 -5.10164,-1.25521 -6.29446,-2.05166 -1.89385,-1.28825 -2.40769,-3.0206 -2.40769,-4.56578 0,-4.71258 4.46301,-6.7716 8.82694,-6.7716 1.54516,0 4.6612,0.25693 6.52201,2.27923 1.28091,1.41304 1.34698,2.98757 1.41671,3.94917 h -3.34358 c -0.16149,-2.88847 -2.6022,-3.53076 -4.87775,-3.53076 -3.21147,0 -5.13834,1.44608 -5.13834,3.75098 0,2.06267 1.35065,2.7637 4.1694,3.44268 5.5237,1.41305 6.13296,1.53784 7.48361,2.44072 2.15076,1.41303 2.30859,3.6629 2.30859,4.62083 0,4.11067 -3.2078,7.22303 -9.14625,7.22303 -1.76905,0 -5.35855,-0.28994 -7.18633,-2.63156 -1.32128,-1.70299 -1.35798,-3.5638 -1.35798,-4.69057 z m -24.04741,-16.40597 h 14.54516 v 2.73066 h -11.33003 v 7.2267 h 10.78316 v 2.69395 h -10.78316 v 7.70751 h 11.59062 v 2.82242 h -14.80575 z m -12.32467,0 h 3.21146 v 23.18124 h -3.21146 z m -11.80717,5.78062 c -0.35233,-2.15076 -2.08836,-3.6262 -5.23743,-3.6262 -2.17645,0 -4.01158,0.57624 -5.23377,1.95624 -2.01862,2.24986 -2.47007,5.2668 -2.47007,7.4506 0,1.95624 0.41841,5.26679 2.11774,7.28543 1.51581,1.73602 3.85742,2.28288 6.166,2.28288 2.63156,0 4.3052,-0.51383 5.04291,-0.74138 v -6.87069 h -5.29983 v -2.66093 h 8.51129 v 11.42913 c -1.35065,0.44777 -4.3052,1.40937 -8.25437,1.40937 -4.27217,0 -6.77159,-1.21485 -8.41219,-2.89215 -2.27555,-2.30858 -3.2445,-5.55307 -3.2445,-8.82692 0,-2.30859 0.5799,-7.76624 4.98052,-10.72078 2.28289,-1.5415 5.29615,-1.6406 6.45228,-1.6406 1.82779,0 4.62451,0.22755 6.83766,2.47742 1.38369,1.44607 1.47544,2.78938 1.5415,3.68858 z m -38.55587,13.09909 c 1.31761,1.63694 3.30689,2.11774 5.13834,2.11774 1.89383,0 3.78768,-0.51384 5.13466,-2.11774 1.89384,-2.30857 2.08836,-5.97147 2.08836,-7.54234 0,-5.27046 -1.73235,-9.24533 -7.03217,-9.24533 -5.87607,0 -7.38087,4.71626 -7.38087,9.46922 0,2.53613 0.44778,5.32551 2.05168,7.31845 m -2.44071,-16.37294 c 2.40767,-2.6022 5.5861,-3.11236 7.73686,-3.11236 6.42292,0 10.46752,4.11066 10.46752,11.97599 0,6.16234 -2.47373,12.3577 -10.72443,12.3577 -7.89837,0 -10.46387,-5.61546 -10.46387,-11.97599 0,-2.63156 0.44778,-6.51835 2.98392,-9.24534 m -20.32213,-2.50677 h 3.1821 v 20.32579 h 10.78684 v 2.85545 H 433.7048 Z m -23.40145,18.87971 c 1.31761,1.63694 3.30689,2.11774 5.142,2.11774 1.89385,0 3.78403,-0.51384 5.13468,-2.11774 1.89751,-2.30857 2.08836,-5.97147 2.08836,-7.54234 0,-5.27046 -1.73603,-9.24533 -7.03585,-9.24533 -5.87606,0 -7.38086,4.71626 -7.38086,9.46922 0,2.53613 0.45145,5.32551 2.05167,7.31845 m -2.44071,-16.37294 c 2.40767,-2.6022 5.58978,-3.11236 7.73686,-3.11236 6.42293,0 10.47488,4.11066 10.47488,11.97599 0,6.16234 -2.47375,12.3577 -10.72445,12.3577 -7.9057,0 -10.4712,-5.61546 -10.4712,-11.97599 0,-2.63156 0.44777,-6.51835 2.98391,-9.24534 m -29.11235,-2.50677 h 4.46301 l 11.3961,19.16966 v -19.16966 h 2.95088 v 23.18124 h -4.107 L 381.6718,551.94253 v 19.67617 h -2.92151 z m -23.97769,0 v 9.95736 h 11.01073 v -9.95736 h 3.21512 v 23.18124 h -3.21512 V 561.15485 H 354.7726 v 10.46385 h -3.21512 v -23.18124 z m -12.87153,6.2651 c -0.13213,-0.80745 -0.54687,-4.01524 -5.0062,-4.01524 -5.58978,0 -6.58075,5.71456 -6.58075,9.56831 0,4.36759 1.24788,9.08018 6.54405,9.08018 1.41303,0 2.76736,-0.34868 3.75832,-1.37634 0.83681,-0.89921 1.02766,-1.89017 1.12676,-2.43704 h 3.53078 c -0.48448,4.55477 -4.69058,6.44862 -8.67645,6.44862 -8.14794,0 -9.72614,-7.19002 -9.72614,-11.68239 0,-4.88141 1.89751,-12.17051 10.14821,-12.17051 3.27753,0 7.89835,1.31761 8.32044,6.58441 h -3.43903 z m -35.28202,-6.2651 h 14.54517 v 2.73066 H 309.8305 v 7.2267 h 10.78684 v 2.69395 H 309.8305 v 7.70751 h 11.59063 v 2.82242 H 306.61905 Z M 290.1837,571.6187 v -20.45058 h -7.7699 v -2.73066 h 18.7219 v 2.73066 h -7.7699 v 20.45058 z"
         id="path36"
         style="fill:#555555;fill-opacity:1;fill-rule:nonzero;stroke:none" /><path
         d="m 264.38851,534.05415 c -1.024,-0.15783 -3.1821,-1.2332 -4.72727,-7.12027 -2.47374,-9.42151 -3.64088,-17.50338 -7.83229,-17.50338 -4.19509,0 -6.09627,8.08187 -8.57001,17.50338 -1.46443,5.57143 -3.00593,7.12027 -5.47968,7.12027 -2.31958,0 -4.72359,-1.1341 -8.26171,-15.69763 C 226.42722,505.6208 224.3205,482.557 213.9484,482.557 c -10.37945,0 -13.43676,30.06295 -14.77272,35.85825 -1.64426,7.14228 -5.72558,15.64257 -10.86024,15.64257 -5.13467,0 -7.79192,-5.91276 -9.32976,-12.25861 -2.35263,-9.71513 -5.02823,-23.77949 -11.85488,-23.77949 -6.83031,0 -9.04713,11.64568 -12.05673,24.36673 -1.77273,7.49831 -4.60249,11.67137 -9.57567,11.67137 h -10.83821 v 0.0477 c 1.41671,0.42208 4.2428,2.76369 4.97318,7.3001 1.71767,10.7061 3.03161,17.33089 6.76792,17.33089 3.7363,0 5.09429,-5.7109 7.25974,-14.61124 1.69197,-6.97345 4.33455,-10.01609 7.49095,-10.01609 4.63919,0 6.82299,5.61548 9.35912,16.34725 5.0429,21.37917 6.11829,31.71089 14.2442,31.71089 8.06352,0 9.32242,-10.35375 14.74335,-31.71089 2.35998,-9.28937 6.76059,-16.35091 11.89527,-16.35091 5.13466,0 8.80122,6.84133 10.66938,12.2953 4.0446,11.82551 5.90909,16.27753 10.36475,16.27753 4.45202,0 6.96979,-5.34388 10.89695,-18.24844 2.47374,-8.12225 2.8371,-10.32439 10.11519,-10.32439 h 10.94832 v -0.0514 z"
         id="path40"
         style="fill:#e90029;fill-opacity:1;fill-rule:nonzero;stroke:none" /></g></g></svg>
