<?xml version="1.0" encoding="UTF-8" standalone="no"?>
<svg
   xmlns:dc="http://purl.org/dc/elements/1.1/"
   xmlns:cc="http://creativecommons.org/ns#"
   xmlns:rdf="http://www.w3.org/1999/02/22-rdf-syntax-ns#"
   xmlns:svg="http://www.w3.org/2000/svg"
   xmlns="http://www.w3.org/2000/svg"
   xmlns:sodipodi="http://sodipodi.sourceforge.net/DTD/sodipodi-0.dtd"
   xmlns:inkscape="http://www.inkscape.org/namespaces/inkscape"
   inkscape:version="1.0 (4035a4fb49, 2020-05-01)"
   sodipodi:docname="pneqnpcircle.svg"
   id="svg2"
   height="500"
   width="800"
   version="1.0">
  <sodipodi:namedview
     inkscape:current-layer="svg2"
     inkscape:window-maximized="1"
     inkscape:window-y="0"
     inkscape:window-x="0"
     inkscape:cy="251.63857"
     inkscape:cx="400"
     inkscape:zoom="1.43"
     showgrid="false"
     id="namedview51"
     inkscape:window-height="1011"
     inkscape:window-width="1920"
     inkscape:pageshadow="2"
     inkscape:pageopacity="0"
     guidetolerance="10"
     gridtolerance="10"
     objecttolerance="10"
     borderopacity="1"
     bordercolor="#666666"
     pagecolor="#ffffff" />
  <defs
     id="defs">
    <marker
       style="overflow:visible"
       id="Arrow1Lend"
       orient="auto"
       refY="0"
       refX="0">
      <path
         style="fill-rule:evenodd;stroke:#000000;stroke-width:1pt;marker-start:none"
         id="path3951"
         transform="matrix(-0.8,0,0,-0.8,-10,0)"
         d="M 0,0 5,-5 -12.5,0 5,5 0,0 z" />
    </marker>
  </defs>
  <metadata
     id="metadata">
    <rdf:RDF>
      <cc:Work
         rdf:about="">
        <dc:format>image/svg+xml</dc:format>
        <dc:type
           rdf:resource="http://purl.org/dc/dcmitype/StillImage" />
        <dc:title />
      </cc:Work>
    </rdf:RDF>
  </metadata>
  <g
     id="layer1"
     transform="translate(0,-244.09451)">
    <g
       id="axes">
      <path
         style="fill:#babdb6;fill-rule:evenodd;stroke:#000000;stroke-width:1;stroke-linecap:butt;stroke-linejoin:miter;stroke-miterlimit:4;stroke-opacity:1;stroke-dasharray:none;stroke-dashoffset:0;marker-mid:url(#Arrow1Lend);marker-end:none"
         id="axis-v"
         d="m 400,743.74706 0,-490.32139 0,-8.9837" />
      <switch
         id="switch11"
         style="font-size:12.83532333px;font-style:normal;font-variant:normal;font-weight:normal;font-stretch:normal;text-align:center;line-height:125%;writing-mode:lr-tb;text-anchor:middle;fill:#000000;fill-opacity:1;stroke:none;font-family:Bitstream Vera Sans">
        <text
           systemLanguage="ro"
           style="font-size:12.83532333px;font-style:normal;font-variant:normal;font-weight:normal;font-stretch:normal;text-align:center;line-height:125%;writing-mode:lr-tb;text-anchor:middle;fill:#000000;fill-opacity:1;stroke:none;font-family:Bitstream Vera Sans"
           xml:space="preserve"
           id="complexity-ro"
           transform="matrix(0,-1,1,0,0,0)"
           y="394.52811"
           x="-604.09448"><tspan
             id="tspan4945-ro"
             y="394.52811"
             x="-604.09448">Complexitate</tspan></text>
        <text
           style="font-size:12.83532333px;font-style:normal;font-variant:normal;font-weight:normal;font-stretch:normal;text-align:center;line-height:125%;writing-mode:lr-tb;text-anchor:middle;fill:#000000;fill-opacity:1;stroke:none;font-family:Bitstream Vera Sans"
           xml:space="preserve"
           id="complexity"
           transform="matrix(0,-1,1,0,0,0)"
           y="394.52811"
           x="-604.09448"><tspan
             id="tspan4945"
             y="394.52811"
             x="-604.09448">Complexity</tspan></text>
      </switch>
      <path
         style="fill:none;stroke:#000000;stroke-width:1;stroke-linecap:butt;stroke-linejoin:miter;stroke-miterlimit:4;stroke-opacity:1;stroke-dasharray:1, 6;stroke-dashoffset:0"
         id="axis-h"
         d="m 0,644.09451 400,0" />
    </g>
    <switch
       id="switch19"
       style="font-size:24px;font-style:normal;font-variant:normal;font-weight:normal;font-stretch:normal;text-align:center;line-height:125%;writing-mode:lr-tb;text-anchor:middle;fill:#000000;fill-opacity:1;stroke:none;font-family:Serif;-inkscape-font-specification:Serif">
      <text
         systemLanguage="ro"
         style="font-size:24px;font-style:normal;font-variant:normal;font-weight:normal;font-stretch:normal;text-align:center;line-height:125%;writing-mode:lr-tb;text-anchor:middle;fill:#000000;fill-opacity:1;stroke:none;font-family:Serif;-inkscape-font-specification:Serif"
         xml:space="preserve"
         id="neq-math-ro"
         y="703.30811"
         x="199.77734"><tspan
           id="tspan3330-ro"
           y="703.30811"
           x="199.77734">P ≠ NP</tspan></text>
      <text
         style="font-size:24px;font-style:normal;font-variant:normal;font-weight:normal;font-stretch:normal;text-align:center;line-height:125%;writing-mode:lr-tb;text-anchor:middle;fill:#000000;fill-opacity:1;stroke:none;font-family:Serif;-inkscape-font-specification:Serif"
         xml:space="preserve"
         id="neq-math"
         y="703.30811"
         x="199.77734"><tspan
           id="tspan3330"
           y="703.30811"
           x="199.77734">P ≠ NP</tspan></text>
    </switch>
    <g
       id="neq-diag">
      <path
         style="fill:none;stroke:#000000;stroke-width:2.71879959;stroke-miterlimit:4;stroke-opacity:1;stroke-dasharray:none;stroke-dashoffset:0"
         id="path3134"
         transform="matrix(0.73561878,0,0,0.73561878,114.69358,269.45843)"
         d="m 284.25694,339.62939 a 168.29141,168.29141 0 1 1 -336.58283,0 168.29141,168.29141 0 1 1 336.58283,0 z" />
      <path
         style="fill:none;stroke:#000000;stroke-width:1;stroke-linecap:butt;stroke-linejoin:miter;stroke-miterlimit:4;stroke-opacity:1;stroke-dasharray:none;stroke-dashoffset:0;marker-mid:none;marker-end:none"
         id="path3332"
         d="m 40,244.09451 c 0,140 60,260 160,260 100,0 160,-120 160,-260" />
      <switch
         id="switch27"
         style="font-size:22.50210381px;font-style:normal;font-variant:normal;font-weight:normal;font-stretch:normal;text-align:center;line-height:125%;writing-mode:lr-tb;text-anchor:middle;fill:#000000;fill-opacity:1;stroke:none;font-family:Bitstream Vera Sans">
        <text
           systemLanguage="ro"
           style="font-size:22.50210381px;font-style:normal;font-variant:normal;font-weight:normal;font-stretch:normal;text-align:center;line-height:125%;writing-mode:lr-tb;text-anchor:middle;fill:#000000;fill-opacity:1;stroke:none;font-family:Bitstream Vera Sans"
           xml:space="preserve"
           id="text3334-ro"
           y="333.68689"
           x="199.91759"><tspan
             id="tspan3336-ro"
             y="333.68689"
             x="199.91759">NP-tari</tspan></text>
        <text
           style="font-size:22.50210381px;font-style:normal;font-variant:normal;font-weight:normal;font-stretch:normal;text-align:center;line-height:125%;writing-mode:lr-tb;text-anchor:middle;fill:#000000;fill-opacity:1;stroke:none;font-family:Bitstream Vera Sans"
           xml:space="preserve"
           id="text3334"
           y="333.68689"
           x="199.91759"><tspan
             id="tspan3336"
             y="333.68689"
             x="199.91759">NP-Hard</tspan></text>
      </switch>
      <switch
         id="switch33"
         style="font-size:22.50210381px;font-style:normal;font-variant:normal;font-weight:normal;font-stretch:normal;text-align:center;line-height:125%;writing-mode:lr-tb;text-anchor:middle;fill:#000000;fill-opacity:1;stroke:none;font-family:Bitstream Vera Sans">
        <text
           systemLanguage="ro"
           style="font-size:22.50210381px;font-style:normal;font-variant:normal;font-weight:normal;font-stretch:normal;text-align:center;line-height:125%;writing-mode:lr-tb;text-anchor:middle;fill:#000000;fill-opacity:1;stroke:none;font-family:Bitstream Vera Sans"
           xml:space="preserve"
           id="text3338-ro"
           y="459.33737"
           x="199.49458"><tspan
             id="tspan3340-ro"
             y="459.33737"
             x="199.49458">NP-complete</tspan></text>
        <text
           style="font-size:22.50210381px;font-style:normal;font-variant:normal;font-weight:normal;font-stretch:normal;text-align:center;line-height:125%;writing-mode:lr-tb;text-anchor:middle;fill:#000000;fill-opacity:1;stroke:none;font-family:Bitstream Vera Sans"
           xml:space="preserve"
           id="text3338"
           y="459.33737"
           x="199.49458"><tspan
             id="tspan3340"
             y="459.33737"
             x="199.49458">NP-Complete</tspan></text>
      </switch>
      <path
         style="fill:none;stroke:#000000;stroke-width:2.48238683;stroke-miterlimit:4;stroke-opacity:1;stroke-dasharray:2.48238675, 2.48238675;stroke-dashoffset:0"
         id="path3344"
         transform="matrix(0.84440268,0,0,0.76872578,-1.958519,329.77868)"
         d="m 336.61418,345.47244 a 97.440948,62.007874 0 1 1 -194.8819,0 97.440948,62.007874 0 1 1 194.8819,0 z" />
      <switch
         id="switch40"
         style="font-size:22.50210381px;font-style:normal;font-variant:normal;font-weight:normal;font-stretch:normal;text-align:center;line-height:125%;writing-mode:lr-tb;text-anchor:middle;fill:#000000;fill-opacity:1;stroke:none;font-family:Bitstream Vera Sans">
        <text
           systemLanguage="ro"
           style="font-size:22.50210381px;font-style:normal;font-variant:normal;font-weight:normal;font-stretch:normal;text-align:center;line-height:125%;writing-mode:lr-tb;text-anchor:middle;fill:#000000;fill-opacity:1;stroke:none;font-family:Bitstream Vera Sans"
           xml:space="preserve"
           id="text3346-ro"
           y="603.55432"
           x="199.28583"><tspan
             id="tspan3348-ro"
             y="603.55432"
             x="199.28583">P</tspan></text>
        <text
           style="font-size:22.50210381px;font-style:normal;font-variant:normal;font-weight:normal;font-stretch:normal;text-align:center;line-height:125%;writing-mode:lr-tb;text-anchor:middle;fill:#000000;fill-opacity:1;stroke:none;font-family:Bitstream Vera Sans"
           xml:space="preserve"
           id="text3346"
           y="603.55432"
           x="199.28583"><tspan
             id="tspan3348"
             y="603.55432"
             x="199.28583">P</tspan></text>
      </switch>
      <switch
         id="switch46"
         style="font-size:22.50210381px;font-style:normal;font-variant:normal;font-weight:normal;font-stretch:normal;text-align:center;line-height:125%;writing-mode:lr-tb;text-anchor:middle;fill:#000000;fill-opacity:1;stroke:none;font-family:Bitstream Vera Sans">
        <text
           systemLanguage="ro"
           style="font-size:22.50210381px;font-style:normal;font-variant:normal;font-weight:normal;font-stretch:normal;text-align:center;line-height:125%;writing-mode:lr-tb;text-anchor:middle;fill:#000000;fill-opacity:1;stroke:none;font-family:Bitstream Vera Sans"
           xml:space="preserve"
           id="text3350-ro"
           y="527.99121"
           x="111.67521"><tspan
             id="tspan3352-ro"
             y="527.99121"
             x="111.67521">NP</tspan></text>
        <text
           style="font-size:22.50210381px;font-style:normal;font-variant:normal;font-weight:normal;font-stretch:normal;text-align:center;line-height:125%;writing-mode:lr-tb;text-anchor:middle;fill:#000000;fill-opacity:1;stroke:none;font-family:Bitstream Vera Sans"
           xml:space="preserve"
           id="text3350"
           y="527.99121"
           x="111.67521"><tspan
             id="tspan3352"
             y="527.99121"
             x="111.67521">NP</tspan></text>
      </switch>
    </g>
  </g>
  <path
     id="path1232"
     style="fill:#008000;fill-rule:evenodd;stroke-width:0.0958442"
     d="m 200.91105,399.56164 a 50.714295,50.714295 0 0 0 -50.71438,50.71437 50.714295,50.714295 0 0 0 50.71438,50.7142 50.714295,50.714295 0 0 0 50.71419,-50.7142 50.714295,50.714295 0 0 0 -50.71419,-50.71437 z m 2.3e-4,7.19709 a 43.469397,43.469397 0 0 1 0.17164,2.3e-4 43.469397,43.469397 0 0 1 0.17167,0.002 43.469397,43.469397 0 0 1 0.17165,0.002 43.469397,43.469397 0 0 1 0.17148,0.002 43.469397,43.469397 0 0 1 0.17165,0.003 43.469397,43.469397 0 0 1 0.17166,0.004 43.469397,43.469397 0 0 1 0.17147,0.004 43.469397,43.469397 0 0 1 0.17166,0.004 43.469397,43.469397 0 0 1 0.17146,0.005 43.469397,43.469397 0 0 1 0.17166,0.006 43.469397,43.469397 0 0 1 0.17148,0.006 43.469397,43.469397 0 0 1 0.17147,0.007 43.469397,43.469397 0 0 1 0.17127,0.009 43.469397,43.469397 0 0 1 0.17147,0.009 43.469397,43.469397 0 0 1 0.17129,0.0104 43.469397,43.469397 0 0 1 0.17147,0.0105 43.469397,43.469397 0 0 1 0.17129,0.0111 43.469397,43.469397 0 0 1 0.17108,0.012 43.469397,43.469397 0 0 1 0.1713,0.0126 43.469397,43.469397 0 0 1 0.1711,0.0131 43.469397,43.469397 0 0 1 0.17111,0.0138 43.469397,43.469397 0 0 1 0.1709,0.0146 43.469397,43.469397 0 0 1 0.17109,0.0151 43.469397,43.469397 0 0 1 0.17091,0.0159 43.469397,43.469397 0 0 1 0.17071,0.0166 43.469397,43.469397 0 0 1 0.17073,0.0172 43.469397,43.469397 0 0 1 0.17071,0.0181 43.469397,43.469397 0 0 1 0.17072,0.0186 43.469397,43.469397 0 0 1 0.17055,0.0192 43.469397,43.469397 0 0 1 0.17054,0.02 43.469397,43.469397 0 0 1 0.17035,0.0206 43.469397,43.469397 0 0 1 0.17035,0.0213 43.469397,43.469397 0 0 1 0.17016,0.0219 43.469397,43.469397 0 0 1 0.17016,0.0226 43.469397,43.469397 0 0 1 0.16997,0.0233 43.469397,43.469397 0 0 1 0.16996,0.0241 43.469397,43.469397 0 0 1 0.16998,0.0248 43.469397,43.469397 0 0 1 0.16978,0.0253 43.469397,43.469397 0 0 1 0.16961,0.026 43.469397,43.469397 0 0 1 0.1696,0.0267 43.469397,43.469397 0 0 1 0.1694,0.0274 43.469397,43.469397 0 0 1 0.16923,0.0278 43.469397,43.469397 0 0 1 0.16923,0.0285 43.469397,43.469397 0 0 1 0.16923,0.0295 43.469397,43.469397 0 0 1 0.16904,0.03 43.469397,43.469397 0 0 1 0.16883,0.0307 43.469397,43.469397 0 0 1 0.16866,0.0314 43.469397,43.469397 0 0 1 0.16867,0.032 43.469397,43.469397 0 0 1 0.16848,0.0327 43.469397,43.469397 0 0 1 0.16848,0.0334 43.469397,43.469397 0 0 1 0.1681,0.0341 43.469397,43.469397 0 0 1 0.16809,0.0346 43.469397,43.469397 0 0 1 0.16811,0.0354 43.469397,43.469397 0 0 1 0.16772,0.0359 43.469397,43.469397 0 0 1 0.16773,0.0367 43.469397,43.469397 0 0 1 0.16754,0.0373 43.469397,43.469397 0 0 1 0.16735,0.038 43.469397,43.469397 0 0 1 0.16717,0.0385 43.469397,43.469397 0 0 1 0.16717,0.0394 43.469397,43.469397 0 0 1 0.16699,0.0401 43.469397,43.469397 0 0 1 0.16676,0.0406 43.469397,43.469397 0 0 1 0.16661,0.0412 43.469397,43.469397 0 0 1 0.16643,0.0419 43.469397,43.469397 0 0 1 0.16621,0.0427 43.469397,43.469397 0 0 1 0.16605,0.0432 43.469397,43.469397 0 0 1 0.16604,0.0439 43.469397,43.469397 0 0 1 0.16567,0.0447 43.469397,43.469397 0 0 1 0.16567,0.0453 43.469397,43.469397 0 0 1 0.16529,0.0459 43.469397,43.469397 0 0 1 0.16529,0.0464 43.469397,43.469397 0 0 1 0.16491,0.0472 43.469397,43.469397 0 0 1 0.16493,0.0478 43.469397,43.469397 0 0 1 0.16474,0.0485 43.469397,43.469397 0 0 1 0.16435,0.0492 43.469397,43.469397 0 0 1 0.16436,0.0498 43.469397,43.469397 0 0 1 0.16399,0.0503 43.469397,43.469397 0 0 1 0.16397,0.0511 43.469397,43.469397 0 0 1 0.16361,0.0517 43.469397,43.469397 0 0 1 0.16342,0.0522 43.469397,43.469397 0 0 1 0.16324,0.0532 43.469397,43.469397 0 0 1 0.16306,0.0535 43.469397,43.469397 0 0 1 0.16285,0.0542 43.469397,43.469397 0 0 1 0.16268,0.055 43.469397,43.469397 0 0 1 0.16228,0.0553 43.469397,43.469397 0 0 1 0.16213,0.0564 43.469397,43.469397 0 0 1 0.16211,0.0567 43.469397,43.469397 0 0 1 0.16173,0.0576 43.469397,43.469397 0 0 1 0.16136,0.058 43.469397,43.469397 0 0 1 0.16136,0.0588 43.469397,43.469397 0 0 1 0.16099,0.0595 43.469397,43.469397 0 0 1 0.16081,0.06 43.469397,43.469397 0 0 1 0.16061,0.0606 43.469397,43.469397 0 0 1 0.16024,0.0614 43.469397,43.469397 0 0 1 0.16005,0.0618 43.469397,43.469397 0 0 1 0.15986,0.0627 43.469397,43.469397 0 0 1 0.15949,0.0631 43.469397,43.469397 0 0 1 0.1595,0.0639 43.469397,43.469397 0 0 1 0.15893,0.0647 43.469397,43.469397 0 0 1 0.15892,0.0649 43.469397,43.469397 0 0 1 0.15856,0.0657 43.469397,43.469397 0 0 1 0.15836,0.0666 43.469397,43.469397 0 0 1 0.15799,0.0668 43.469397,43.469397 0 0 1 0.1578,0.0676 43.469397,43.469397 0 0 1 0.15743,0.0684 43.469397,43.469397 0 0 1 0.15726,0.0688 43.469397,43.469397 0 0 1 0.15687,0.0695 43.469397,43.469397 0 0 1 0.15667,0.07 43.469397,43.469397 0 0 1 0.1565,0.0705 43.469397,43.469397 0 0 1 0.15612,0.0713 43.469397,43.469397 0 0 1 0.15592,0.0721 43.469397,43.469397 0 0 1 0.15558,0.0725 43.469397,43.469397 0 0 1 0.15518,0.0732 43.469397,43.469397 0 0 1 0.15499,0.0738 43.469397,43.469397 0 0 1 0.15464,0.0743 43.469397,43.469397 0 0 1 0.15443,0.075 43.469397,43.469397 0 0 1 0.15405,0.0755 43.469397,43.469397 0 0 1 0.15389,0.0764 43.469397,43.469397 0 0 1 0.15348,0.0767 43.469397,43.469397 0 0 1 0.15315,0.0773 43.469397,43.469397 0 0 1 0.15294,0.0781 43.469397,43.469397 0 0 1 0.15256,0.0786 43.469397,43.469397 0 0 1 0.15219,0.0792 43.469397,43.469397 0 0 1 0.15199,0.0799 43.469397,43.469397 0 0 1 0.15162,0.0803 43.469397,43.469397 0 0 1 0.15126,0.0811 43.469397,43.469397 0 0 1 0.15108,0.0816 43.469397,43.469397 0 0 1 0.15068,0.0822 43.469397,43.469397 0 0 1 0.15032,0.0828 43.469397,43.469397 0 0 1 0.14995,0.0834 43.469397,43.469397 0 0 1 0.14974,0.0841 43.469397,43.469397 0 0 1 0.14938,0.0846 43.469397,43.469397 0 0 1 0.14902,0.0851 43.469397,43.469397 0 0 1 0.14863,0.0858 43.469397,43.469397 0 0 1 0.14844,0.0863 43.469397,43.469397 0 0 1 0.14789,0.0868 43.469397,43.469397 0 0 1 0.1477,0.0876 43.469397,43.469397 0 0 1 0.14733,0.088 43.469397,43.469397 0 0 1 0.14695,0.0888 43.469397,43.469397 0 0 1 0.14658,0.0893 43.469397,43.469397 0 0 1 0.14618,0.0898 43.469397,43.469397 0 0 1 0.14602,0.0903 43.469397,43.469397 0 0 1 0.14544,0.091 43.469397,43.469397 0 0 1 0.14527,0.0916 43.469397,43.469397 0 0 1 0.14472,0.0921 43.469397,43.469397 0 0 1 0.14448,0.0926 43.469397,43.469397 0 0 1 0.14416,0.0934 43.469397,43.469397 0 0 1 0.14377,0.0939 43.469397,43.469397 0 0 1 0.14319,0.0944 43.469397,43.469397 0 0 1 0.14302,0.0951 43.469397,43.469397 0 0 1 0.14265,0.0954 43.469397,43.469397 0 0 1 0.14207,0.096 43.469397,43.469397 0 0 1 0.14192,0.0968 43.469397,43.469397 0 0 1 0.14151,0.0972 43.469397,43.469397 0 0 1 0.14095,0.0977 43.469397,43.469397 0 0 1 0.14077,0.0984 43.469397,43.469397 0 0 1 0.14021,0.0988 43.469397,43.469397 0 0 1 0.14002,0.0994 43.469397,43.469397 0 0 1 0.13946,0.1 43.469397,43.469397 0 0 1 0.13909,0.10051 43.469397,43.469397 0 0 1 0.13871,0.10113 43.469397,43.469397 0 0 1 0.13832,0.10165 43.469397,43.469397 0 0 1 0.13799,0.10217 43.469397,43.469397 0 0 1 0.1374,0.10279 43.469397,43.469397 0 0 1 0.13703,0.10331 43.469397,43.469397 0 0 1 0.13685,0.10372 43.469397,43.469397 0 0 1 0.13625,0.10445 43.469397,43.469397 0 0 1 0.13572,0.10484 43.469397,43.469397 0 0 1 0.13553,0.10538 43.469397,43.469397 0 0 1 0.13498,0.10596 43.469397,43.469397 0 0 1 0.13459,0.10651 43.469397,43.469397 0 0 1 0.13422,0.10709 43.469397,43.469397 0 0 1 0.13385,0.10745 43.469397,43.469397 0 0 1 0.13328,0.10801 43.469397,43.469397 0 0 1 0.13289,0.10875 43.469397,43.469397 0 0 1 0.13255,0.10915 43.469397,43.469397 0 0 1 0.13197,0.1095 43.469397,43.469397 0 0 1 0.13159,0.11025 43.469397,43.469397 0 0 1 0.13124,0.11064 43.469397,43.469397 0 0 1 0.13083,0.1112 43.469397,43.469397 0 0 1 0.1303,0.11175 43.469397,43.469397 0 0 1 0.12974,0.11231 43.469397,43.469397 0 0 1 0.12953,0.1127 43.469397,43.469397 0 0 1 0.12897,0.11324 43.469397,43.469397 0 0 1 0.12842,0.11383 43.469397,43.469397 0 0 1 0.12823,0.11419 43.469397,43.469397 0 0 1 0.12749,0.11475 43.469397,43.469397 0 0 1 0.12728,0.1153 43.469397,43.469397 0 0 1 0.12655,0.11569 43.469397,43.469397 0 0 1 0.12635,0.11644 43.469397,43.469397 0 0 1 0.1258,0.11662 43.469397,43.469397 0 0 1 0.12521,0.11736 43.469397,43.469397 0 0 1 0.12488,0.11776 43.469397,43.469397 0 0 1 0.12449,0.11831 43.469397,43.469397 0 0 1 0.12392,0.11868 43.469397,43.469397 0 0 1 0.12354,0.11925 43.469397,43.469397 0 0 1 0.12299,0.1196 43.469397,43.469397 0 0 1 0.12243,0.12038 43.469397,43.469397 0 0 1 0.12204,0.12055 43.469397,43.469397 0 0 1 0.1215,0.12131 43.469397,43.469397 0 0 1 0.12112,0.12167 43.469397,43.469397 0 0 1 0.12074,0.12204 43.469397,43.469397 0 0 1 0.12,0.12263 43.469397,43.469397 0 0 1 0.11962,0.12298 43.469397,43.469397 0 0 1 0.11923,0.12355 43.469397,43.469397 0 0 1 0.11869,0.1241 43.469397,43.469397 0 0 1 0.11812,0.12449 43.469397,43.469397 0 0 1 0.11774,0.12487 43.469397,43.469397 0 0 1 0.11719,0.12541 43.469397,43.469397 0 0 1 0.11662,0.12599 43.469397,43.469397 0 0 1 0.11626,0.12636 43.469397,43.469397 0 0 1 0.11568,0.12672 43.469397,43.469397 0 0 1 0.11512,0.12728 43.469397,43.469397 0 0 1 0.11476,0.12768 43.469397,43.469397 0 0 1 0.11399,0.12803 43.469397,43.469397 0 0 1 0.11383,0.12861 43.469397,43.469397 0 0 1 0.11306,0.12918 43.469397,43.469397 0 0 1 0.11268,0.12952 43.469397,43.469397 0 0 1 0.11214,0.12992 43.469397,43.469397 0 0 1 0.11155,0.13029 43.469397,43.469397 0 0 1 0.1112,0.13085 43.469397,43.469397 0 0 1 0.11063,0.13123 43.469397,43.469397 0 0 1 0.11008,0.13178 43.469397,43.469397 0 0 1 0.10952,0.13215 43.469397,43.469397 0 0 1 0.10894,0.13255 43.469397,43.469397 0 0 1 0.10858,0.1329 43.469397,43.469397 0 0 1 0.10798,0.13347 43.469397,43.469397 0 0 1 0.10746,0.13385 43.469397,43.469397 0 0 1 0.10691,0.13422 43.469397,43.469397 0 0 1 0.10632,0.13479 43.469397,43.469397 0 0 1 0.10595,0.13497 43.469397,43.469397 0 0 1 0.1054,0.13551 43.469397,43.469397 0 0 1 0.10463,0.1361 43.469397,43.469397 0 0 1 0.10428,0.13628 43.469397,43.469397 0 0 1 0.10373,0.13683 43.469397,43.469397 0 0 1 0.1031,0.13703 43.469397,43.469397 0 0 1 0.10279,0.1376 43.469397,43.469397 0 0 1 0.10206,0.13796 43.469397,43.469397 0 0 1 0.10144,0.13852 43.469397,43.469397 0 0 1 0.10113,0.1387 43.469397,43.469397 0 0 1 0.10051,0.1391 43.469397,43.469397 0 0 1 0.0998,0.13965 43.469397,43.469397 0 0 1 0.0994,0.14002 43.469397,43.469397 0 0 1 0.099,0.14039 43.469397,43.469397 0 0 1 0.0981,0.14078 43.469397,43.469397 0 0 1 0.0977,0.14096 43.469397,43.469397 0 0 1 0.0972,0.14151 43.469397,43.469397 0 0 1 0.0966,0.14208 43.469397,43.469397 0 0 1 0.0959,0.14227 43.469397,43.469397 0 0 1 0.0952,0.14265 43.469397,43.469397 0 0 1 0.095,0.143 43.469397,43.469397 0 0 1 0.0944,0.14341 43.469397,43.469397 0 0 1 0.0937,0.14375 43.469397,43.469397 0 0 1 0.0931,0.14416 43.469397,43.469397 0 0 1 0.0927,0.14451 43.469397,43.469397 0 0 1 0.092,0.14489 43.469397,43.469397 0 0 1 0.0913,0.14526 43.469397,43.469397 0 0 1 0.0909,0.14562 43.469397,43.469397 0 0 1 0.0902,0.14584 43.469397,43.469397 0 0 1 0.0898,0.14639 43.469397,43.469397 0 0 1 0.089,0.14675 43.469397,43.469397 0 0 1 0.0887,0.14695 43.469397,43.469397 0 0 1 0.0881,0.14733 43.469397,43.469397 0 0 1 0.0873,0.1477 43.469397,43.469397 0 0 1 0.0869,0.14807 43.469397,43.469397 0 0 1 0.0862,0.14844 43.469397,43.469397 0 0 1 0.0858,0.14883 43.469397,43.469397 0 0 1 0.085,0.149 43.469397,43.469397 0 0 1 0.0846,0.14938 43.469397,43.469397 0 0 1 0.0839,0.14974 43.469397,43.469397 0 0 1 0.0834,0.15015 43.469397,43.469397 0 0 1 0.0827,0.15031 43.469397,43.469397 0 0 1 0.0821,0.15071 43.469397,43.469397 0 0 1 0.0814,0.15105 43.469397,43.469397 0 0 1 0.081,0.15146 43.469397,43.469397 0 0 1 0.0804,0.15162 43.469397,43.469397 0 0 1 0.0797,0.15199 43.469397,43.469397 0 0 1 0.0791,0.15238 43.469397,43.469397 0 0 1 0.0787,0.15256 43.469397,43.469397 0 0 1 0.0778,0.15293 43.469397,43.469397 0 0 1 0.0772,0.15334 43.469397,43.469397 0 0 1 0.0766,0.15349 43.469397,43.469397 0 0 1 0.0762,0.15386 43.469397,43.469397 0 0 1 0.0755,0.15426 43.469397,43.469397 0 0 1 0.0749,0.15445 43.469397,43.469397 0 0 1 0.0742,0.15462 43.469397,43.469397 0 0 1 0.0736,0.15517 43.469397,43.469397 0 0 1 0.073,0.15519 43.469397,43.469397 0 0 1 0.0725,0.15575 43.469397,43.469397 0 0 1 0.0719,0.15575 43.469397,43.469397 0 0 1 0.0712,0.15631 43.469397,43.469397 0 0 1 0.0707,0.1563 43.469397,43.469397 0 0 1 0.07,0.15687 43.469397,43.469397 0 0 1 0.0693,0.15707 43.469397,43.469397 0 0 1 0.0686,0.15723 43.469397,43.469397 0 0 1 0.0681,0.15743 43.469397,43.469397 0 0 1 0.0676,0.1578 43.469397,43.469397 0 0 1 0.0668,0.15818 43.469397,43.469397 0 0 1 0.0662,0.15838 43.469397,43.469397 0 0 1 0.0657,0.15853 43.469397,43.469397 0 0 1 0.065,0.15893 43.469397,43.469397 0 0 1 0.0645,0.15914 43.469397,43.469397 0 0 1 0.0636,0.15929 43.469397,43.469397 0 0 1 0.063,0.15968 43.469397,43.469397 0 0 1 0.0625,0.15986 43.469397,43.469397 0 0 1 0.0619,0.16007 43.469397,43.469397 0 0 1 0.0613,0.16041 43.469397,43.469397 0 0 1 0.0603,0.16063 43.469397,43.469397 0 0 1 0.0601,0.1608 43.469397,43.469397 0 0 1 0.0591,0.16117 43.469397,43.469397 0 0 1 0.0588,0.16117 43.469397,43.469397 0 0 1 0.0577,0.16155 43.469397,43.469397 0 0 1 0.0574,0.16173 43.469397,43.469397 0 0 1 0.0567,0.16211 43.469397,43.469397 0 0 1 0.0562,0.16213 43.469397,43.469397 0 0 1 0.0554,0.16248 43.469397,43.469397 0 0 1 0.055,0.16266 43.469397,43.469397 0 0 1 0.0542,0.16287 43.469397,43.469397 0 0 1 0.0535,0.16304 43.469397,43.469397 0 0 1 0.0528,0.16323 43.469397,43.469397 0 0 1 0.0521,0.16361 43.469397,43.469397 0 0 1 0.0515,0.16363 43.469397,43.469397 0 0 1 0.051,0.16397 43.469397,43.469397 0 0 1 0.0505,0.16417 43.469397,43.469397 0 0 1 0.0495,0.16416 43.469397,43.469397 0 0 1 0.0489,0.16456 43.469397,43.469397 0 0 1 0.0482,0.16473 43.469397,43.469397 0 0 1 0.0478,0.16492 43.469397,43.469397 0 0 1 0.0469,0.16491 43.469397,43.469397 0 0 1 0.0465,0.1653 43.469397,43.469397 0 0 1 0.0459,0.16548 43.469397,43.469397 0 0 1 0.045,0.16566 43.469397,43.469397 0 0 1 0.0447,0.16569 43.469397,43.469397 0 0 1 0.0439,0.16603 43.469397,43.469397 0 0 1 0.0431,0.16604 43.469397,43.469397 0 0 1 0.0424,0.16642 43.469397,43.469397 0 0 1 0.0418,0.16641 43.469397,43.469397 0 0 1 0.0412,0.16661 43.469397,43.469397 0 0 1 0.0404,0.16679 43.469397,43.469397 0 0 1 0.0399,0.16697 43.469397,43.469397 0 0 1 0.0393,0.16717 43.469397,43.469397 0 0 1 0.0384,0.16717 43.469397,43.469397 0 0 1 0.038,0.16734 43.469397,43.469397 0 0 1 0.0372,0.16774 43.469397,43.469397 0 0 1 0.0366,0.16752 43.469397,43.469397 0 0 1 0.036,0.16794 43.469397,43.469397 0 0 1 0.0351,0.16808 43.469397,43.469397 0 0 1 0.0346,0.16811 43.469397,43.469397 0 0 1 0.0338,0.16829 43.469397,43.469397 0 0 1 0.0331,0.16828 43.469397,43.469397 0 0 1 0.0326,0.16849 43.469397,43.469397 0 0 1 0.0319,0.16868 43.469397,43.469397 0 0 1 0.0312,0.16883 43.469397,43.469397 0 0 1 0.0304,0.16885 43.469397,43.469397 0 0 1 0.0299,0.16903 43.469397,43.469397 0 0 1 0.0292,0.16922 43.469397,43.469397 0 0 1 0.0284,0.16923 43.469397,43.469397 0 0 1 0.0279,0.16923 43.469397,43.469397 0 0 1 0.0273,0.1696 43.469397,43.469397 0 0 1 0.0264,0.1696 43.469397,43.469397 0 0 1 0.0261,0.1696 43.469397,43.469397 0 0 1 0.0249,0.16978 43.469397,43.469397 0 0 1 0.0246,0.16978 43.469397,43.469397 0 0 1 0.0241,0.16998 43.469397,43.469397 0 0 1 0.0233,0.17016 43.469397,43.469397 0 0 1 0.0224,0.17016 43.469397,43.469397 0 0 1 0.022,0.17017 43.469397,43.469397 0 0 1 0.0212,0.17034 43.469397,43.469397 0 0 1 0.0204,0.17055 43.469397,43.469397 0 0 1 0.0198,0.17033 43.469397,43.469397 0 0 1 0.019,0.17071 43.469397,43.469397 0 0 1 0.0186,0.17057 43.469397,43.469397 0 0 1 0.0179,0.17071 43.469397,43.469397 0 0 1 0.0172,0.17073 43.469397,43.469397 0 0 1 0.0164,0.1709 43.469397,43.469397 0 0 1 0.0158,0.17091 43.469397,43.469397 0 0 1 0.0152,0.17091 43.469397,43.469397 0 0 1 0.0143,0.1711 43.469397,43.469397 0 0 1 0.0136,0.17107 43.469397,43.469397 0 0 1 0.0133,0.17111 43.469397,43.469397 0 0 1 0.0125,0.17127 43.469397,43.469397 0 0 1 0.0118,0.1713 43.469397,43.469397 0 0 1 0.011,0.17128 43.469397,43.469397 0 0 1 0.0104,0.17129 43.469397,43.469397 0 0 1 0.0104,0.17126 43.469397,43.469397 0 0 1 0.009,0.17149 43.469397,43.469397 0 0 1 0.009,0.17147 43.469397,43.469397 0 0 1 0.008,0.17146 43.469397,43.469397 0 0 1 0.006,0.17148 43.469397,43.469397 0 0 1 0.005,0.17149 43.469397,43.469397 0 0 1 0.005,0.17145 43.469397,43.469397 0 0 1 0.004,0.17166 43.469397,43.469397 0 0 1 0.003,0.17165 43.469397,43.469397 0 0 1 0.003,0.17148 43.469397,43.469397 0 0 1 0.003,0.17166 43.469397,43.469397 0 0 1 0.002,0.17167 43.469397,43.469397 0 0 1 6.8e-4,0.17165 43.469397,43.469397 0 0 1 6.8e-4,0.17165 43.469397,43.469397 0 0 1 2.1e-4,0.14077 43.469397,43.469397 0 0 1 -2.3e-4,0.17149 43.469397,43.469397 0 0 1 -6.8e-4,0.17166 43.469397,43.469397 0 0 1 -0.002,0.17164 43.469397,43.469397 0 0 1 -0.003,0.17165 43.469397,43.469397 0 0 1 -0.003,0.17168 43.469397,43.469397 0 0 1 -0.003,0.17144 43.469397,43.469397 0 0 1 -0.004,0.17167 43.469397,43.469397 0 0 1 -0.004,0.17167 43.469397,43.469397 0 0 1 -0.005,0.17147 43.469397,43.469397 0 0 1 -0.006,0.17147 43.469397,43.469397 0 0 1 -0.006,0.17147 43.469397,43.469397 0 0 1 -0.008,0.17147 43.469397,43.469397 0 0 1 -0.009,0.17146 43.469397,43.469397 0 0 1 -0.009,0.17147 43.469397,43.469397 0 0 1 -0.0104,0.1713 43.469397,43.469397 0 0 1 -0.0104,0.1713 43.469397,43.469397 0 0 1 -0.0112,0.17125 43.469397,43.469397 0 0 1 -0.0118,0.1713 43.469397,43.469397 0 0 1 -0.0127,0.1711 43.469397,43.469397 0 0 1 -0.0133,0.1711 43.469397,43.469397 0 0 1 -0.0138,0.17109 43.469397,43.469397 0 0 1 -0.0143,0.17109 43.469397,43.469397 0 0 1 -0.0153,0.17092 43.469397,43.469397 0 0 1 -0.0159,0.1709 43.469397,43.469397 0 0 1 -0.0164,0.1709 43.469397,43.469397 0 0 1 -0.0173,0.17073 43.469397,43.469397 0 0 1 -0.0179,0.17071 43.469397,43.469397 0 0 1 -0.0188,0.17054 43.469397,43.469397 0 0 1 -0.0192,0.17073 43.469397,43.469397 0 0 1 -0.0198,0.17036 43.469397,43.469397 0 0 1 -0.0205,0.17052 43.469397,43.469397 0 0 1 -0.0213,0.17017 43.469397,43.469397 0 0 1 -0.022,0.17034 43.469397,43.469397 0 0 1 -0.0227,0.17014 43.469397,43.469397 0 0 1 -0.0234,0.17 43.469397,43.469397 0 0 1 -0.0241,0.16997 43.469397,43.469397 0 0 1 -0.0247,0.16978 43.469397,43.469397 0 0 1 -0.0252,0.1698 43.469397,43.469397 0 0 1 -0.0261,0.16958 43.469397,43.469397 0 0 1 -0.0267,0.16962 43.469397,43.469397 0 0 1 -0.0274,0.1694 43.469397,43.469397 0 0 1 -0.028,0.1694 43.469397,43.469397 0 0 1 -0.0285,0.16923 43.469397,43.469397 0 0 1 -0.0295,0.16906 43.469397,43.469397 0 0 1 -0.0299,0.169 43.469397,43.469397 0 0 1 -0.0305,0.16886 43.469397,43.469397 0 0 1 -0.0313,0.16885 43.469397,43.469397 0 0 1 -0.0321,0.16868 43.469397,43.469397 0 0 1 -0.0327,0.16847 43.469397,43.469397 0 0 1 -0.0334,0.16829 43.469397,43.469397 0 0 1 -0.0337,0.16828 43.469397,43.469397 0 0 1 -0.0348,0.16811 43.469397,43.469397 0 0 1 -0.0353,0.1679 43.469397,43.469397 0 0 1 -0.036,0.16792 43.469397,43.469397 0 0 1 -0.0366,0.16775 43.469397,43.469397 0 0 1 -0.0375,0.16752 43.469397,43.469397 0 0 1 -0.0378,0.16736 43.469397,43.469397 0 0 1 -0.0388,0.16716 43.469397,43.469397 0 0 1 -0.0393,0.16717 43.469397,43.469397 0 0 1 -0.0399,0.1668 43.469397,43.469397 0 0 1 -0.0406,0.16677 43.469397,43.469397 0 0 1 -0.0414,0.16661 43.469397,43.469397 0 0 1 -0.0419,0.16642 43.469397,43.469397 0 0 1 -0.0424,0.16643 43.469397,43.469397 0 0 1 -0.0432,0.16603 43.469397,43.469397 0 0 1 -0.0439,0.16586 43.469397,43.469397 0 0 1 -0.0446,0.16585 43.469397,43.469397 0 0 1 -0.0451,0.16549 43.469397,43.469397 0 0 1 -0.0459,0.16547 43.469397,43.469397 0 0 1 -0.0467,0.16512 43.469397,43.469397 0 0 1 -0.0469,0.1651 43.469397,43.469397 0 0 1 -0.048,0.16489 43.469397,43.469397 0 0 1 -0.0485,0.16456 43.469397,43.469397 0 0 1 -0.049,0.16453 43.469397,43.469397 0 0 1 -0.0498,0.16419 43.469397,43.469397 0 0 1 -0.0504,0.16417 43.469397,43.469397 0 0 1 -0.0511,0.1638 43.469397,43.469397 0 0 1 -0.0517,0.16361 43.469397,43.469397 0 0 1 -0.0524,0.1636 43.469397,43.469397 0 0 1 -0.0528,0.16325 43.469397,43.469397 0 0 1 -0.0537,0.16305 43.469397,43.469397 0 0 1 -0.0542,0.16283 43.469397,43.469397 0 0 1 -0.0549,0.1625 43.469397,43.469397 0 0 1 -0.0557,0.1625 43.469397,43.469397 0 0 1 -0.0563,0.16211 43.469397,43.469397 0 0 1 -0.0569,0.16191 43.469397,43.469397 0 0 1 -0.0574,0.16174 43.469397,43.469397 0 0 1 -0.0582,0.16155 43.469397,43.469397 0 0 1 -0.0588,0.16118 43.469397,43.469397 0 0 1 -0.0594,0.16118 43.469397,43.469397 0 0 1 -0.0601,0.16078 43.469397,43.469397 0 0 1 -0.0605,0.16044 43.469397,43.469397 0 0 1 -0.0612,0.16041 43.469397,43.469397 0 0 1 -0.062,0.16008 43.469397,43.469397 0 0 1 -0.0625,0.15985 43.469397,43.469397 0 0 1 -0.0631,0.15949 43.469397,43.469397 0 0 1 -0.064,0.15931 43.469397,43.469397 0 0 1 -0.0645,0.15912 43.469397,43.469397 0 0 1 -0.0651,0.15873 43.469397,43.469397 0 0 1 -0.0658,0.15874 43.469397,43.469397 0 0 1 -0.0662,0.15818 43.469397,43.469397 0 0 1 -0.0671,0.158 43.469397,43.469397 0 0 1 -0.0676,0.15779 43.469397,43.469397 0 0 1 -0.0681,0.15764 43.469397,43.469397 0 0 1 -0.0687,0.15722 43.469397,43.469397 0 0 1 -0.0695,0.15687 43.469397,43.469397 0 0 1 -0.07,0.15668 43.469397,43.469397 0 0 1 -0.0708,0.1565 43.469397,43.469397 0 0 1 -0.0713,0.15613 43.469397,43.469397 0 0 1 -0.072,0.15575 43.469397,43.469397 0 0 1 -0.0726,0.15556 43.469397,43.469397 0 0 1 -0.073,0.15538 43.469397,43.469397 0 0 1 -0.0739,0.15498 43.469397,43.469397 0 0 1 -0.0745,0.15462 43.469397,43.469397 0 0 1 -0.0749,0.15445 43.469397,43.469397 0 0 1 -0.0757,0.15407 43.469397,43.469397 0 0 1 -0.0762,0.15367 43.469397,43.469397 0 0 1 -0.0766,0.1535 43.469397,43.469397 0 0 1 -0.0773,0.15332 43.469397,43.469397 0 0 1 -0.0781,0.15275 43.469397,43.469397 0 0 1 -0.0787,0.15273 43.469397,43.469397 0 0 1 -0.0793,0.15222 43.469397,43.469397 0 0 1 -0.0797,0.15199 43.469397,43.469397 0 0 1 -0.0804,0.15163 43.469397,43.469397 0 0 1 -0.0811,0.15125 43.469397,43.469397 0 0 1 -0.0815,0.15108 43.469397,43.469397 0 0 1 -0.0821,0.1505 43.469397,43.469397 0 0 1 -0.0828,0.1505 43.469397,43.469397 0 0 1 -0.0835,0.14994 43.469397,43.469397 0 0 1 -0.0838,0.14976 43.469397,43.469397 0 0 1 -0.0846,0.14918 43.469397,43.469397 0 0 1 -0.0851,0.14921 43.469397,43.469397 0 0 1 -0.0858,0.14863 43.469397,43.469397 0 0 1 -0.0864,0.14824 43.469397,43.469397 0 0 1 -0.0869,0.14811 43.469397,43.469397 0 0 1 -0.0873,0.14768 43.469397,43.469397 0 0 1 -0.0883,0.14731 43.469397,43.469397 0 0 1 -0.0888,0.14696 43.469397,43.469397 0 0 1 -0.089,0.14657 43.469397,43.469397 0 0 1 -0.0898,0.1462 43.469397,43.469397 0 0 1 -0.0904,0.14584 43.469397,43.469397 0 0 1 -0.091,0.14562 43.469397,43.469397 0 0 1 -0.0915,0.14509 43.469397,43.469397 0 0 1 -0.0922,0.14488 43.469397,43.469397 0 0 1 -0.0927,0.14452 43.469397,43.469397 0 0 1 -0.0933,0.14394 43.469397,43.469397 0 0 1 -0.0938,0.14378 43.469397,43.469397 0 0 1 -0.0946,0.14337 43.469397,43.469397 0 0 1 -0.0949,0.14303 43.469397,43.469397 0 0 1 -0.0954,0.14246 43.469397,43.469397 0 0 1 -0.0961,0.14226 43.469397,43.469397 0 0 1 -0.0966,0.1419 43.469397,43.469397 0 0 1 -0.0974,0.14134 43.469397,43.469397 0 0 1 -0.0977,0.14114 43.469397,43.469397 0 0 1 -0.0983,0.14058 43.469397,43.469397 0 0 1 -0.0987,0.14041 43.469397,43.469397 0 0 1 -0.0996,0.13984 43.469397,43.469397 0 0 1 -0.1,0.13943 43.469397,43.469397 0 0 1 -0.1005,0.13929 43.469397,43.469397 0 0 1 -0.10103,0.1387 43.469397,43.469397 0 0 1 -0.10165,0.13817 43.469397,43.469397 0 0 1 -0.10216,0.13796 43.469397,43.469397 0 0 1 -0.10259,0.13757 43.469397,43.469397 0 0 1 -0.10331,0.13704 43.469397,43.469397 0 0 1 -0.10388,0.13666 43.469397,43.469397 0 0 1 -0.10427,0.13626 43.469397,43.469397 0 0 1 -0.10483,0.13592 43.469397,43.469397 0 0 1 -0.10557,0.13552 43.469397,43.469397 0 0 1 -0.10596,0.13497 43.469397,43.469397 0 0 1 -0.10632,0.13458 43.469397,43.469397 0 0 1 -0.1071,0.13422 43.469397,43.469397 0 0 1 -0.10761,0.13368 43.469397,43.469397 0 0 1 -0.10801,0.13346 43.469397,43.469397 0 0 1 -0.10857,0.1329 43.469397,43.469397 0 0 1 -0.10913,0.13255 43.469397,43.469397 0 0 1 -0.10971,0.13197 43.469397,43.469397 0 0 1 -0.11007,0.13161 43.469397,43.469397 0 0 1 -0.11083,0.13121 43.469397,43.469397 0 0 1 -0.11119,0.13066 43.469397,43.469397 0 0 1 -0.11156,0.13028 43.469397,43.469397 0 0 1 -0.11232,0.12992 43.469397,43.469397 0 0 1 -0.11269,0.12937 43.469397,43.469397 0 0 1 -0.11325,0.12895 43.469397,43.469397 0 0 1 -0.11381,0.12862 43.469397,43.469397 0 0 1 -0.1142,0.12804 43.469397,43.469397 0 0 1 -0.11494,0.12767 43.469397,43.469397 0 0 1 -0.11511,0.1271 43.469397,43.469397 0 0 1 -0.11587,0.12672 43.469397,43.469397 0 0 1 -0.11627,0.12636 43.469397,43.469397 0 0 1 -0.1168,0.1258 43.469397,43.469397 0 0 1 -0.11719,0.12523 43.469397,43.469397 0 0 1 -0.11774,0.12487 43.469397,43.469397 0 0 1 -0.11832,0.12449 43.469397,43.469397 0 0 1 -0.11886,0.12391 43.469397,43.469397 0 0 1 -0.11905,0.12335 43.469397,43.469397 0 0 1 -0.11982,0.123 43.469397,43.469397 0 0 1 -0.12017,0.1226 43.469397,43.469397 0 0 1 -0.12073,0.12206 43.469397,43.469397 0 0 1 -0.12113,0.1215 43.469397,43.469397 0 0 1 -0.12166,0.12111 43.469397,43.469397 0 0 1 -0.12206,0.12055 43.469397,43.469397 0 0 1 -0.1226,0.12018 43.469397,43.469397 0 0 1 -0.1232,0.11962 43.469397,43.469397 0 0 1 -0.12354,0.11906 43.469397,43.469397 0 0 1 -0.12392,0.11869 43.469397,43.469397 0 0 1 -0.12447,0.11829 43.469397,43.469397 0 0 1 -0.12506,0.11758 43.469397,43.469397 0 0 1 -0.12543,0.11718 43.469397,43.469397 0 0 1 -0.1258,0.11681 43.469397,43.469397 0 0 1 -0.12636,0.11605 43.469397,43.469397 0 0 1 -0.12672,0.11568 43.469397,43.469397 0 0 1 -0.1273,0.11532 43.469397,43.469397 0 0 1 -0.12766,0.11456 43.469397,43.469397 0 0 1 -0.12823,0.11419 43.469397,43.469397 0 0 1 -0.12861,0.11364 43.469397,43.469397 0 0 1 -0.12898,0.11326 43.469397,43.469397 0 0 1 -0.12953,0.11267 43.469397,43.469397 0 0 1 -0.12991,0.11213 43.469397,43.469397 0 0 1 -0.13049,0.11158 43.469397,43.469397 0 0 1 -0.13084,0.11119 43.469397,43.469397 0 0 1 -0.13121,0.11043 43.469397,43.469397 0 0 1 -0.13161,0.11008 43.469397,43.469397 0 0 1 -0.13215,0.1097 43.469397,43.469397 0 0 1 -0.13255,0.10895 43.469397,43.469397 0 0 1 -0.1331,0.10857 43.469397,43.469397 0 0 1 -0.13345,0.10782 43.469397,43.469397 0 0 1 -0.13368,0.10764 43.469397,43.469397 0 0 1 -0.1344,0.10689 43.469397,43.469397 0 0 1 -0.13458,0.10631 43.469397,43.469397 0 0 1 -0.13516,0.10597 43.469397,43.469397 0 0 1 -0.13553,0.1052 43.469397,43.469397 0 0 1 -0.13591,0.10483 43.469397,43.469397 0 0 1 -0.13646,0.10428 43.469397,43.469397 0 0 1 -0.13665,0.10372 43.469397,43.469397 0 0 1 -0.13722,0.10311 43.469397,43.469397 0 0 1 -0.13759,0.10258 43.469397,43.469397 0 0 1 -0.13794,0.10217 43.469397,43.469397 0 0 1 -0.13835,0.10144 43.469397,43.469397 0 0 1 -0.13891,0.10113 43.469397,43.469397 0 0 1 -0.13908,0.10029 43.469397,43.469397 0 0 1 -0.13964,0.1 43.469397,43.469397 0 0 1 -0.13985,0.0993 43.469397,43.469397 0 0 1 -0.14039,0.0989 43.469397,43.469397 0 0 1 -0.14077,0.0983 43.469397,43.469397 0 0 1 -0.14115,0.0977 43.469397,43.469397 0 0 1 -0.14151,0.0972 43.469397,43.469397 0 0 1 -0.14188,0.0963 43.469397,43.469397 0 0 1 -0.14229,0.096 43.469397,43.469397 0 0 1 -0.14265,0.0954 43.469397,43.469397 0 0 1 -0.14301,0.0949 43.469397,43.469397 0 0 1 -0.14339,0.0944 43.469397,43.469397 0 0 1 -0.14396,0.0935 43.469397,43.469397 0 0 1 -0.14414,0.0932 43.469397,43.469397 0 0 1 -0.1445,0.0927 43.469397,43.469397 0 0 1 -0.14489,0.0918 43.469397,43.469397 0 0 1 -0.14508,0.0915 43.469397,43.469397 0 0 1 -0.14565,0.0908 43.469397,43.469397 0 0 1 -0.146,0.0904 43.469397,43.469397 0 0 1 -0.1464,0.0896 43.469397,43.469397 0 0 1 -0.14657,0.0892 43.469397,43.469397 0 0 1 -0.14713,0.0888 43.469397,43.469397 0 0 1 -0.14732,0.088 43.469397,43.469397 0 0 1 -0.14771,0.0873 43.469397,43.469397 0 0 1 -0.14805,0.0866 43.469397,43.469397 0 0 1 -0.14847,0.0862 43.469397,43.469397 0 0 1 -0.14863,0.0858 43.469397,43.469397 0 0 1 -0.14918,0.0849 43.469397,43.469397 0 0 1 -0.14939,0.0844 43.469397,43.469397 0 0 1 -0.14975,0.0839 43.469397,43.469397 0 0 1 -0.14994,0.0835 43.469397,43.469397 0 0 1 -0.1505,0.0828 43.469397,43.469397 0 0 1 -0.15071,0.0821 43.469397,43.469397 0 0 1 -0.15105,0.0814 43.469397,43.469397 0 0 1 -0.15146,0.0809 43.469397,43.469397 0 0 1 -0.15162,0.0802 43.469397,43.469397 0 0 1 -0.152,0.0797 43.469397,43.469397 0 0 1 -0.15239,0.0793 43.469397,43.469397 0 0 1 -0.15255,0.0785 43.469397,43.469397 0 0 1 -0.15294,0.0778 43.469397,43.469397 0 0 1 -0.1533,0.0773 43.469397,43.469397 0 0 1 -0.15351,0.0766 43.469397,43.469397 0 0 1 -0.15387,0.0762 43.469397,43.469397 0 0 1 -0.15406,0.0755 43.469397,43.469397 0 0 1 -0.15445,0.0749 43.469397,43.469397 0 0 1 -0.1548,0.0742 43.469397,43.469397 0 0 1 -0.15501,0.0738 43.469397,43.469397 0 0 1 -0.15537,0.0731 43.469397,43.469397 0 0 1 -0.15555,0.0725 43.469397,43.469397 0 0 1 -0.15593,0.0719 43.469397,43.469397 0 0 1 -0.15614,0.0711 43.469397,43.469397 0 0 1 -0.15647,0.0706 43.469397,43.469397 0 0 1 -0.1567,0.07 43.469397,43.469397 0 0 1 -0.15706,0.0693 43.469397,43.469397 0 0 1 -0.15724,0.0687 43.469397,43.469397 0 0 1 -0.15763,0.0681 43.469397,43.469397 0 0 1 -0.1578,0.0674 43.469397,43.469397 0 0 1 -0.15799,0.0668 43.469397,43.469397 0 0 1 -0.15836,0.0662 43.469397,43.469397 0 0 1 -0.15875,0.0657 43.469397,43.469397 0 0 1 -0.15874,0.065 43.469397,43.469397 0 0 1 -0.15911,0.0643 43.469397,43.469397 0 0 1 -0.15948,0.064 43.469397,43.469397 0 0 1 -0.15951,0.0631 43.469397,43.469397 0 0 1 -0.16004,0.0622 43.469397,43.469397 0 0 1 -0.16005,0.062 43.469397,43.469397 0 0 1 -0.16043,0.0611 43.469397,43.469397 0 0 1 -0.16045,0.0604 43.469397,43.469397 0 0 1 -0.16096,0.0599 43.469397,43.469397 0 0 1 -0.161,0.0595 43.469397,43.469397 0 0 1 -0.16136,0.0586 43.469397,43.469397 0 0 1 -0.16155,0.058 43.469397,43.469397 0 0 1 -0.16174,0.0574 43.469397,43.469397 0 0 1 -0.16192,0.0567 43.469397,43.469397 0 0 1 -0.16228,0.056 43.469397,43.469397 0 0 1 -0.16251,0.0557 43.469397,43.469397 0 0 1 -0.16249,0.0547 43.469397,43.469397 0 0 1 -0.16285,0.0542 43.469397,43.469397 0 0 1 -0.16324,0.0535 43.469397,43.469397 0 0 1 -0.16321,0.0528 43.469397,43.469397 0 0 1 -0.16344,0.052 43.469397,43.469397 0 0 1 -0.16379,0.0516 43.469397,43.469397 0 0 1 -0.1638,0.051 43.469397,43.469397 0 0 1 -0.16417,0.0504 43.469397,43.469397 0 0 1 -0.16436,0.0496 43.469397,43.469397 0 0 1 -0.16454,0.0489 43.469397,43.469397 0 0 1 -0.16455,0.0482 43.469397,43.469397 0 0 1 -0.16491,0.0478 43.469397,43.469397 0 0 1 -0.16512,0.0469 43.469397,43.469397 0 0 1 -0.16528,0.0465 43.469397,43.469397 0 0 1 -0.16531,0.0457 43.469397,43.469397 0 0 1 -0.16564,0.045 43.469397,43.469397 0 0 1 -0.16587,0.0442 43.469397,43.469397 0 0 1 -0.16587,0.0438 43.469397,43.469397 0 0 1 -0.16621,0.0432 43.469397,43.469397 0 0 1 -0.16625,0.0425 43.469397,43.469397 0 0 1 -0.1664,0.042 43.469397,43.469397 0 0 1 -0.16679,0.0412 43.469397,43.469397 0 0 1 -0.1668,0.0404 43.469397,43.469397 0 0 1 -0.1668,0.0398 43.469397,43.469397 0 0 1 -0.16716,0.039 43.469397,43.469397 0 0 1 -0.16733,0.0386 43.469397,43.469397 0 0 1 -0.16736,0.0378 43.469397,43.469397 0 0 1 -0.16754,0.0373 43.469397,43.469397 0 0 1 -0.16772,0.0365 43.469397,43.469397 0 0 1 -0.16791,0.036 43.469397,43.469397 0 0 1 -0.16791,0.0351 43.469397,43.469397 0 0 1 -0.16812,0.0345 43.469397,43.469397 0 0 1 -0.16828,0.0338 43.469397,43.469397 0 0 1 -0.16847,0.0333 43.469397,43.469397 0 0 1 -0.16849,0.0326 43.469397,43.469397 0 0 1 -0.16866,0.0318 43.469397,43.469397 0 0 1 -0.16866,0.0312 43.469397,43.469397 0 0 1 -0.16903,0.0304 43.469397,43.469397 0 0 1 -0.16906,0.0296 43.469397,43.469397 0 0 1 -0.16902,0.0295 43.469397,43.469397 0 0 1 -0.16922,0.0285 43.469397,43.469397 0 0 1 -0.16943,0.0278 43.469397,43.469397 0 0 1 -0.16939,0.0271 43.469397,43.469397 0 0 1 -0.1696,0.0267 43.469397,43.469397 0 0 1 -0.1698,0.0259 43.469397,43.469397 0 0 1 -0.16979,0.0252 43.469397,43.469397 0 0 1 -0.16978,0.0246 43.469397,43.469397 0 0 1 -0.16997,0.0238 43.469397,43.469397 0 0 1 -0.17015,0.0233 43.469397,43.469397 0 0 1 -0.16998,0.0226 43.469397,43.469397 0 0 1 -0.17036,0.0217 43.469397,43.469397 0 0 1 -0.17033,0.0212 43.469397,43.469397 0 0 1 -0.17035,0.0205 43.469397,43.469397 0 0 1 -0.17054,0.0198 43.469397,43.469397 0 0 1 -0.17053,0.019 43.469397,43.469397 0 0 1 -0.17073,0.0185 43.469397,43.469397 0 0 1 -0.17072,0.0179 43.469397,43.469397 0 0 1 -0.17074,0.017 43.469397,43.469397 0 0 1 -0.17089,0.0164 43.469397,43.469397 0 0 1 -0.17091,0.0159 43.469397,43.469397 0 0 1 -0.17091,0.0151 43.469397,43.469397 0 0 1 -0.1711,0.0143 43.469397,43.469397 0 0 1 -0.1711,0.0138 43.469397,43.469397 0 0 1 -0.1711,0.0132 43.469397,43.469397 0 0 1 -0.17109,0.0125 43.469397,43.469397 0 0 1 -0.1713,0.0117 43.469397,43.469397 0 0 1 -0.17127,0.011 43.469397,43.469397 0 0 1 -0.17129,0.0104 43.469397,43.469397 0 0 1 -0.17145,0.0104 43.469397,43.469397 0 0 1 -0.1713,0.009 43.469397,43.469397 0 0 1 -0.17147,0.009 43.469397,43.469397 0 0 1 -0.17146,0.007 43.469397,43.469397 0 0 1 -0.17148,0.006 43.469397,43.469397 0 0 1 -0.17164,0.006 43.469397,43.469397 0 0 1 -0.17149,0.005 43.469397,43.469397 0 0 1 -0.17146,0.004 43.469397,43.469397 0 0 1 -0.17166,0.003 43.469397,43.469397 0 0 1 -0.17167,0.003 43.469397,43.469397 0 0 1 -0.17164,0.003 43.469397,43.469397 0 0 1 -0.17148,0.002 43.469397,43.469397 0 0 1 -0.17166,0.002 43.469397,43.469397 0 0 1 -0.17166,6.8e-4 43.469397,43.469397 0 0 1 -0.14077,1.8e-4 43.469397,43.469397 0 0 1 -0.17165,-2.2e-4 43.469397,43.469397 0 0 1 -0.17166,-6.8e-4 43.469397,43.469397 0 0 1 -0.17166,-0.002 43.469397,43.469397 0 0 1 -0.17165,-0.002 43.469397,43.469397 0 0 1 -0.17148,-0.003 43.469397,43.469397 0 0 1 -0.17166,-0.003 43.469397,43.469397 0 0 1 -0.17165,-0.004 43.469397,43.469397 0 0 1 -0.17149,-0.004 43.469397,43.469397 0 0 1 -0.17147,-0.005 43.469397,43.469397 0 0 1 -0.17164,-0.006 43.469397,43.469397 0 0 1 -0.17148,-0.006 43.469397,43.469397 0 0 1 -0.17147,-0.007 43.469397,43.469397 0 0 1 -0.17148,-0.009 43.469397,43.469397 0 0 1 -0.17127,-0.009 43.469397,43.469397 0 0 1 -0.17147,-0.0104 43.469397,43.469397 0 0 1 -0.17129,-0.0106 43.469397,43.469397 0 0 1 -0.17128,-0.011 43.469397,43.469397 0 0 1 -0.17111,-0.012 43.469397,43.469397 0 0 1 -0.17127,-0.0125 43.469397,43.469397 0 0 1 -0.17109,-0.0133 43.469397,43.469397 0 0 1 -0.1711,-0.0138 43.469397,43.469397 0 0 1 -0.1711,-0.0146 43.469397,43.469397 0 0 1 -0.17092,-0.0152 43.469397,43.469397 0 0 1 -0.1709,-0.0158 43.469397,43.469397 0 0 1 -0.17073,-0.0167 43.469397,43.469397 0 0 1 -0.1709,-0.0173 43.469397,43.469397 0 0 1 -0.17073,-0.0181 43.469397,43.469397 0 0 1 -0.17053,-0.0186 43.469397,43.469397 0 0 1 -0.17053,-0.0192 43.469397,43.469397 0 0 1 -0.17054,-0.02 43.469397,43.469397 0 0 1 -0.17034,-0.0204 43.469397,43.469397 0 0 1 -0.17035,-0.0212 43.469397,43.469397 0 0 1 -0.17017,-0.0221 43.469397,43.469397 0 0 1 -0.17015,-0.0226 43.469397,43.469397 0 0 1 -0.17017,-0.0233 43.469397,43.469397 0 0 1 -0.16978,-0.0241 43.469397,43.469397 0 0 1 -0.16998,-0.0249 43.469397,43.469397 0 0 1 -0.16979,-0.0253 43.469397,43.469397 0 0 1 -0.16958,-0.026 43.469397,43.469397 0 0 1 -0.16962,-0.0269 43.469397,43.469397 0 0 1 -0.16939,-0.0274 43.469397,43.469397 0 0 1 -0.16942,-0.0278 43.469397,43.469397 0 0 1 -0.16923,-0.0285 43.469397,43.469397 0 0 1 -0.16903,-0.0295 43.469397,43.469397 0 0 1 -0.16903,-0.0299 43.469397,43.469397 0 0 1 -0.16886,-0.0305 43.469397,43.469397 0 0 1 -0.16867,-0.0315 43.469397,43.469397 0 0 1 -0.16865,-0.0319 43.469397,43.469397 0 0 1 -0.16848,-0.0327 43.469397,43.469397 0 0 1 -0.16848,-0.0334 43.469397,43.469397 0 0 1 -0.16829,-0.034 43.469397,43.469397 0 0 1 -0.16811,-0.0346 43.469397,43.469397 0 0 1 -0.1679,-0.0353 43.469397,43.469397 0 0 1 -0.16773,-0.0359 43.469397,43.469397 0 0 1 -0.16772,-0.0367 43.469397,43.469397 0 0 1 -0.16755,-0.0372 43.469397,43.469397 0 0 1 -0.16735,-0.038 43.469397,43.469397 0 0 1 -0.16736,-0.0385 43.469397,43.469397 0 0 1 -0.16697,-0.0393 43.469397,43.469397 0 0 1 -0.16697,-0.04 43.469397,43.469397 0 0 1 -0.16679,-0.0406 43.469397,43.469397 0 0 1 -0.16662,-0.0412 43.469397,43.469397 0 0 1 -0.1664,-0.0419 43.469397,43.469397 0 0 1 -0.16623,-0.0425 43.469397,43.469397 0 0 1 -0.16605,-0.0432 43.469397,43.469397 0 0 1 -0.16605,-0.0441 43.469397,43.469397 0 0 1 -0.16566,-0.0447 43.469397,43.469397 0 0 1 -0.16567,-0.045 43.469397,43.469397 0 0 1 -0.16529,-0.0459 43.469397,43.469397 0 0 1 -0.16531,-0.0466 43.469397,43.469397 0 0 1 -0.1651,-0.0472 43.469397,43.469397 0 0 1 -0.16473,-0.0478 43.469397,43.469397 0 0 1 -0.16473,-0.0485 43.469397,43.469397 0 0 1 -0.16435,-0.0491 43.469397,43.469397 0 0 1 -0.16435,-0.0496 43.469397,43.469397 0 0 1 -0.164,-0.0506 43.469397,43.469397 0 0 1 -0.16397,-0.0509 43.469397,43.469397 0 0 1 -0.16361,-0.0519 43.469397,43.469397 0 0 1 -0.16343,-0.0522 43.469397,43.469397 0 0 1 -0.16323,-0.0532 43.469397,43.469397 0 0 1 -0.16305,-0.0535 43.469397,43.469397 0 0 1 -0.16286,-0.0542 43.469397,43.469397 0 0 1 -0.16267,-0.0549 43.469397,43.469397 0 0 1 -0.1623,-0.0557 43.469397,43.469397 0 0 1 -0.16229,-0.0564 43.469397,43.469397 0 0 1 -0.16193,-0.0567 43.469397,43.469397 0 0 1 -0.16174,-0.0574 43.469397,43.469397 0 0 1 -0.16137,-0.0582 43.469397,43.469397 0 0 1 -0.16136,-0.0588 43.469397,43.469397 0 0 1 -0.16098,-0.0595 43.469397,43.469397 0 0 1 -0.1608,-0.0601 43.469397,43.469397 0 0 1 -0.16061,-0.0606 43.469397,43.469397 0 0 1 -0.16024,-0.0613 43.469397,43.469397 0 0 1 -0.16007,-0.062 43.469397,43.469397 0 0 1 -0.15985,-0.0628 43.469397,43.469397 0 0 1 -0.15968,-0.063 43.469397,43.469397 0 0 1 -0.1593,-0.064 43.469397,43.469397 0 0 1 -0.15912,-0.0647 43.469397,43.469397 0 0 1 -0.15873,-0.065 43.469397,43.469397 0 0 1 -0.15856,-0.0657 43.469397,43.469397 0 0 1 -0.15837,-0.0666 43.469397,43.469397 0 0 1 -0.15798,-0.0668 43.469397,43.469397 0 0 1 -0.15782,-0.0677 43.469397,43.469397 0 0 1 -0.15743,-0.0683 43.469397,43.469397 0 0 1 -0.15724,-0.0687 43.469397,43.469397 0 0 1 -0.15706,-0.0695 43.469397,43.469397 0 0 1 -0.15669,-0.0703 43.469397,43.469397 0 0 1 -0.1563,-0.0705 43.469397,43.469397 0 0 1 -0.15612,-0.0712 43.469397,43.469397 0 0 1 -0.15594,-0.072 43.469397,43.469397 0 0 1 -0.15555,-0.0726 43.469397,43.469397 0 0 1 -0.15518,-0.0733 43.469397,43.469397 0 0 1 -0.15501,-0.0738 43.469397,43.469397 0 0 1 -0.15461,-0.0744 43.469397,43.469397 0 0 1 -0.15445,-0.075 43.469397,43.469397 0 0 1 -0.15406,-0.0755 43.469397,43.469397 0 0 1 -0.15387,-0.0762 43.469397,43.469397 0 0 1 -0.15349,-0.0768 43.469397,43.469397 0 0 1 -0.15314,-0.0772 43.469397,43.469397 0 0 1 -0.15294,-0.0781 43.469397,43.469397 0 0 1 -0.15255,-0.0787 43.469397,43.469397 0 0 1 -0.15219,-0.0793 43.469397,43.469397 0 0 1 -0.15201,-0.0799 43.469397,43.469397 0 0 1 -0.15163,-0.0804 43.469397,43.469397 0 0 1 -0.15144,-0.081 43.469397,43.469397 0 0 1 -0.15088,-0.0815 43.469397,43.469397 0 0 1 -0.1507,-0.082 43.469397,43.469397 0 0 1 -0.15031,-0.0831 43.469397,43.469397 0 0 1 -0.15013,-0.0833 43.469397,43.469397 0 0 1 -0.14957,-0.0841 43.469397,43.469397 0 0 1 -0.14939,-0.0846 43.469397,43.469397 0 0 1 -0.14899,-0.0851 43.469397,43.469397 0 0 1 -0.14864,-0.0858 43.469397,43.469397 0 0 1 -0.14845,-0.0862 43.469397,43.469397 0 0 1 -0.14788,-0.0869 43.469397,43.469397 0 0 1 -0.1477,-0.0876 43.469397,43.469397 0 0 1 -0.14733,-0.0879 43.469397,43.469397 0 0 1 -0.14695,-0.0887 43.469397,43.469397 0 0 1 -0.14656,-0.0893 43.469397,43.469397 0 0 1 -0.14639,-0.0898 43.469397,43.469397 0 0 1 -0.14583,-0.0903 43.469397,43.469397 0 0 1 -0.14545,-0.0911 43.469397,43.469397 0 0 1 -0.14527,-0.0915 43.469397,43.469397 0 0 1 -0.14488,-0.0921 43.469397,43.469397 0 0 1 -0.14433,-0.0927 43.469397,43.469397 0 0 1 -0.14414,-0.0933 43.469397,43.469397 0 0 1 -0.14376,-0.0938 43.469397,43.469397 0 0 1 -0.14321,-0.0944 43.469397,43.469397 0 0 1 -0.14301,-0.095 43.469397,43.469397 0 0 1 -0.14265,-0.0956 43.469397,43.469397 0 0 1 -0.14226,-0.096 43.469397,43.469397 0 0 1 -0.1417,-0.0968 43.469397,43.469397 0 0 1 -0.14153,-0.0972 43.469397,43.469397 0 0 1 -0.14116,-0.0977 43.469397,43.469397 0 0 1 -0.14057,-0.0985 43.469397,43.469397 0 0 1 -0.14021,-0.0988 43.469397,43.469397 0 0 1 -0.14002,-0.0994 43.469397,43.469397 0 0 1 -0.13947,-0.1 43.469397,43.469397 0 0 1 -0.13907,-0.10051 43.469397,43.469397 0 0 1 -0.13872,-0.10113 43.469397,43.469397 0 0 1 -0.13834,-0.10164 43.469397,43.469397 0 0 1 -0.13797,-0.10228 43.469397,43.469397 0 0 1 -0.13739,-0.10279 43.469397,43.469397 0 0 1 -0.13722,-0.10331 43.469397,43.469397 0 0 1 -0.13664,-0.10372 43.469397,43.469397 0 0 1 -0.13629,-0.10446 43.469397,43.469397 0 0 1 -0.1359,-0.10483 43.469397,43.469397 0 0 1 -0.13534,-0.10538 43.469397,43.469397 0 0 1 -0.13515,-0.10596 43.469397,43.469397 0 0 1 -0.1346,-0.10651 43.469397,43.469397 0 0 1 -0.13403,-0.10708 43.469397,43.469397 0 0 1 -0.13384,-0.10745 43.469397,43.469397 0 0 1 -0.13329,-0.10801 43.469397,43.469397 0 0 1 -0.13292,-0.10875 43.469397,43.469397 0 0 1 -0.13252,-0.10897 43.469397,43.469397 0 0 1 -0.13216,-0.10968 43.469397,43.469397 0 0 1 -0.1316,-0.11027 43.469397,43.469397 0 0 1 -0.13103,-0.11063 43.469397,43.469397 0 0 1 -0.13086,-0.11119 43.469397,43.469397 0 0 1 -0.13028,-0.11176 43.469397,43.469397 0 0 1 -0.12991,-0.11211 43.469397,43.469397 0 0 1 -0.12936,-0.11288 43.469397,43.469397 0 0 1 -0.12898,-0.11326 43.469397,43.469397 0 0 1 -0.1286,-0.11364 43.469397,43.469397 0 0 1 -0.12804,-0.11438 43.469397,43.469397 0 0 1 -0.12747,-0.11473 43.469397,43.469397 0 0 1 -0.12731,-0.11531 43.469397,43.469397 0 0 1 -0.12672,-0.1157 43.469397,43.469397 0 0 1 -0.12617,-0.11626 43.469397,43.469397 0 0 1 -0.1258,-0.11679 43.469397,43.469397 0 0 1 -0.12542,-0.11738 43.469397,43.469397 0 0 1 -0.12487,-0.11774 43.469397,43.469397 0 0 1 -0.12428,-0.11832 43.469397,43.469397 0 0 1 -0.12393,-0.11866 43.469397,43.469397 0 0 1 -0.12356,-0.11926 43.469397,43.469397 0 0 1 -0.12299,-0.1196 43.469397,43.469397 0 0 1 -0.12242,-0.12038 43.469397,43.469397 0 0 1 -0.12205,-0.12055 43.469397,43.469397 0 0 1 -0.12168,-0.1213 43.469397,43.469397 0 0 1 -0.12092,-0.12149 43.469397,43.469397 0 0 1 -0.12074,-0.12224 43.469397,43.469397 0 0 1 -0.11998,-0.12262 43.469397,43.469397 0 0 1 -0.11963,-0.12298 43.469397,43.469397 0 0 1 -0.11924,-0.12356 43.469397,43.469397 0 0 1 -0.11869,-0.1241 43.469397,43.469397 0 0 1 -0.11812,-0.12449 43.469397,43.469397 0 0 1 -0.11774,-0.12485 43.469397,43.469397 0 0 1 -0.11718,-0.12543 43.469397,43.469397 0 0 1 -0.11664,-0.12598 43.469397,43.469397 0 0 1 -0.11623,-0.12617 43.469397,43.469397 0 0 1 -0.1157,-0.12692 43.469397,43.469397 0 0 1 -0.11511,-0.12731 43.469397,43.469397 0 0 1 -0.11475,-0.12765 43.469397,43.469397 0 0 1 -0.11419,-0.12804 43.469397,43.469397 0 0 1 -0.11363,-0.1286 43.469397,43.469397 0 0 1 -0.11307,-0.12916 43.469397,43.469397 0 0 1 -0.11269,-0.12936 43.469397,43.469397 0 0 1 -0.11213,-0.1301 43.469397,43.469397 0 0 1 -0.11176,-0.1303 43.469397,43.469397 0 0 1 -0.11101,-0.13082 43.469397,43.469397 0 0 1 -0.11063,-0.13124 43.469397,43.469397 0 0 1 -0.11007,-0.1318 43.469397,43.469397 0 0 1 -0.1095,-0.13215 43.469397,43.469397 0 0 1 -0.10914,-0.13252 43.469397,43.469397 0 0 1 -0.10839,-0.13293 43.469397,43.469397 0 0 1 -0.10802,-0.13345 43.469397,43.469397 0 0 1 -0.10744,-0.13385 43.469397,43.469397 0 0 1 -0.10688,-0.13423 43.469397,43.469397 0 0 1 -0.10652,-0.13478 43.469397,43.469397 0 0 1 -0.10577,-0.13496 43.469397,43.469397 0 0 1 -0.10539,-0.13552 43.469397,43.469397 0 0 1 -0.10482,-0.13611 43.469397,43.469397 0 0 1 -0.10409,-0.13627 43.469397,43.469397 0 0 1 -0.10372,-0.13665 43.469397,43.469397 0 0 1 -0.10331,-0.13723 43.469397,43.469397 0 0 1 -0.10259,-0.13758 43.469397,43.469397 0 0 1 -0.10206,-0.13795 43.469397,43.469397 0 0 1 -0.10165,-0.13854 43.469397,43.469397 0 0 1 -0.10092,-0.13871 43.469397,43.469397 0 0 1 -0.1005,-0.13908 43.469397,43.469397 0 0 1 -0.0998,-0.13966 43.469397,43.469397 0 0 1 -0.0994,-0.14001 43.469397,43.469397 0 0 1 -0.0988,-0.14041 43.469397,43.469397 0 0 1 -0.0981,-0.14057 43.469397,43.469397 0 0 1 -0.0977,-0.14115 43.469397,43.469397 0 0 1 -0.0972,-0.14151 43.469397,43.469397 0 0 1 -0.0966,-0.1419 43.469397,43.469397 0 0 1 -0.096,-0.14245 43.469397,43.469397 0 0 1 -0.0955,-0.14265 43.469397,43.469397 0 0 1 -0.0947,-0.14301 43.469397,43.469397 0 0 1 -0.0944,-0.14339 43.469397,43.469397 0 0 1 -0.0938,-0.14377 43.469397,43.469397 0 0 1 -0.0932,-0.14415 43.469397,43.469397 0 0 1 -0.0925,-0.14451 43.469397,43.469397 0 0 1 -0.0921,-0.14488 43.469397,43.469397 0 0 1 -0.0913,-0.14528 43.469397,43.469397 0 0 1 -0.0911,-0.14563 43.469397,43.469397 0 0 1 -0.0902,-0.14582 43.469397,43.469397 0 0 1 -0.0898,-0.14639 43.469397,43.469397 0 0 1 -0.0891,-0.14659 43.469397,43.469397 0 0 1 -0.0886,-0.14711 43.469397,43.469397 0 0 1 -0.088,-0.14733 43.469397,43.469397 0 0 1 -0.0874,-0.14771 43.469397,43.469397 0 0 1 -0.0869,-0.14805 43.469397,43.469397 0 0 1 -0.0863,-0.14846 43.469397,43.469397 0 0 1 -0.0856,-0.14881 43.469397,43.469397 0 0 1 -0.0851,-0.14902 43.469397,43.469397 0 0 1 -0.0844,-0.14937 43.469397,43.469397 0 0 1 -0.0839,-0.14977 43.469397,43.469397 0 0 1 -0.0833,-0.15012 43.469397,43.469397 0 0 1 -0.0828,-0.15032 43.469397,43.469397 0 0 1 -0.082,-0.15069 43.469397,43.469397 0 0 1 -0.0816,-0.15106 43.469397,43.469397 0 0 1 -0.0809,-0.15146 43.469397,43.469397 0 0 1 -0.0803,-0.15162 43.469397,43.469397 0 0 1 -0.0797,-0.15199 43.469397,43.469397 0 0 1 -0.079,-0.15239 43.469397,43.469397 0 0 1 -0.0786,-0.15257 43.469397,43.469397 0 0 1 -0.0779,-0.15294 43.469397,43.469397 0 0 1 -0.0772,-0.1533 43.469397,43.469397 0 0 1 -0.0767,-0.1535 43.469397,43.469397 0 0 1 -0.076,-0.15387 43.469397,43.469397 0 0 1 -0.0755,-0.15425 43.469397,43.469397 0 0 1 -0.0749,-0.15445 43.469397,43.469397 0 0 1 -0.0742,-0.15463 43.469397,43.469397 0 0 1 -0.0735,-0.15499 43.469397,43.469397 0 0 1 -0.0732,-0.15536 43.469397,43.469397 0 0 1 -0.0723,-0.15557 43.469397,43.469397 0 0 1 -0.072,-0.15593 43.469397,43.469397 0 0 1 -0.0711,-0.1563 43.469397,43.469397 0 0 1 -0.0705,-0.15632 43.469397,43.469397 0 0 1 -0.07,-0.15687 43.469397,43.469397 0 0 1 -0.0692,-0.15687 43.469397,43.469397 0 0 1 -0.0688,-0.15742 43.469397,43.469397 0 0 1 -0.0679,-0.15742 43.469397,43.469397 0 0 1 -0.0675,-0.15783 43.469397,43.469397 0 0 1 -0.0668,-0.15818 43.469397,43.469397 0 0 1 -0.0662,-0.15837 43.469397,43.469397 0 0 1 -0.0655,-0.15854 43.469397,43.469397 0 0 1 -0.065,-0.15893 43.469397,43.469397 0 0 1 -0.0644,-0.15913 43.469397,43.469397 0 0 1 -0.0637,-0.15928 43.469397,43.469397 0 0 1 -0.0631,-0.1597 43.469397,43.469397 0 0 1 -0.0625,-0.15987 43.469397,43.469397 0 0 1 -0.0618,-0.16004 43.469397,43.469397 0 0 1 -0.0613,-0.1604 43.469397,43.469397 0 0 1 -0.0606,-0.16064 43.469397,43.469397 0 0 1 -0.0599,-0.16081 43.469397,43.469397 0 0 1 -0.0592,-0.16118 43.469397,43.469397 0 0 1 -0.0588,-0.16114 43.469397,43.469397 0 0 1 -0.0579,-0.16156 43.469397,43.469397 0 0 1 -0.0572,-0.16174 43.469397,43.469397 0 0 1 -0.0567,-0.1621 43.469397,43.469397 0 0 1 -0.0562,-0.16213 43.469397,43.469397 0 0 1 -0.0554,-0.16247 43.469397,43.469397 0 0 1 -0.0549,-0.16267 43.469397,43.469397 0 0 1 -0.0541,-0.16288 43.469397,43.469397 0 0 1 -0.0535,-0.16305 43.469397,43.469397 0 0 1 -0.0529,-0.16324 43.469397,43.469397 0 0 1 -0.0522,-0.1636 43.469397,43.469397 0 0 1 -0.0515,-0.1636 43.469397,43.469397 0 0 1 -0.0512,-0.16399 43.469397,43.469397 0 0 1 -0.0503,-0.16398 43.469397,43.469397 0 0 1 -0.0496,-0.16436 43.469397,43.469397 0 0 1 -0.049,-0.16454 43.469397,43.469397 0 0 1 -0.0483,-0.16474 43.469397,43.469397 0 0 1 -0.0477,-0.16472 43.469397,43.469397 0 0 1 -0.0472,-0.16512 43.469397,43.469397 0 0 1 -0.0462,-0.16528 43.469397,43.469397 0 0 1 -0.0459,-0.1655 43.469397,43.469397 0 0 1 -0.0451,-0.16548 43.469397,43.469397 0 0 1 -0.0443,-0.16583 43.469397,43.469397 0 0 1 -0.0438,-0.16607 43.469397,43.469397 0 0 1 -0.0431,-0.16602 43.469397,43.469397 0 0 1 -0.0425,-0.16643 43.469397,43.469397 0 0 1 -0.0417,-0.16641 43.469397,43.469397 0 0 1 -0.0412,-0.16661 43.469397,43.469397 0 0 1 -0.0406,-0.16679 43.469397,43.469397 0 0 1 -0.0397,-0.16696 43.469397,43.469397 0 0 1 -0.0393,-0.16717 43.469397,43.469397 0 0 1 -0.0384,-0.16717 43.469397,43.469397 0 0 1 -0.038,-0.16735 43.469397,43.469397 0 0 1 -0.0371,-0.16753 43.469397,43.469397 0 0 1 -0.0368,-0.16773 43.469397,43.469397 0 0 1 -0.0358,-0.16792 43.469397,43.469397 0 0 1 -0.0351,-0.16793 43.469397,43.469397 0 0 1 -0.0347,-0.16828 43.469397,43.469397 0 0 1 -0.034,-0.1681 43.469397,43.469397 0 0 1 -0.0331,-0.16849 43.469397,43.469397 0 0 1 -0.0326,-0.16846 43.469397,43.469397 0 0 1 -0.0319,-0.16868 43.469397,43.469397 0 0 1 -0.0312,-0.16884 43.469397,43.469397 0 0 1 -0.0304,-0.16885 43.469397,43.469397 0 0 1 -0.0299,-0.16904 43.469397,43.469397 0 0 1 -0.0293,-0.16903 43.469397,43.469397 0 0 1 -0.0286,-0.16941 43.469397,43.469397 0 0 1 -0.0276,-0.16922 43.469397,43.469397 0 0 1 -0.0273,-0.16961 43.469397,43.469397 0 0 1 -0.0266,-0.16959 43.469397,43.469397 0 0 1 -0.0257,-0.1696 43.469397,43.469397 0 0 1 -0.025,-0.16979 43.469397,43.469397 0 0 1 -0.0247,-0.16979 43.469397,43.469397 0 0 1 -0.0238,-0.16997 43.469397,43.469397 0 0 1 -0.0233,-0.17016 43.469397,43.469397 0 0 1 -0.0224,-0.17015 43.469397,43.469397 0 0 1 -0.0219,-0.17017 43.469397,43.469397 0 0 1 -0.0212,-0.17036 43.469397,43.469397 0 0 1 -0.0204,-0.17054 43.469397,43.469397 0 0 1 -0.0198,-0.17035 43.469397,43.469397 0 0 1 -0.0193,-0.17051 43.469397,43.469397 0 0 1 -0.0184,-0.17074 43.469397,43.469397 0 0 1 -0.0179,-0.17072 43.469397,43.469397 0 0 1 -0.0172,-0.17072 43.469397,43.469397 0 0 1 -0.0165,-0.17092 43.469397,43.469397 0 0 1 -0.0157,-0.1709 43.469397,43.469397 0 0 1 -0.0151,-0.17091 43.469397,43.469397 0 0 1 -0.0143,-0.17109 43.469397,43.469397 0 0 1 -0.0139,-0.1711 43.469397,43.469397 0 0 1 -0.013,-0.17108 43.469397,43.469397 0 0 1 -0.0126,-0.17129 43.469397,43.469397 0 0 1 -0.0116,-0.1711 43.469397,43.469397 0 0 1 -0.0111,-0.17129 43.469397,43.469397 0 0 1 -0.0104,-0.17146 43.469397,43.469397 0 0 1 -0.009,-0.17128 43.469397,43.469397 0 0 1 -0.009,-0.17148 43.469397,43.469397 0 0 1 -0.008,-0.17147 43.469397,43.469397 0 0 1 -0.007,-0.17128 43.469397,43.469397 0 0 1 -0.007,-0.17168 43.469397,43.469397 0 0 1 -0.005,-0.17146 43.469397,43.469397 0 0 1 -0.005,-0.17146 43.469397,43.469397 0 0 1 -0.004,-0.17166 43.469397,43.469397 0 0 1 -0.004,-0.17148 43.469397,43.469397 0 0 1 -0.004,-0.17164 43.469397,43.469397 0 0 1 -0.004,-0.17165 43.469397,43.469397 0 0 1 -0.002,-0.17167 43.469397,43.469397 0 0 1 -0.002,-0.17167 43.469397,43.469397 0 0 1 -8.3e-4,-0.17147 43.469397,43.469397 0 0 1 -1.9e-4,-0.14077 43.469397,43.469397 0 0 1 2.6e-4,-0.17165 43.469397,43.469397 0 0 1 8.3e-4,-0.17165 43.469397,43.469397 0 0 1 0.002,-0.17166 43.469397,43.469397 0 0 1 0.003,-0.17168 43.469397,43.469397 0 0 1 0.004,-0.17166 43.469397,43.469397 0 0 1 0.004,-0.17145 43.469397,43.469397 0 0 1 0.004,-0.17167 43.469397,43.469397 0 0 1 0.004,-0.17147 43.469397,43.469397 0 0 1 0.005,-0.17165 43.469397,43.469397 0 0 1 0.006,-0.17146 43.469397,43.469397 0 0 1 0.007,-0.17149 43.469397,43.469397 0 0 1 0.007,-0.17147 43.469397,43.469397 0 0 1 0.008,-0.17146 43.469397,43.469397 0 0 1 0.009,-0.17147 43.469397,43.469397 0 0 1 0.0104,-0.17129 43.469397,43.469397 0 0 1 0.0104,-0.17128 43.469397,43.469397 0 0 1 0.0112,-0.17129 43.469397,43.469397 0 0 1 0.0118,-0.17129 43.469397,43.469397 0 0 1 0.0126,-0.17108 43.469397,43.469397 0 0 1 0.0132,-0.1711 43.469397,43.469397 0 0 1 0.0141,-0.17112 43.469397,43.469397 0 0 1 0.0143,-0.17108 43.469397,43.469397 0 0 1 0.0154,-0.17092 43.469397,43.469397 0 0 1 0.0159,-0.1709 43.469397,43.469397 0 0 1 0.0165,-0.17091 43.469397,43.469397 0 0 1 0.0172,-0.17071 43.469397,43.469397 0 0 1 0.018,-0.17072 43.469397,43.469397 0 0 1 0.0186,-0.17056 43.469397,43.469397 0 0 1 0.0193,-0.17052 43.469397,43.469397 0 0 1 0.02,-0.17054 43.469397,43.469397 0 0 1 0.0206,-0.17035 43.469397,43.469397 0 0 1 0.0213,-0.17034 43.469397,43.469397 0 0 1 0.0219,-0.17035 43.469397,43.469397 0 0 1 0.0227,-0.16998 43.469397,43.469397 0 0 1 0.0235,-0.17014 43.469397,43.469397 0 0 1 0.024,-0.16999 43.469397,43.469397 0 0 1 0.0245,-0.16979 43.469397,43.469397 0 0 1 0.0254,-0.16977 43.469397,43.469397 0 0 1 0.026,-0.16962 43.469397,43.469397 0 0 1 0.0266,-0.16959 43.469397,43.469397 0 0 1 0.0273,-0.16941 43.469397,43.469397 0 0 1 0.028,-0.16941 43.469397,43.469397 0 0 1 0.0287,-0.16923 43.469397,43.469397 0 0 1 0.0293,-0.16904 43.469397,43.469397 0 0 1 0.0302,-0.16903 43.469397,43.469397 0 0 1 0.0307,-0.16885 43.469397,43.469397 0 0 1 0.0313,-0.16885 43.469397,43.469397 0 0 1 0.032,-0.16866 43.469397,43.469397 0 0 1 0.0326,-0.16849 43.469397,43.469397 0 0 1 0.0334,-0.16828 43.469397,43.469397 0 0 1 0.034,-0.1683 43.469397,43.469397 0 0 1 0.0347,-0.16808 43.469397,43.469397 0 0 1 0.0354,-0.16794 43.469397,43.469397 0 0 1 0.0359,-0.1679 43.469397,43.469397 0 0 1 0.0368,-0.16754 43.469397,43.469397 0 0 1 0.0373,-0.16752 43.469397,43.469397 0 0 1 0.038,-0.16755 43.469397,43.469397 0 0 1 0.0387,-0.16717 43.469397,43.469397 0 0 1 0.0394,-0.16717 43.469397,43.469397 0 0 1 0.0399,-0.16679 43.469397,43.469397 0 0 1 0.0406,-0.16679 43.469397,43.469397 0 0 1 0.0412,-0.1666 43.469397,43.469397 0 0 1 0.0419,-0.16642 43.469397,43.469397 0 0 1 0.0427,-0.16623 43.469397,43.469397 0 0 1 0.0433,-0.16623 43.469397,43.469397 0 0 1 0.0438,-0.16585 43.469397,43.469397 0 0 1 0.0445,-0.16586 43.469397,43.469397 0 0 1 0.0453,-0.16548 43.469397,43.469397 0 0 1 0.0459,-0.16548 43.469397,43.469397 0 0 1 0.0464,-0.1651 43.469397,43.469397 0 0 1 0.0472,-0.1651 43.469397,43.469397 0 0 1 0.048,-0.16494 43.469397,43.469397 0 0 1 0.0485,-0.16454 43.469397,43.469397 0 0 1 0.049,-0.16454 43.469397,43.469397 0 0 1 0.0497,-0.16418 43.469397,43.469397 0 0 1 0.0503,-0.16417 43.469397,43.469397 0 0 1 0.0512,-0.16378 43.469397,43.469397 0 0 1 0.0517,-0.16362 43.469397,43.469397 0 0 1 0.0524,-0.16361 43.469397,43.469397 0 0 1 0.053,-0.16323 43.469397,43.469397 0 0 1 0.0538,-0.16304 43.469397,43.469397 0 0 1 0.0543,-0.16268 43.469397,43.469397 0 0 1 0.0549,-0.16267 43.469397,43.469397 0 0 1 0.0557,-0.16249 43.469397,43.469397 0 0 1 0.0562,-0.16211 43.469397,43.469397 0 0 1 0.0569,-0.16193 43.469397,43.469397 0 0 1 0.0575,-0.16172 43.469397,43.469397 0 0 1 0.058,-0.16156 43.469397,43.469397 0 0 1 0.0588,-0.16117 43.469397,43.469397 0 0 1 0.0595,-0.16118 43.469397,43.469397 0 0 1 0.0599,-0.16062 43.469397,43.469397 0 0 1 0.0606,-0.1606 43.469397,43.469397 0 0 1 0.0614,-0.16043 43.469397,43.469397 0 0 1 0.062,-0.16006 43.469397,43.469397 0 0 1 0.0625,-0.15985 43.469397,43.469397 0 0 1 0.0632,-0.15949 43.469397,43.469397 0 0 1 0.0639,-0.15932 43.469397,43.469397 0 0 1 0.0644,-0.15911 43.469397,43.469397 0 0 1 0.0651,-0.15874 43.469397,43.469397 0 0 1 0.0657,-0.15854 43.469397,43.469397 0 0 1 0.0662,-0.15838 43.469397,43.469397 0 0 1 0.067,-0.158 43.469397,43.469397 0 0 1 0.0676,-0.1578 43.469397,43.469397 0 0 1 0.0681,-0.15762 43.469397,43.469397 0 0 1 0.0688,-0.15705 43.469397,43.469397 0 0 1 0.0695,-0.15706 43.469397,43.469397 0 0 1 0.07,-0.15668 43.469397,43.469397 0 0 1 0.0707,-0.15649 43.469397,43.469397 0 0 1 0.0712,-0.15613 43.469397,43.469397 0 0 1 0.072,-0.15574 43.469397,43.469397 0 0 1 0.0725,-0.15556 43.469397,43.469397 0 0 1 0.0732,-0.15538 43.469397,43.469397 0 0 1 0.0738,-0.15482 43.469397,43.469397 0 0 1 0.0742,-0.15479 43.469397,43.469397 0 0 1 0.075,-0.15443 43.469397,43.469397 0 0 1 0.0756,-0.15408 43.469397,43.469397 0 0 1 0.0762,-0.15368 43.469397,43.469397 0 0 1 0.0767,-0.1535 43.469397,43.469397 0 0 1 0.0776,-0.15331 43.469397,43.469397 0 0 1 0.0779,-0.15275 43.469397,43.469397 0 0 1 0.0786,-0.15257 43.469397,43.469397 0 0 1 0.0793,-0.15238 43.469397,43.469397 0 0 1 0.0797,-0.15199 43.469397,43.469397 0 0 1 0.0805,-0.15163 43.469397,43.469397 0 0 1 0.0809,-0.15126 43.469397,43.469397 0 0 1 0.0816,-0.15107 43.469397,43.469397 0 0 1 0.0823,-0.1505 43.469397,43.469397 0 0 1 0.0828,-0.1505 43.469397,43.469397 0 0 1 0.0833,-0.14995 43.469397,43.469397 0 0 1 0.0841,-0.14976 43.469397,43.469397 0 0 1 0.0846,-0.14918 43.469397,43.469397 0 0 1 0.0851,-0.14902 43.469397,43.469397 0 0 1 0.0857,-0.14882 43.469397,43.469397 0 0 1 0.0863,-0.14826 43.469397,43.469397 0 0 1 0.0871,-0.14807 43.469397,43.469397 0 0 1 0.0874,-0.1477 43.469397,43.469397 0 0 1 0.0882,-0.14713 43.469397,43.469397 0 0 1 0.0888,-0.14695 43.469397,43.469397 0 0 1 0.0891,-0.14674 43.469397,43.469397 0 0 1 0.0898,-0.14622 43.469397,43.469397 0 0 1 0.0904,-0.14583 43.469397,43.469397 0 0 1 0.0909,-0.14563 43.469397,43.469397 0 0 1 0.0916,-0.14507 43.469397,43.469397 0 0 1 0.0921,-0.14489 43.469397,43.469397 0 0 1 0.0928,-0.14452 43.469397,43.469397 0 0 1 0.0932,-0.14396 43.469397,43.469397 0 0 1 0.0937,-0.14376 43.469397,43.469397 0 0 1 0.0945,-0.14339 43.469397,43.469397 0 0 1 0.0949,-0.14301 43.469397,43.469397 0 0 1 0.0954,-0.14247 43.469397,43.469397 0 0 1 0.0962,-0.14227 43.469397,43.469397 0 0 1 0.0966,-0.14189 43.469397,43.469397 0 0 1 0.0972,-0.14133 43.469397,43.469397 0 0 1 0.0979,-0.14114 43.469397,43.469397 0 0 1 0.0982,-0.14059 43.469397,43.469397 0 0 1 0.0988,-0.1404 43.469397,43.469397 0 0 1 0.0994,-0.13983 43.469397,43.469397 0 0 1 0.10019,-0.13947 43.469397,43.469397 0 0 1 0.10051,-0.13927 43.469397,43.469397 0 0 1 0.10113,-0.13871 43.469397,43.469397 0 0 1 0.10165,-0.13814 43.469397,43.469397 0 0 1 0.10216,-0.13796 43.469397,43.469397 0 0 1 0.10259,-0.13761 43.469397,43.469397 0 0 1 0.10331,-0.13702 43.469397,43.469397 0 0 1 0.10389,-0.13665 43.469397,43.469397 0 0 1 0.10426,-0.13627 43.469397,43.469397 0 0 1 0.10484,-0.13591 43.469397,43.469397 0 0 1 0.10538,-0.13553 43.469397,43.469397 0 0 1 0.10596,-0.13497 43.469397,43.469397 0 0 1 0.10651,-0.13458 43.469397,43.469397 0 0 1 0.10709,-0.13423 43.469397,43.469397 0 0 1 0.10763,-0.13366 43.469397,43.469397 0 0 1 0.10801,-0.13347 43.469397,43.469397 0 0 1 0.10856,-0.1329 43.469397,43.469397 0 0 1 0.10914,-0.13234 43.469397,43.469397 0 0 1 0.1097,-0.13217 43.469397,43.469397 0 0 1 0.11007,-0.1316 43.469397,43.469397 0 0 1 0.11064,-0.13122 43.469397,43.469397 0 0 1 0.11138,-0.13066 43.469397,43.469397 0 0 1 0.11156,-0.1303 43.469397,43.469397 0 0 1 0.11233,-0.12991 43.469397,43.469397 0 0 1 0.11268,-0.12935 43.469397,43.469397 0 0 1 0.11325,-0.12897 43.469397,43.469397 0 0 1 0.11382,-0.12862 43.469397,43.469397 0 0 1 0.11418,-0.12804 43.469397,43.469397 0 0 1 0.11476,-0.12766 43.469397,43.469397 0 0 1 0.1153,-0.1271 43.469397,43.469397 0 0 1 0.11589,-0.12674 43.469397,43.469397 0 0 1 0.11624,-0.12617 43.469397,43.469397 0 0 1 0.11681,-0.12579 43.469397,43.469397 0 0 1 0.11719,-0.12541 43.469397,43.469397 0 0 1 0.11774,-0.12488 43.469397,43.469397 0 0 1 0.11832,-0.12449 43.469397,43.469397 0 0 1 0.11867,-0.12392 43.469397,43.469397 0 0 1 0.11925,-0.12335 43.469397,43.469397 0 0 1 0.1198,-0.12298 43.469397,43.469397 0 0 1 0.12019,-0.12262 43.469397,43.469397 0 0 1 0.12074,-0.12205 43.469397,43.469397 0 0 1 0.12111,-0.12149 43.469397,43.469397 0 0 1 0.12168,-0.12113 43.469397,43.469397 0 0 1 0.12204,-0.12053 43.469397,43.469397 0 0 1 0.12263,-0.12018 43.469397,43.469397 0 0 1 0.12317,-0.11962 43.469397,43.469397 0 0 1 0.12354,-0.11906 43.469397,43.469397 0 0 1 0.12392,-0.11868 43.469397,43.469397 0 0 1 0.12449,-0.11812 43.469397,43.469397 0 0 1 0.12505,-0.11775 43.469397,43.469397 0 0 1 0.12542,-0.11719 43.469397,43.469397 0 0 1 0.12579,-0.11662 43.469397,43.469397 0 0 1 0.12636,-0.11625 43.469397,43.469397 0 0 1 0.12672,-0.11569 43.469397,43.469397 0 0 1 0.1273,-0.11512 43.469397,43.469397 0 0 1 0.12767,-0.11476 43.469397,43.469397 0 0 1 0.12823,-0.11418 43.469397,43.469397 0 0 1 0.1286,-0.11363 43.469397,43.469397 0 0 1 0.12898,-0.11326 43.469397,43.469397 0 0 1 0.12953,-0.11267 43.469397,43.469397 0 0 1 0.12992,-0.11214 43.469397,43.469397 0 0 1 0.13048,-0.11157 43.469397,43.469397 0 0 1 0.13065,-0.111 43.469397,43.469397 0 0 1 0.13142,-0.11064 43.469397,43.469397 0 0 1 0.1316,-0.11007 43.469397,43.469397 0 0 1 0.13215,-0.10951 43.469397,43.469397 0 0 1 0.13254,-0.10913 43.469397,43.469397 0 0 1 0.1331,-0.10859 43.469397,43.469397 0 0 1 0.13328,-0.10781 43.469397,43.469397 0 0 1 0.13385,-0.10745 43.469397,43.469397 0 0 1 0.13441,-0.10707 43.469397,43.469397 0 0 1 0.13458,-0.10633 43.469397,43.469397 0 0 1 0.13516,-0.10576 43.469397,43.469397 0 0 1 0.13553,-0.10541 43.469397,43.469397 0 0 1 0.1359,-0.10483 43.469397,43.469397 0 0 1 0.13628,-0.10425 43.469397,43.469397 0 0 1 0.13684,-0.10372 43.469397,43.469397 0 0 1 0.13721,-0.10311 43.469397,43.469397 0 0 1 0.13761,-0.10258 43.469397,43.469397 0 0 1 0.13795,-0.10217 43.469397,43.469397 0 0 1 0.13833,-0.10144 43.469397,43.469397 0 0 1 0.13871,-0.10092 43.469397,43.469397 0 0 1 0.13927,-0.1005 43.469397,43.469397 0 0 1 0.13947,-0.1 43.469397,43.469397 0 0 1 0.14002,-0.0993 43.469397,43.469397 0 0 1 0.14041,-0.0988 43.469397,43.469397 0 0 1 0.14077,-0.0983 43.469397,43.469397 0 0 1 0.14112,-0.0977 43.469397,43.469397 0 0 1 0.14153,-0.097 43.469397,43.469397 0 0 1 0.1419,-0.0966 43.469397,43.469397 0 0 1 0.14226,-0.096 43.469397,43.469397 0 0 1 0.14265,-0.0954 43.469397,43.469397 0 0 1 0.14301,-0.095 43.469397,43.469397 0 0 1 0.1434,-0.0942 43.469397,43.469397 0 0 1 0.14376,-0.0937 43.469397,43.469397 0 0 1 0.14415,-0.0932 43.469397,43.469397 0 0 1 0.1445,-0.0926 43.469397,43.469397 0 0 1 0.14489,-0.092 43.469397,43.469397 0 0 1 0.14526,-0.0916 43.469397,43.469397 0 0 1 0.14564,-0.0908 43.469397,43.469397 0 0 1 0.14602,-0.0903 43.469397,43.469397 0 0 1 0.1462,-0.0896 43.469397,43.469397 0 0 1 0.14675,-0.0891 43.469397,43.469397 0 0 1 0.14695,-0.0886 43.469397,43.469397 0 0 1 0.14751,-0.0881 43.469397,43.469397 0 0 1 0.14771,-0.0874 43.469397,43.469397 0 0 1 0.14807,-0.0868 43.469397,43.469397 0 0 1 0.14825,-0.0863 43.469397,43.469397 0 0 1 0.14883,-0.0857 43.469397,43.469397 0 0 1 0.14899,-0.0851 43.469397,43.469397 0 0 1 0.14958,-0.0844 43.469397,43.469397 0 0 1 0.14956,-0.0839 43.469397,43.469397 0 0 1 0.15014,-0.0833 43.469397,43.469397 0 0 1 0.15051,-0.0828 43.469397,43.469397 0 0 1 0.15069,-0.0822 43.469397,43.469397 0 0 1 0.15107,-0.0814 43.469397,43.469397 0 0 1 0.15124,-0.0809 43.469397,43.469397 0 0 1 0.15182,-0.0803 43.469397,43.469397 0 0 1 0.152,-0.0797 43.469397,43.469397 0 0 1 0.15219,-0.0792 43.469397,43.469397 0 0 1 0.15274,-0.0784 43.469397,43.469397 0 0 1 0.15295,-0.0779 43.469397,43.469397 0 0 1 0.15313,-0.0772 43.469397,43.469397 0 0 1 0.1537,-0.0767 43.469397,43.469397 0 0 1 0.15386,-0.076 43.469397,43.469397 0 0 1 0.15406,-0.0757 43.469397,43.469397 0 0 1 0.15443,-0.0749 43.469397,43.469397 0 0 1 0.15482,-0.0741 43.469397,43.469397 0 0 1 0.155,-0.0738 43.469397,43.469397 0 0 1 0.15537,-0.073 43.469397,43.469397 0 0 1 0.15555,-0.0725 43.469397,43.469397 0 0 1 0.15594,-0.0716 43.469397,43.469397 0 0 1 0.15613,-0.0713 43.469397,43.469397 0 0 1 0.15649,-0.0705 43.469397,43.469397 0 0 1 0.15668,-0.0698 43.469397,43.469397 0 0 1 0.15706,-0.0695 43.469397,43.469397 0 0 1 0.15724,-0.0686 43.469397,43.469397 0 0 1 0.15762,-0.0681 43.469397,43.469397 0 0 1 0.15781,-0.0674 43.469397,43.469397 0 0 1 0.15799,-0.0668 43.469397,43.469397 0 0 1 0.15836,-0.0662 43.469397,43.469397 0 0 1 0.15875,-0.0656 43.469397,43.469397 0 0 1 0.15873,-0.0651 43.469397,43.469397 0 0 1 0.15913,-0.0642 43.469397,43.469397 0 0 1 0.15949,-0.0639 43.469397,43.469397 0 0 1 0.15949,-0.063 43.469397,43.469397 0 0 1 0.15986,-0.0624 43.469397,43.469397 0 0 1 0.16024,-0.062 43.469397,43.469397 0 0 1 0.16023,-0.0611 43.469397,43.469397 0 0 1 0.16063,-0.0606 43.469397,43.469397 0 0 1 0.1608,-0.0599 43.469397,43.469397 0 0 1 0.16116,-0.0595 43.469397,43.469397 0 0 1 0.16137,-0.0587 43.469397,43.469397 0 0 1 0.16155,-0.058 43.469397,43.469397 0 0 1 0.16174,-0.0572 43.469397,43.469397 0 0 1 0.16192,-0.0569 43.469397,43.469397 0 0 1 0.16229,-0.056 43.469397,43.469397 0 0 1 0.16231,-0.0555 43.469397,43.469397 0 0 1 0.16267,-0.0549 43.469397,43.469397 0 0 1 0.16286,-0.0542 43.469397,43.469397 0 0 1 0.16305,-0.0535 43.469397,43.469397 0 0 1 0.16342,-0.0529 43.469397,43.469397 0 0 1 0.16342,-0.0522 43.469397,43.469397 0 0 1 0.16381,-0.0516 43.469397,43.469397 0 0 1 0.16379,-0.0509 43.469397,43.469397 0 0 1 0.16416,-0.0504 43.469397,43.469397 0 0 1 0.16436,-0.0496 43.469397,43.469397 0 0 1 0.16435,-0.049 43.469397,43.469397 0 0 1 0.16474,-0.0483 43.469397,43.469397 0 0 1 0.16492,-0.0478 43.469397,43.469397 0 0 1 0.16511,-0.0469 43.469397,43.469397 0 0 1 0.1651,-0.0464 43.469397,43.469397 0 0 1 0.16549,-0.0458 43.469397,43.469397 0 0 1 0.16565,-0.045 43.469397,43.469397 0 0 1 0.16586,-0.0443 43.469397,43.469397 0 0 1 0.16586,-0.0439 43.469397,43.469397 0 0 1 0.16623,-0.0432 43.469397,43.469397 0 0 1 0.16624,-0.0424 43.469397,43.469397 0 0 1 0.16641,-0.0419 43.469397,43.469397 0 0 1 0.16659,-0.0412 43.469397,43.469397 0 0 1 0.16681,-0.0404 43.469397,43.469397 0 0 1 0.16696,-0.0398 43.469397,43.469397 0 0 1 0.16717,-0.0392 43.469397,43.469397 0 0 1 0.16736,-0.0387 43.469397,43.469397 0 0 1 0.16735,-0.0378 43.469397,43.469397 0 0 1 0.16754,-0.0372 43.469397,43.469397 0 0 1 0.16772,-0.0364 43.469397,43.469397 0 0 1 0.16773,-0.0359 43.469397,43.469397 0 0 1 0.1681,-0.0352 43.469397,43.469397 0 0 1 0.1681,-0.0345 43.469397,43.469397 0 0 1 0.1683,-0.0338 43.469397,43.469397 0 0 1 0.16828,-0.0334 43.469397,43.469397 0 0 1 0.16866,-0.0324 43.469397,43.469397 0 0 1 0.16866,-0.032 43.469397,43.469397 0 0 1 0.16868,-0.0312 43.469397,43.469397 0 0 1 0.16902,-0.0304 43.469397,43.469397 0 0 1 0.16886,-0.0297 43.469397,43.469397 0 0 1 0.16922,-0.0293 43.469397,43.469397 0 0 1 0.16922,-0.0285 43.469397,43.469397 0 0 1 0.16942,-0.0278 43.469397,43.469397 0 0 1 0.16942,-0.0272 43.469397,43.469397 0 0 1 0.16958,-0.0266 43.469397,43.469397 0 0 1 0.16961,-0.0259 43.469397,43.469397 0 0 1 0.16979,-0.0253 43.469397,43.469397 0 0 1 0.16996,-0.0246 43.469397,43.469397 0 0 1 0.16998,-0.0238 43.469397,43.469397 0 0 1 0.16997,-0.0233 43.469397,43.469397 0 0 1 0.17016,-0.0224 43.469397,43.469397 0 0 1 0.17035,-0.0219 43.469397,43.469397 0 0 1 0.17035,-0.0212 43.469397,43.469397 0 0 1 0.17034,-0.0206 43.469397,43.469397 0 0 1 0.17054,-0.0198 43.469397,43.469397 0 0 1 0.17054,-0.019 43.469397,43.469397 0 0 1 0.17053,-0.0186 43.469397,43.469397 0 0 1 0.17073,-0.0178 43.469397,43.469397 0 0 1 0.17091,-0.017 43.469397,43.469397 0 0 1 0.17072,-0.0165 43.469397,43.469397 0 0 1 0.1709,-0.0159 43.469397,43.469397 0 0 1 0.1711,-0.0149 43.469397,43.469397 0 0 1 0.17092,-0.0143 43.469397,43.469397 0 0 1 0.1711,-0.0138 43.469397,43.469397 0 0 1 0.17127,-0.0132 43.469397,43.469397 0 0 1 0.1711,-0.0124 43.469397,43.469397 0 0 1 0.17129,-0.0117 43.469397,43.469397 0 0 1 0.17128,-0.0111 43.469397,43.469397 0 0 1 0.17128,-0.0104 43.469397,43.469397 0 0 1 0.17147,-0.009 43.469397,43.469397 0 0 1 0.17129,-0.009 43.469397,43.469397 0 0 1 0.17147,-0.009 43.469397,43.469397 0 0 1 0.17146,-0.007 43.469397,43.469397 0 0 1 0.17147,-0.006 43.469397,43.469397 0 0 1 0.17148,-0.006 43.469397,43.469397 0 0 1 0.17166,-0.005 43.469397,43.469397 0 0 1 0.17147,-0.004 43.469397,43.469397 0 0 1 0.17166,-0.004 43.469397,43.469397 0 0 1 0.17165,-0.004 43.469397,43.469397 0 0 1 0.17147,-0.003 43.469397,43.469397 0 0 1 0.17167,-0.002 43.469397,43.469397 0 0 1 0.17165,-0.002 43.469397,43.469397 0 0 1 0.17165,-6.9e-4 43.469397,43.469397 0 0 1 0.14078,-2.3e-4 z" />
</svg>
